<?xml version="1.0" encoding="utf-8"?>
<!-- Generator: Adobe Illustrator 27.8.1, SVG Export Plug-In . SVG Version: 6.00 Build 0)  -->
<svg version="1.1" id="Слой_1" xmlns="http://www.w3.org/2000/svg" xmlns:xlink="http://www.w3.org/1999/xlink" x="0px" y="0px"
	 viewBox="0 0 48 48" style="enable-background:new 0 0 48 48;" xml:space="preserve">
<style type="text/css">
	.st0{fill:#FFFFFF;}
	.st1{fill:url(#SVGID_1_);}
	.st2{fill:url(#SVGID_00000125582245859001626400000010190458170388457351_);}
	.st3{fill:url(#SVGID_00000000921396750450962320000003328554695480078217_);}
	.st4{fill:url(#SVGID_00000155863094830880639870000004601971996034853269_);}
	.st5{fill:url(#SVGID_00000182526385137831323230000013862061471048010678_);}
	.st6{fill:url(#SVGID_00000003081248178187275710000011343728288099013525_);}
	.st7{fill:url(#SVGID_00000090989717377861164780000001714776531258116284_);}
	.st8{fill:url(#SVGID_00000004526700416399470420000007027363764513019575_);}
	.st9{fill:url(#SVGID_00000107571372825248516540000000480283798563867781_);}
	.st10{fill:url(#SVGID_00000096037834967863638670000016899026741750198684_);}
	.st11{fill:#624330;}
	.st12{fill:url(#SVGID_00000026862135243217722250000006210678756727691665_);}
	.st13{fill:url(#SVGID_00000101092736246945163080000004006015477946685578_);}
	.st14{fill:url(#SVGID_00000013162512927372600270000015394635584399278494_);}
	.st15{fill:url(#SVGID_00000111889412132903450210000005070517966843976355_);}
	.st16{fill:url(#SVGID_00000079468640630609553690000012480374486527200641_);}
	.st17{fill:url(#SVGID_00000013892098874523777960000014832017440178730923_);}
	.st18{fill:url(#SVGID_00000105423835640633489530000015422233912907431567_);}
	.st19{fill:url(#SVGID_00000062180967168983144460000007954204168835897987_);}
	.st20{fill:url(#SVGID_00000041280289266102725970000006719846456128938938_);}
	.st21{fill:url(#SVGID_00000168096243863800679890000000268375735183509154_);}
	.st22{fill:url(#SVGID_00000093166014268143853740000009986180342035086492_);}
	.st23{fill:url(#SVGID_00000047762535436484442900000017149427021531463588_);}
	.st24{fill:url(#SVGID_00000181779867334240282920000015171344964315130271_);}
	.st25{fill:url(#SVGID_00000010291733800950372670000017258297924783398320_);}
	.st26{fill:url(#SVGID_00000108288941383582800560000005565396925450366104_);}
	.st27{fill:url(#SVGID_00000182499707838973538280000000798507207475640731_);}
	.st28{fill:url(#SVGID_00000098194431565510067330000001613906559027142032_);}
	.st29{fill:#16505C;}
	.st30{fill:#614630;}
	.st31{opacity:0.5;}
	.st32{fill:url(#SVGID_00000114074356796783916150000015741676047132392609_);}
	.st33{fill:url(#SVGID_00000127757637673928783950000018022457602594082696_);}
	.st34{fill:url(#SVGID_00000142166767179720640260000000136305639477309100_);}
	.st35{fill:url(#SVGID_00000026132989702878113120000001130473248482053554_);}
	.st36{fill:url(#SVGID_00000039106181560004566320000009302231676941040044_);}
	.st37{fill:url(#SVGID_00000013903588051003425210000012900645445989053326_);}
	.st38{fill:url(#SVGID_00000057113870600951352020000017324778191341416112_);}
	.st39{fill:url(#SVGID_00000145019927734939933080000011492776247520160919_);}
	.st40{fill:url(#SVGID_00000153701436572715700600000007639858197597955983_);}
	.st41{fill:url(#SVGID_00000016051461222991106210000007263355488221758371_);}
	.st42{fill:url(#SVGID_00000166659484459906979490000000505637954711756729_);}
	.st43{fill:url(#SVGID_00000051368049459996189040000017240656359821418382_);}
	.st44{fill:url(#SVGID_00000095323857877814745290000018196946897284414141_);}
	.st45{fill:url(#SVGID_00000058557203731036607980000014455296433965744543_);}
	.st46{fill:url(#SVGID_00000102522758527976663440000007204809986463315622_);}
	.st47{fill:url(#SVGID_00000122697663111594057500000008061111669730982839_);}
	.st48{fill:url(#SVGID_00000087395912265555079780000015106964079983018382_);}
	.st49{fill:url(#SVGID_00000087386302354088291300000002007366122215147933_);}
	.st50{fill:url(#SVGID_00000081611281365536528830000014772819491864556935_);}
	.st51{fill:url(#SVGID_00000152982514432647980210000002358360089210093709_);}
	.st52{fill:url(#SVGID_00000043458773713091341760000001714405099535828884_);}
	.st53{fill:url(#SVGID_00000000188774105727640650000006542179861119279275_);}
	.st54{fill:url(#SVGID_00000172401946730027688660000013070329092748753835_);}
	.st55{fill:url(#SVGID_00000069363467309160698940000010915355581796166025_);}
	.st56{fill:url(#SVGID_00000022561022218315240580000009819734417305676177_);}
	.st57{fill:url(#SVGID_00000173844131897371955850000001425717532227528378_);}
	.st58{fill:url(#SVGID_00000051369863366643568330000012967351898605132200_);}
	.st59{fill:url(#SVGID_00000058565888515066111290000005577743541516508348_);}
	.st60{fill:url(#SVGID_00000134970789310001325400000016824526167040544140_);}
	.st61{fill:url(#SVGID_00000100381964083530172830000006360104130494616962_);}
	.st62{fill:url(#SVGID_00000083072576540948119460000018330603300127632778_);}
	.st63{fill:url(#SVGID_00000160874240728503552040000008446145330047080364_);}
	.st64{fill:url(#SVGID_00000034807322396964965970000013112384175105787313_);}
	.st65{fill:url(#SVGID_00000076589640593714465180000012906078378726173631_);}
	.st66{fill:url(#SVGID_00000069369611642946230070000000365050527083823502_);}
	.st67{fill:url(#SVGID_00000091015742793365696000000018265889032009275528_);}
	.st68{fill:url(#SVGID_00000050626159907446229210000016480330682383650197_);}
	.st69{fill:url(#SVGID_00000054966622113656346610000012749075753750419845_);}
	.st70{fill:url(#SVGID_00000080888410059476315240000008500551781576754871_);}
	.st71{fill:url(#SVGID_00000180364230650421064210000001912585014072791466_);}
	.st72{fill:url(#SVGID_00000176731615308801451150000007470442988812218510_);}
	.st73{fill:url(#SVGID_00000067921767634913110240000012464700390800740534_);}
	.st74{fill:url(#SVGID_00000098918334638196086210000005118196380895231155_);}
	.st75{fill:url(#SVGID_00000113351081072282001020000001559035893067458439_);}
	.st76{fill:url(#SVGID_00000105413395359281835650000012156030985255367325_);}
	.st77{fill:url(#SVGID_00000116196227261725521380000009918512918422508695_);}
	.st78{fill:url(#SVGID_00000155850313373726108180000009811732232760059553_);}
	.st79{fill:url(#SVGID_00000096059729394009549010000013965300747079001021_);}
	.st80{fill:url(#SVGID_00000028308158899990633110000017447923156866085045_);}
	.st81{fill:url(#SVGID_00000181088090269352102180000004212411012873817988_);}
	.st82{fill:url(#SVGID_00000170267029844751851770000004649136393365011109_);}
	.st83{fill:url(#SVGID_00000147938805633846207710000008183316001349069731_);}
	.st84{fill:url(#SVGID_00000070830493791931548150000003844852964450395303_);}
	.st85{fill:url(#SVGID_00000031190319507074814150000014541748615944393367_);}
	.st86{fill:url(#SVGID_00000011019930798689297800000015555525322658309014_);}
	.st87{fill:url(#SVGID_00000025429645317471341700000003562016072520370314_);}
	.st88{fill:url(#SVGID_00000132790741673871437260000013500603927464974517_);}
	.st89{fill:url(#SVGID_00000034807786796401430620000015161645222461890454_);}
	.st90{fill:url(#SVGID_00000094587142528160916810000002546943029922059904_);}
	.st91{fill:url(#SVGID_00000139285770310993635100000015519518743421843348_);}
	.st92{fill:url(#SVGID_00000033337824157035587360000017157666503893733300_);}
	.st93{fill:url(#SVGID_00000138539399581942831740000011351959014109394821_);}
	.st94{fill:url(#SVGID_00000038381346624389023050000005142967694703245706_);}
	.st95{fill:url(#SVGID_00000075129918622882771700000016143070332092809888_);}
	.st96{fill:url(#SVGID_00000133502729590692942520000017052470906042446745_);}
	.st97{fill:url(#SVGID_00000163031738892685682730000011332881496885551265_);}
	.st98{fill:url(#SVGID_00000160907395080303853410000012573351842647656331_);}
	.st99{fill:url(#SVGID_00000016789814384398665130000013749895617830721664_);}
	.st100{fill:url(#SVGID_00000142894145434152217290000008745762086066473894_);}
	.st101{fill:url(#SVGID_00000116929450296106344180000005810338521895634054_);}
	.st102{fill:url(#SVGID_00000029027293039140458820000005806165924307437444_);}
	.st103{fill:url(#SVGID_00000044859431327703287630000013638036471689342615_);}
	.st104{fill:url(#SVGID_00000049907931787105581820000006084292398713033365_);}
	.st105{fill:url(#SVGID_00000097463451397623464740000005965524334634602942_);}
	.st106{fill:url(#SVGID_00000151535093597841308490000006988273747216934845_);}
	.st107{fill:url(#SVGID_00000021121024255280655570000003231461006660854438_);}
	.st108{fill:url(#SVGID_00000138550539155957437520000016116452519160402332_);}
	.st109{fill:url(#SVGID_00000138552845392571530460000002631115198122138292_);}
	.st110{fill:url(#SVGID_00000127040975991739574720000006018381244044376736_);}
	.st111{fill:url(#SVGID_00000128477036890807719250000007301609787515687578_);}
	.st112{fill:url(#SVGID_00000101069733374125253920000008295604669846876093_);}
	.st113{fill:url(#SVGID_00000036212022340945422600000011804585540889962416_);}
	.st114{fill:url(#SVGID_00000032633748829968106000000012835406111251197062_);}
	.st115{fill:url(#SVGID_00000011712087235047822690000012223094228188200883_);}
	.st116{fill:url(#SVGID_00000031205949117639332500000005641350025239008406_);}
	.st117{fill:url(#SVGID_00000016764393506498010600000006672647301746734763_);}
	.st118{fill:url(#SVGID_00000016774827182108091800000016164253337071094675_);}
	.st119{fill:url(#SVGID_00000049943581705898475430000010943108703880784573_);}
	.st120{fill:url(#SVGID_00000089537560798767336160000015313506698556081031_);}
	.st121{fill:url(#SVGID_00000058587649779249346200000014717517083147136651_);}
	.st122{fill:url(#SVGID_00000137823988139380559430000003073800038472953261_);}
	.st123{fill:url(#SVGID_00000003819004017477571170000014304258336597418383_);}
	.st124{fill:url(#SVGID_00000114070072237480799430000004536392163023191728_);}
	.st125{fill:url(#SVGID_00000080201631380481237940000010020898149978564778_);}
	.st126{fill:url(#SVGID_00000080173291057507875980000010384856787727108532_);}
	.st127{fill:url(#SVGID_00000108306371596785789870000009775332445738230194_);}
	.st128{fill:url(#SVGID_00000090289682990006694610000000935447740190108297_);}
	.st129{fill:url(#SVGID_00000150788271238993322180000012836758028553882802_);}
	.st130{fill:url(#SVGID_00000156551713488636618280000005554912440889462170_);}
	.st131{fill:url(#SVGID_00000033354219395185431030000003128244798737571987_);}
	.st132{fill:url(#SVGID_00000116923093316963888050000012061746558261482420_);}
	.st133{fill:url(#SVGID_00000039835529872506264580000007885877777961968797_);}
	.st134{fill:url(#SVGID_00000084522927551525846950000000334213691898247579_);}
	.st135{fill:url(#SVGID_00000067194472326222976290000005159212966580426648_);}
	.st136{fill:url(#SVGID_00000145021978885907363890000017909513748109939377_);}
	.st137{fill:url(#SVGID_00000087385645077801185670000015685097159055914162_);}
	.st138{fill:url(#SVGID_00000040533850689968727670000009861885824705128583_);}
	.st139{fill:url(#SVGID_00000001664873969667615050000006417609465320779945_);}
	.st140{fill:url(#SVGID_00000056406053181392953890000006062934425255137956_);}
	.st141{fill:url(#SVGID_00000057114618031507614610000004057206821783006116_);}
	.st142{fill:url(#SVGID_00000132768414392562564200000009953825220747022002_);}
	.st143{fill:url(#SVGID_00000026886199962034946290000003570229016215076795_);}
	.st144{fill:url(#SVGID_00000031181744505181726930000013025474988491658113_);}
	.st145{fill:url(#SVGID_00000155861572268314510400000003460939979076663438_);}
	.st146{fill:url(#SVGID_00000082353076006947142110000013894054543751881872_);}
	.st147{fill:url(#SVGID_00000040534606167564224810000013819853990324294834_);}
	.st148{fill:url(#SVGID_00000112619059761344998150000014419067666513261718_);}
	.st149{fill:url(#SVGID_00000015332373641769088070000005102937889062844833_);}
</style>
<g>
	<path class="st0" d="M34.39,13.73c-0.33,1.31-0.93,2.5-1.78,3.56c-0.68,0.84-1.48,1.54-2.33,2.2c-0.61,0.47-1.21,0.96-1.74,1.52
		c-0.57,0.59-0.96,1.29-1.19,2.08c-0.21,0.72-0.3,1.46-0.31,2.22c0,0.23-0.01,0.47-0.02,0.7c-0.03,0.67-0.06,1.34-0.27,1.96
		c-0.01,0.04-0.03,0.08-0.05,0.13h-5.47c-0.05,0-0.09-0.01-0.14-0.02c-0.43-0.06-0.68-0.35-0.75-0.77c-0.05-0.33-0.08-0.67-0.1-1.01
		c-0.06-0.95-0.21-1.87-0.57-2.75c-0.29-0.7-0.69-1.33-1.18-1.9c-0.35-0.41-0.74-0.78-1.13-1.16c-0.85-0.81-1.67-1.63-2.3-2.62
		c-0.83-1.31-1.37-2.72-1.55-4.27c-0.23-2.01,0.09-3.93,0.97-5.75c0.38-0.8,0.88-1.53,1.45-2.22c0.68-0.81,1.44-1.52,2.33-2.09
		c1.27-0.81,2.64-1.38,4.12-1.64c0.87-0.15,1.76-0.21,2.65-0.17c0.67,0.03,1.35,0.09,2.01,0.24l0,0c0.19,0.04,0.38,0.09,0.56,0.15
		c0.99,0.3,1.9,0.76,2.73,1.38c0.07,0.05,0.14,0.1,0.21,0.16c0.34,0.26,0.68,0.51,0.99,0.81c0.52,0.49,0.99,1.03,1.38,1.64
		c0.24,0.37,0.46,0.76,0.66,1.15c0.55,1.06,0.87,2.2,1,3.38C34.7,11.66,34.64,12.71,34.39,13.73z"/>
	<g>
		<linearGradient id="SVGID_1_" gradientUnits="userSpaceOnUse" x1="19.3832" y1="21.317" x2="19.3832" y2="9.5703">
			<stop  offset="0.3691" style="stop-color:#11555C"/>
			<stop  offset="1" style="stop-color:#37C3B5"/>
		</linearGradient>
		<path class="st1" d="M24.24,15.18c-0.01-0.25-0.01-0.51-0.02-0.76c0-0.1-0.03-0.2-0.06-0.3c-0.04-0.16-0.15-0.26-0.32-0.27
			c-0.19-0.02-0.38-0.04-0.57-0.06c-0.13-0.01-0.22-0.06-0.28-0.18c-0.09-0.19-0.19-0.39-0.31-0.56c-0.11-0.17-0.08-0.3,0.03-0.46
			c0.11-0.16,0.19-0.35,0.28-0.52c0.08-0.17,0.05-0.31-0.09-0.43c-0.28-0.23-0.55-0.45-0.84-0.66c-0.18-0.13-0.23-0.11-0.4,0.03
			c-0.17,0.13-0.33,0.27-0.49,0.41c-0.08,0.07-0.16,0.08-0.26,0.05c-0.21-0.07-0.42-0.14-0.64-0.19c-0.15-0.04-0.23-0.11-0.27-0.26
			c-0.05-0.22-0.13-0.42-0.2-0.64c-0.04-0.14-0.13-0.21-0.27-0.22c-0.38-0.04-0.76,0.02-1.13,0.09c-0.13,0.02-0.19,0.11-0.2,0.23
			c-0.02,0.22-0.05,0.44-0.06,0.66c-0.01,0.17-0.07,0.27-0.25,0.33c-0.16,0.05-0.31,0.13-0.45,0.23c-0.16,0.11-0.29,0.12-0.44,0.03
			c-0.16-0.1-0.33-0.18-0.5-0.27c-0.03-0.01-0.06-0.03-0.09-0.04c-0.11-0.04-0.22-0.03-0.32,0.04c-0.02,0.01-0.03,0.02-0.04,0.04
			c-0.22,0.24-0.44,0.48-0.63,0.74c-0.19,0.25-0.18,0.34,0.02,0.59c0.11,0.14,0.22,0.29,0.34,0.43c0.08,0.1,0.1,0.21,0.05,0.33
			c-0.07,0.16-0.13,0.33-0.17,0.49c-0.05,0.2-0.16,0.29-0.36,0.33c-0.17,0.03-0.34,0.08-0.51,0.13c-0.16,0.05-0.26,0.16-0.26,0.33
			c0.01,0.35,0.03,0.7,0.06,1.04c0.01,0.18,0.11,0.29,0.3,0.32c0.21,0.03,0.42,0.07,0.63,0.1c0.13,0.01,0.21,0.07,0.27,0.19
			c0.08,0.19,0.18,0.37,0.28,0.55c0.06,0.1,0.04,0.18-0.01,0.27c-0.11,0.17-0.21,0.34-0.3,0.52c-0.09,0.18-0.05,0.4,0.1,0.53
			c0.21,0.18,0.43,0.35,0.64,0.53c0.25,0.2,0.3,0.2,0.56,0.01c0.16-0.11,0.3-0.23,0.45-0.35c0.11-0.09,0.21-0.11,0.37-0.02
			c0.14,0.08,0.29,0.13,0.44,0.15c0.21,0.03,0.3,0.13,0.34,0.31c0.04,0.18,0.09,0.35,0.15,0.53c0.06,0.17,0.17,0.28,0.37,0.27
			c0.34-0.02,0.68-0.03,1.02-0.06c0.17-0.01,0.3-0.14,0.33-0.3c0.03-0.17,0.06-0.34,0.05-0.5c-0.01-0.22,0.08-0.34,0.28-0.41
			c0.16-0.06,0.32-0.14,0.47-0.23c0.14-0.08,0.24-0.07,0.37,0.01c0.16,0.11,0.33,0.19,0.49,0.3c0.15,0.09,0.27,0.08,0.42-0.01
			c0.32-0.22,0.53-0.52,0.74-0.83c0.12-0.18,0.11-0.34-0.01-0.5c-0.1-0.13-0.21-0.26-0.32-0.38c-0.13-0.13-0.16-0.26-0.08-0.43
			c0.07-0.16,0.14-0.32,0.17-0.49c0.04-0.18,0.14-0.24,0.3-0.28c0.22-0.05,0.43-0.12,0.64-0.19C24.18,15.46,24.25,15.35,24.24,15.18
			z M19.38,17.67c-1.49,0-2.7-1.21-2.7-2.7c0-1.49,1.21-2.7,2.7-2.7c1.49,0,2.7,1.21,2.7,2.7C22.08,16.47,20.87,17.67,19.38,17.67z"
			/>
		
			<linearGradient id="SVGID_00000143605580754313188320000007413063554484165292_" gradientUnits="userSpaceOnUse" x1="19.3832" y1="21.317" x2="19.3832" y2="9.5703">
			<stop  offset="0.3691" style="stop-color:#11555C"/>
			<stop  offset="1" style="stop-color:#37C3B5"/>
		</linearGradient>
		<path style="fill:url(#SVGID_00000143605580754313188320000007413063554484165292_);" d="M19.38,12.81
			c-1.19,0-2.16,0.97-2.16,2.16c0,1.19,0.97,2.16,2.16,2.16c1.19,0,2.16-0.97,2.16-2.16C21.55,13.78,20.58,12.81,19.38,12.81z
			 M19.38,16.59c-0.89,0-1.61-0.72-1.61-1.61c0-0.89,0.72-1.61,1.61-1.61c0.89,0,1.61,0.72,1.61,1.61
			C20.99,15.87,20.27,16.59,19.38,16.59z"/>
	</g>
	<g>
		<g>
			
				<linearGradient id="SVGID_00000075852398166889999700000004483175294846115998_" gradientUnits="userSpaceOnUse" x1="28.9115" y1="5.1361" x2="28.9115" y2="15.3987">
				<stop  offset="0" style="stop-color:#F8A074"/>
				<stop  offset="1" style="stop-color:#F56A4C"/>
			</linearGradient>
			<path style="fill:url(#SVGID_00000075852398166889999700000004483175294846115998_);" d="M34.22,11.35
				c0-0.28,0.02-0.56,0.02-0.84c0-0.11-0.02-0.22-0.05-0.33c-0.04-0.18-0.15-0.29-0.34-0.31c-0.21-0.03-0.41-0.07-0.62-0.09
				c-0.14-0.01-0.24-0.07-0.3-0.21c-0.1-0.21-0.19-0.43-0.31-0.63c-0.11-0.19-0.07-0.33,0.05-0.5C32.8,8.27,32.89,8.07,33,7.88
				c0.1-0.18,0.07-0.34-0.08-0.47c-0.29-0.26-0.58-0.52-0.89-0.76c-0.19-0.15-0.25-0.13-0.44,0.01c-0.19,0.14-0.37,0.28-0.56,0.43
				c-0.09,0.07-0.18,0.08-0.29,0.04c-0.23-0.09-0.46-0.17-0.69-0.24c-0.16-0.05-0.25-0.13-0.28-0.3c-0.05-0.24-0.13-0.47-0.19-0.71
				c-0.04-0.15-0.13-0.23-0.29-0.25c-0.42-0.06-0.83-0.01-1.25,0.05c-0.14,0.02-0.21,0.11-0.23,0.24c-0.03,0.24-0.08,0.48-0.09,0.72
				c-0.01,0.18-0.09,0.29-0.29,0.35c-0.18,0.05-0.34,0.13-0.5,0.23c-0.18,0.11-0.32,0.12-0.48,0.01c-0.17-0.12-0.36-0.22-0.54-0.32
				c-0.03-0.02-0.06-0.03-0.09-0.05c-0.11-0.05-0.25-0.04-0.35,0.03c-0.02,0.01-0.03,0.02-0.05,0.04c-0.25,0.25-0.5,0.51-0.73,0.78
				c-0.22,0.26-0.21,0.36-0.01,0.65c0.11,0.16,0.23,0.33,0.35,0.49c0.09,0.12,0.1,0.23,0.04,0.37c-0.08,0.17-0.16,0.35-0.21,0.53
				c-0.06,0.22-0.19,0.31-0.41,0.34c-0.19,0.03-0.38,0.07-0.56,0.12c-0.18,0.05-0.3,0.16-0.3,0.35c0,0.38,0,0.77,0.02,1.15
				c0.01,0.19,0.11,0.33,0.31,0.37c0.23,0.05,0.46,0.1,0.69,0.13c0.14,0.02,0.23,0.08,0.29,0.22c0.08,0.21,0.18,0.41,0.29,0.61
				c0.06,0.11,0.04,0.2-0.03,0.3c-0.12,0.18-0.24,0.37-0.35,0.56c-0.11,0.19-0.08,0.44,0.08,0.59c0.22,0.21,0.45,0.41,0.68,0.61
				c0.26,0.23,0.32,0.23,0.62,0.04c0.18-0.11,0.34-0.24,0.51-0.37c0.12-0.1,0.24-0.11,0.41,0c0.14,0.09,0.31,0.15,0.48,0.19
				c0.23,0.05,0.33,0.16,0.36,0.36c0.03,0.2,0.08,0.39,0.14,0.58c0.06,0.19,0.17,0.32,0.39,0.32c0.37,0,0.74,0,1.12-0.01
				c0.18-0.01,0.34-0.14,0.38-0.32c0.04-0.18,0.08-0.37,0.08-0.55c0-0.24,0.1-0.37,0.32-0.44c0.18-0.06,0.36-0.13,0.53-0.23
				c0.15-0.08,0.27-0.07,0.41,0.03c0.17,0.12,0.35,0.23,0.52,0.35c0.16,0.11,0.3,0.1,0.46,0c0.36-0.22,0.6-0.55,0.85-0.87
				c0.14-0.19,0.14-0.37,0.01-0.55c-0.11-0.15-0.21-0.3-0.34-0.43c-0.13-0.15-0.16-0.3-0.07-0.48c0.08-0.17,0.16-0.35,0.21-0.53
				c0.05-0.19,0.16-0.26,0.35-0.29c0.24-0.04,0.47-0.11,0.71-0.18C34.14,11.65,34.23,11.54,34.22,11.35z M28.78,13.86
				c-1.63-0.07-2.9-1.45-2.83-3.08c0.07-1.63,1.45-2.9,3.08-2.83c1.63,0.07,2.9,1.45,2.83,3.08C31.79,12.66,30.41,13.93,28.78,13.86
				z"/>
			
				<linearGradient id="SVGID_00000014602321022874708380000017531236037843937182_" gradientUnits="userSpaceOnUse" x1="28.9064" y1="5.1361" x2="28.9064" y2="15.3987">
				<stop  offset="0" style="stop-color:#F8A074"/>
				<stop  offset="1" style="stop-color:#F56A4C"/>
			</linearGradient>
			<path style="fill:url(#SVGID_00000014602321022874708380000017531236037843937182_);" d="M29.01,8.53
				c-1.31-0.05-2.41,0.96-2.47,2.27c-0.05,1.31,0.96,2.42,2.27,2.47c1.31,0.05,2.42-0.96,2.47-2.27C31.33,9.7,30.32,8.59,29.01,8.53
				z M28.83,12.67c-0.98-0.04-1.73-0.86-1.69-1.84C27.18,9.86,28,9.1,28.98,9.14c0.98,0.04,1.73,0.86,1.69,1.84
				C30.63,11.95,29.81,12.71,28.83,12.67z"/>
		</g>
	</g>
	<g>
		
			<linearGradient id="SVGID_00000051349848547731367060000005217147340149494718_" gradientUnits="userSpaceOnUse" x1="26.2481" y1="22.0497" x2="26.2481" y2="15.7787">
			<stop  offset="0.3691" style="stop-color:#11555C"/>
			<stop  offset="1" style="stop-color:#37C3B5"/>
		</linearGradient>
		<path style="fill:url(#SVGID_00000051349848547731367060000005217147340149494718_);" d="M29.12,19.23c0-0.15,0.02-0.3,0.02-0.45
			c0-0.06-0.01-0.12-0.02-0.18c-0.02-0.1-0.08-0.16-0.18-0.18c-0.11-0.02-0.22-0.04-0.33-0.06c-0.08-0.01-0.13-0.04-0.16-0.12
			c-0.05-0.12-0.1-0.24-0.16-0.35c-0.06-0.11-0.03-0.18,0.04-0.27c0.07-0.09,0.13-0.2,0.19-0.3c0.06-0.09,0.04-0.19-0.03-0.26
			c-0.15-0.15-0.31-0.29-0.47-0.43c-0.1-0.08-0.13-0.08-0.24,0c-0.11,0.07-0.21,0.15-0.31,0.22c-0.05,0.04-0.1,0.04-0.16,0.02
			c-0.12-0.05-0.24-0.1-0.37-0.14c-0.09-0.03-0.13-0.08-0.15-0.17c-0.02-0.13-0.06-0.26-0.09-0.39c-0.02-0.08-0.07-0.13-0.15-0.14
			c-0.23-0.04-0.45-0.02-0.68,0c-0.08,0.01-0.12,0.06-0.13,0.13c-0.02,0.13-0.05,0.26-0.06,0.39c-0.01,0.1-0.06,0.15-0.17,0.18
			c-0.1,0.02-0.19,0.06-0.28,0.11c-0.1,0.06-0.18,0.06-0.26,0c-0.09-0.07-0.19-0.12-0.29-0.18c-0.02-0.01-0.03-0.02-0.05-0.03
			c-0.06-0.03-0.13-0.03-0.19,0.01c-0.01,0.01-0.02,0.01-0.03,0.02c-0.14,0.13-0.28,0.27-0.41,0.41c-0.12,0.14-0.12,0.19-0.02,0.35
			c0.06,0.09,0.12,0.18,0.18,0.27c0.04,0.06,0.05,0.13,0.01,0.2c-0.05,0.09-0.09,0.19-0.12,0.29c-0.04,0.12-0.11,0.17-0.23,0.18
			c-0.1,0.01-0.21,0.03-0.31,0.05c-0.1,0.02-0.16,0.08-0.17,0.19c-0.01,0.21-0.01,0.42-0.01,0.62c0,0.11,0.05,0.18,0.16,0.21
			c0.12,0.03,0.25,0.06,0.37,0.09c0.08,0.01,0.12,0.05,0.15,0.12c0.04,0.12,0.09,0.23,0.14,0.34c0.03,0.06,0.02,0.11-0.02,0.16
			c-0.07,0.1-0.14,0.19-0.2,0.3c-0.06,0.1-0.05,0.24,0.03,0.32c0.11,0.12,0.24,0.23,0.36,0.34c0.14,0.13,0.17,0.13,0.33,0.03
			c0.1-0.06,0.19-0.12,0.28-0.19c0.07-0.05,0.13-0.06,0.22,0.01c0.08,0.05,0.16,0.09,0.26,0.11c0.12,0.03,0.17,0.09,0.19,0.2
			c0.01,0.11,0.04,0.21,0.06,0.32c0.03,0.11,0.09,0.18,0.21,0.18c0.2,0.01,0.4,0.02,0.61,0.01c0.1,0,0.19-0.07,0.21-0.16
			c0.03-0.1,0.05-0.2,0.05-0.3c0-0.13,0.06-0.2,0.18-0.23c0.1-0.03,0.2-0.07,0.29-0.11c0.08-0.04,0.15-0.03,0.22,0.02
			c0.09,0.07,0.19,0.13,0.28,0.2c0.08,0.06,0.16,0.06,0.25,0.01c0.2-0.11,0.34-0.28,0.48-0.46c0.08-0.1,0.08-0.2,0.01-0.3
			c-0.06-0.08-0.11-0.17-0.17-0.24c-0.07-0.08-0.08-0.16-0.03-0.26c0.05-0.09,0.1-0.19,0.13-0.29c0.03-0.1,0.09-0.14,0.19-0.15
			c0.13-0.02,0.26-0.05,0.39-0.08C29.07,19.39,29.12,19.33,29.12,19.23z M26.12,20.49c-0.89-0.07-1.55-0.84-1.48-1.73
			c0.07-0.89,0.84-1.55,1.73-1.48c0.89,0.07,1.55,0.84,1.48,1.73C27.78,19.9,27.01,20.56,26.12,20.49z"/>
		
			<linearGradient id="SVGID_00000100382883268827030210000010179360224248801213_" gradientUnits="userSpaceOnUse" x1="26.2448" y1="22.0497" x2="26.2448" y2="15.7787">
			<stop  offset="0.3691" style="stop-color:#11555C"/>
			<stop  offset="1" style="stop-color:#37C3B5"/>
		</linearGradient>
		<path style="fill:url(#SVGID_00000100382883268827030210000010179360224248801213_);" d="M26.34,17.6
			c-0.71-0.06-1.33,0.48-1.39,1.19c-0.06,0.71,0.48,1.33,1.19,1.39c0.71,0.06,1.33-0.48,1.39-1.19
			C27.59,18.28,27.05,17.66,26.34,17.6z M26.17,19.85c-0.53-0.04-0.92-0.5-0.88-1.03c0.04-0.53,0.5-0.92,1.03-0.88
			c0.53,0.04,0.92,0.5,0.88,1.03C27.16,19.49,26.7,19.89,26.17,19.85z"/>
	</g>
	<g>
		
			<linearGradient id="SVGID_00000149352699724848630120000005539514322049183123_" gradientUnits="userSpaceOnUse" x1="21.6214" y1="18.8136" x2="21.6214" y2="23.3324">
			<stop  offset="0" style="stop-color:#F8A074"/>
			<stop  offset="1" style="stop-color:#F56A4C"/>
		</linearGradient>
		<path style="fill:url(#SVGID_00000149352699724848630120000005539514322049183123_);" d="M23.57,21.55c0-0.1,0-0.2,0-0.31
			c0-0.04-0.01-0.08-0.02-0.12c-0.02-0.06-0.06-0.1-0.13-0.11c-0.08-0.01-0.15-0.02-0.23-0.03c-0.05,0-0.09-0.02-0.11-0.07
			c-0.04-0.08-0.07-0.16-0.12-0.23c-0.04-0.07-0.03-0.12,0.01-0.18c0.04-0.07,0.08-0.14,0.11-0.21c0.03-0.07,0.02-0.13-0.03-0.17
			c-0.11-0.09-0.22-0.19-0.33-0.27c-0.07-0.05-0.09-0.05-0.16,0.01c-0.07,0.05-0.13,0.11-0.2,0.16c-0.03,0.03-0.07,0.03-0.11,0.02
			C22.17,20,22.09,19.97,22,19.95c-0.06-0.02-0.09-0.05-0.11-0.11c-0.02-0.09-0.05-0.17-0.08-0.26c-0.02-0.06-0.05-0.08-0.11-0.09
			c-0.15-0.02-0.31,0-0.46,0.03c-0.05,0.01-0.08,0.04-0.08,0.09c-0.01,0.09-0.02,0.18-0.03,0.27c0,0.07-0.03,0.11-0.1,0.13
			c-0.06,0.02-0.12,0.05-0.18,0.09c-0.06,0.04-0.12,0.05-0.18,0.01c-0.06-0.04-0.13-0.08-0.2-0.11c-0.01-0.01-0.02-0.01-0.04-0.02
			c-0.04-0.02-0.09-0.01-0.13,0.01c-0.01,0-0.01,0.01-0.02,0.02c-0.09,0.1-0.18,0.19-0.26,0.29c-0.08,0.1-0.07,0.13,0,0.24
			c0.04,0.06,0.09,0.12,0.13,0.17c0.03,0.04,0.04,0.08,0.02,0.13c-0.03,0.06-0.06,0.13-0.07,0.2c-0.02,0.08-0.07,0.12-0.15,0.13
			c-0.07,0.01-0.14,0.03-0.2,0.05c-0.06,0.02-0.11,0.06-0.11,0.13c0,0.14,0.01,0.28,0.02,0.42c0,0.07,0.04,0.12,0.12,0.13
			c0.08,0.02,0.17,0.03,0.25,0.04c0.05,0.01,0.09,0.03,0.11,0.08c0.03,0.08,0.07,0.15,0.11,0.22c0.02,0.04,0.02,0.07-0.01,0.11
			c-0.04,0.07-0.09,0.14-0.12,0.21c-0.04,0.07-0.02,0.16,0.04,0.22c0.08,0.08,0.17,0.15,0.26,0.22c0.1,0.08,0.12,0.08,0.23,0.01
			c0.06-0.04,0.12-0.09,0.18-0.14c0.04-0.04,0.09-0.04,0.15-0.01c0.05,0.03,0.11,0.05,0.18,0.06c0.09,0.02,0.12,0.05,0.13,0.13
			c0.01,0.07,0.03,0.14,0.06,0.21c0.02,0.07,0.07,0.12,0.15,0.11c0.14,0,0.27-0.01,0.41-0.02c0.07,0,0.12-0.05,0.13-0.12
			c0.01-0.07,0.03-0.13,0.02-0.2c0-0.09,0.03-0.14,0.11-0.16c0.07-0.02,0.13-0.05,0.19-0.09c0.06-0.03,0.1-0.03,0.15,0.01
			c0.06,0.04,0.13,0.08,0.19,0.12c0.06,0.04,0.11,0.04,0.17,0c0.13-0.08,0.22-0.21,0.3-0.33c0.05-0.07,0.05-0.14,0-0.2
			c-0.04-0.05-0.08-0.11-0.13-0.16c-0.05-0.05-0.06-0.11-0.03-0.17c0.03-0.06,0.06-0.13,0.07-0.2c0.02-0.07,0.06-0.1,0.12-0.11
			c0.09-0.02,0.17-0.05,0.26-0.07C23.55,21.66,23.58,21.61,23.57,21.55z M21.6,22.52c-0.6-0.01-1.08-0.5-1.07-1.1
			c0.01-0.6,0.5-1.08,1.1-1.07c0.6,0.01,1.08,0.5,1.07,1.1C22.7,22.05,22.2,22.53,21.6,22.52z"/>
		
			<linearGradient id="SVGID_00000134970271116404936100000011172116164783567293_" gradientUnits="userSpaceOnUse" x1="21.6217" y1="18.8136" x2="21.6217" y2="23.3324">
			<stop  offset="0" style="stop-color:#F8A074"/>
			<stop  offset="1" style="stop-color:#F56A4C"/>
		</linearGradient>
		<path style="fill:url(#SVGID_00000134970271116404936100000011172116164783567293_);" d="M21.64,20.56
			c-0.48-0.01-0.88,0.37-0.88,0.85c-0.01,0.48,0.37,0.88,0.85,0.88c0.48,0.01,0.88-0.37,0.88-0.85
			C22.5,20.97,22.12,20.57,21.64,20.56z M21.61,22.08c-0.36-0.01-0.64-0.3-0.64-0.66c0.01-0.36,0.3-0.64,0.66-0.64
			c0.36,0.01,0.64,0.3,0.64,0.66C22.26,21.8,21.97,22.09,21.61,22.08z"/>
	</g>
	<g>
		
			<linearGradient id="SVGID_00000016075133066857861700000003112905022194763139_" gradientUnits="userSpaceOnUse" x1="20.757" y1="3.0601" x2="20.757" y2="9.5396">
			<stop  offset="0" style="stop-color:#F8A074"/>
			<stop  offset="1" style="stop-color:#F56A4C"/>
		</linearGradient>
		<path style="fill:url(#SVGID_00000016075133066857861700000003112905022194763139_);" d="M24.29,6.43
			c-0.03-0.18-0.05-0.37-0.07-0.55c-0.01-0.07-0.04-0.15-0.07-0.21C24.1,5.56,24.02,5.49,23.9,5.5c-0.14,0-0.28,0-0.42,0
			c-0.1,0-0.17-0.02-0.22-0.11c-0.08-0.13-0.17-0.26-0.27-0.38C22.9,4.9,22.91,4.8,22.98,4.68c0.07-0.13,0.11-0.27,0.16-0.4
			c0.05-0.13,0.01-0.23-0.1-0.3c-0.22-0.14-0.44-0.28-0.66-0.41c-0.14-0.08-0.18-0.06-0.29,0.05c-0.11,0.11-0.22,0.22-0.32,0.34
			c-0.05,0.06-0.11,0.07-0.19,0.06c-0.16-0.03-0.32-0.07-0.48-0.09c-0.11-0.01-0.17-0.06-0.21-0.17c-0.06-0.15-0.13-0.3-0.19-0.44
			c-0.04-0.1-0.11-0.14-0.22-0.14c-0.28,0-0.55,0.08-0.81,0.16c-0.09,0.03-0.13,0.09-0.13,0.18c0,0.16,0,0.32,0.01,0.48
			c0.01,0.12-0.03,0.2-0.16,0.26c-0.11,0.05-0.21,0.12-0.31,0.2c-0.11,0.09-0.2,0.11-0.31,0.05c-0.12-0.06-0.26-0.11-0.39-0.16
			c-0.02-0.01-0.04-0.01-0.07-0.02c-0.08-0.02-0.17,0-0.23,0.05c-0.01,0.01-0.02,0.02-0.03,0.03c-0.14,0.19-0.28,0.38-0.4,0.59
			c-0.12,0.19-0.1,0.26,0.06,0.43C17.81,5.52,17.9,5.61,18,5.7c0.07,0.07,0.09,0.14,0.06,0.24c-0.04,0.12-0.07,0.25-0.08,0.37
			c-0.02,0.15-0.1,0.22-0.23,0.27c-0.12,0.04-0.24,0.08-0.36,0.13c-0.11,0.05-0.18,0.14-0.16,0.26c0.04,0.25,0.08,0.5,0.12,0.75
			c0.02,0.13,0.11,0.2,0.24,0.21c0.16,0.01,0.31,0.02,0.47,0.02c0.09,0,0.16,0.03,0.21,0.11c0.08,0.13,0.16,0.25,0.25,0.37
			c0.05,0.07,0.05,0.13,0.01,0.2c-0.06,0.13-0.12,0.26-0.18,0.4c-0.05,0.14-0.01,0.29,0.11,0.38c0.16,0.12,0.34,0.22,0.51,0.33
			c0.2,0.12,0.23,0.12,0.41-0.04c0.1-0.09,0.2-0.19,0.3-0.29c0.07-0.07,0.14-0.1,0.27-0.04c0.1,0.05,0.22,0.07,0.33,0.07
			c0.16,0.01,0.23,0.07,0.27,0.2c0.04,0.13,0.09,0.25,0.15,0.37c0.06,0.12,0.15,0.19,0.29,0.17c0.24-0.04,0.49-0.07,0.73-0.12
			c0.12-0.02,0.21-0.12,0.22-0.24c0.01-0.12,0.02-0.25,0-0.37C21.9,9.3,21.96,9.2,22.1,9.13c0.11-0.06,0.22-0.12,0.32-0.2
			c0.09-0.07,0.17-0.07,0.27-0.02c0.12,0.06,0.25,0.12,0.38,0.18c0.11,0.06,0.2,0.04,0.3-0.04c0.21-0.18,0.34-0.42,0.47-0.66
			c0.07-0.14,0.06-0.26-0.05-0.36c-0.09-0.09-0.17-0.17-0.26-0.25c-0.1-0.08-0.13-0.18-0.09-0.31c0.04-0.12,0.07-0.25,0.09-0.37
			c0.01-0.13,0.08-0.19,0.2-0.23c0.15-0.05,0.3-0.12,0.45-0.19C24.26,6.64,24.31,6.56,24.29,6.43z M20.97,8.62
			c-1.08,0.12-2.05-0.66-2.17-1.74c-0.12-1.08,0.66-2.05,1.74-2.17c1.08-0.12,2.05,0.66,2.17,1.74C22.82,7.54,22.05,8.51,20.97,8.62
			z"/>
		
			<linearGradient id="SVGID_00000067934150289973340590000017778082000182566808_" gradientUnits="userSpaceOnUse" x1="20.753" y1="3.0601" x2="20.753" y2="9.5396">
			<stop  offset="0" style="stop-color:#F8A074"/>
			<stop  offset="1" style="stop-color:#F56A4C"/>
		</linearGradient>
		<path style="fill:url(#SVGID_00000067934150289973340590000017778082000182566808_);" d="M20.58,5.11
			c-0.86,0.09-1.49,0.87-1.39,1.74c0.09,0.86,0.87,1.49,1.74,1.39c0.86-0.09,1.49-0.87,1.39-1.74C22.22,5.64,21.45,5.01,20.58,5.11z
			 M20.88,7.84c-0.64,0.07-1.22-0.39-1.29-1.04c-0.07-0.64,0.39-1.22,1.04-1.29c0.64-0.07,1.22,0.39,1.29,1.04
			C21.99,7.19,21.53,7.77,20.88,7.84z"/>
	</g>
	<path class="st11" d="M31.05,43.58c-0.26,0.47-0.81,0.71-1.33,0.58c-0.29-0.07-0.6-0.28-0.78-0.76v2.11c0,0.89-0.46,1.67-1.16,2.11
		c-0.14,0.09-0.3,0.17-0.46,0.23c-0.27,0.1-0.56,0.16-0.87,0.16h-5.01c-0.31,0-0.6-0.06-0.87-0.16c-0.16-0.06-0.32-0.14-0.46-0.23
		c-0.7-0.44-1.16-1.22-1.16-2.11V43.4c-0.18,0.49-0.48,0.69-0.78,0.76c-0.52,0.13-1.07-0.11-1.33-0.58
		c-0.47-0.84,0.15-2.02,0.15-2.02l1.21-2.45l5.67-0.15l0.07,0h0l0.07,0l5.67,0.15l1.21,2.45C30.9,41.56,31.52,42.74,31.05,43.58z"/>
	<g>
		
			<linearGradient id="SVGID_00000017499600326815170030000001901717204462274208_" gradientUnits="userSpaceOnUse" x1="14.9918" y1="44.4665" x2="25.7445" y2="35.3681">
			<stop  offset="0" style="stop-color:#DD532D"/>
			<stop  offset="1" style="stop-color:#FEC474"/>
		</linearGradient>
		<polygon style="fill:url(#SVGID_00000017499600326815170030000001901717204462274208_);" points="20.88,39.15 18.72,39.15 
			21.05,41.51 		"/>
		
			<linearGradient id="SVGID_00000142156561485069142860000011667403216720293760_" gradientUnits="userSpaceOnUse" x1="15.399" y1="44.9477" x2="26.1516" y2="35.8493">
			<stop  offset="0" style="stop-color:#DD532D"/>
			<stop  offset="1" style="stop-color:#FEC474"/>
		</linearGradient>
		<polygon style="fill:url(#SVGID_00000142156561485069142860000011667403216720293760_);" points="21.15,42.86 21.1,42.24 
			18.5,39.55 18.93,43.61 18.95,44.63 		"/>
		
			<linearGradient id="SVGID_00000062156693354759683890000017461360092160198809_" gradientUnits="userSpaceOnUse" x1="17.8691" y1="47.8669" x2="28.6217" y2="38.7685">
			<stop  offset="0" style="stop-color:#DD532D"/>
			<stop  offset="1" style="stop-color:#FEC474"/>
		</linearGradient>
		<polygon style="fill:url(#SVGID_00000062156693354759683890000017461360092160198809_);" points="21.41,46.56 21.19,43.44 
			19.31,44.96 		"/>
		
			<linearGradient id="SVGID_00000057839909032070160850000000261718054038917786_" gradientUnits="userSpaceOnUse" x1="17.8551" y1="47.8504" x2="28.6078" y2="38.752">
			<stop  offset="0" style="stop-color:#DD532D"/>
			<stop  offset="1" style="stop-color:#FEC474"/>
		</linearGradient>
		<path style="fill:url(#SVGID_00000057839909032070160850000000261718054038917786_);" d="M18.95,45.25v0.26
			c0,0.89,0.46,1.67,1.16,2.11c0.32-0.27,0.91-0.77,0.91-0.77L18.95,45.25z"/>
		
			<linearGradient id="SVGID_00000054265020430693605210000017648562849133732795_" gradientUnits="userSpaceOnUse" x1="19.2178" y1="49.4609" x2="29.9705" y2="40.3625">
			<stop  offset="0" style="stop-color:#DD532D"/>
			<stop  offset="1" style="stop-color:#FEC474"/>
		</linearGradient>
		<path style="fill:url(#SVGID_00000054265020430693605210000017648562849133732795_);" d="M21.35,47.17l-0.78,0.67
			c0.27,0.1,0.56,0.16,0.87,0.16h0.08l-0.05-0.7L21.35,47.17z"/>
		
			<linearGradient id="SVGID_00000156563572898816607650000001849367661001641627_" gradientUnits="userSpaceOnUse" x1="17.8563" y1="47.8518" x2="28.6089" y2="38.7534">
			<stop  offset="0" style="stop-color:#DD532D"/>
			<stop  offset="1" style="stop-color:#FEC474"/>
		</linearGradient>
		<polygon style="fill:url(#SVGID_00000156563572898816607650000001849367661001641627_);" points="21.73,42.91 21.87,46.12 
			23.61,44.59 		"/>
		
			<linearGradient id="SVGID_00000026851701334740601860000013346910209073291662_" gradientUnits="userSpaceOnUse" x1="15.9025" y1="45.5428" x2="26.6551" y2="36.4444">
			<stop  offset="0" style="stop-color:#DD532D"/>
			<stop  offset="1" style="stop-color:#FEC474"/>
		</linearGradient>
		<polygon style="fill:url(#SVGID_00000026851701334740601860000013346910209073291662_);" points="23.58,40.84 21.49,39.15 
			21.35,39.15 21.61,42.09 21.8,42.28 		"/>
		
			<linearGradient id="SVGID_00000153688254909909723100000014764442874327810453_" gradientUnits="userSpaceOnUse" x1="16.1036" y1="45.7804" x2="26.8562" y2="36.682">
			<stop  offset="0" style="stop-color:#DD532D"/>
			<stop  offset="1" style="stop-color:#FEC474"/>
		</linearGradient>
		<polygon style="fill:url(#SVGID_00000153688254909909723100000014764442874327810453_);" points="23.94,40.57 23.94,40.57 
			23.94,40.57 23.94,40.57 23.94,40.57 23.95,40.57 23.95,40.57 23.95,40.57 23.95,40.57 23.95,40.57 25.68,39.15 23.95,39.15 
			23.94,39.15 22.21,39.15 23.94,40.57 		"/>
		
			<linearGradient id="SVGID_00000127030154385758723180000010339864850305538964_" gradientUnits="userSpaceOnUse" x1="17.9291" y1="47.9378" x2="28.6817" y2="38.8395">
			<stop  offset="0" style="stop-color:#DD532D"/>
			<stop  offset="1" style="stop-color:#FEC474"/>
		</linearGradient>
		<polygon style="fill:url(#SVGID_00000127030154385758723180000010339864850305538964_);" points="27.01,39.15 26.84,41.51 
			29.17,39.15 		"/>
		
			<linearGradient id="SVGID_00000164514723057677370550000003084241579780363159_" gradientUnits="userSpaceOnUse" x1="19.7365" y1="50.0738" x2="30.4891" y2="40.9755">
			<stop  offset="0" style="stop-color:#DD532D"/>
			<stop  offset="1" style="stop-color:#FEC474"/>
		</linearGradient>
		<polygon style="fill:url(#SVGID_00000164514723057677370550000003084241579780363159_);" points="26.79,42.24 26.74,42.86 
			28.94,44.63 28.96,43.61 29.39,39.55 		"/>
		
			<linearGradient id="SVGID_00000167391715657397080090000013904274927450305928_" gradientUnits="userSpaceOnUse" x1="20.1383" y1="50.5487" x2="30.8909" y2="41.4503">
			<stop  offset="0" style="stop-color:#DD532D"/>
			<stop  offset="1" style="stop-color:#FEC474"/>
		</linearGradient>
		<polygon style="fill:url(#SVGID_00000167391715657397080090000013904274927450305928_);" points="28.58,44.96 26.7,43.44 
			26.48,46.56 		"/>
		
			<linearGradient id="SVGID_00000026145724892773774100000004592655992919145627_" gradientUnits="userSpaceOnUse" x1="21.5105" y1="52.1704" x2="32.2631" y2="43.072">
			<stop  offset="0" style="stop-color:#DD532D"/>
			<stop  offset="1" style="stop-color:#FEC474"/>
		</linearGradient>
		<path style="fill:url(#SVGID_00000026145724892773774100000004592655992919145627_);" d="M27.78,47.62
			c0.7-0.44,1.16-1.22,1.16-2.11v-0.26l-2.07,1.6C26.87,46.85,27.46,47.35,27.78,47.62z"/>
		
			<linearGradient id="SVGID_00000047032120904330753720000008644096433650720437_" gradientUnits="userSpaceOnUse" x1="21.4732" y1="52.1263" x2="32.2259" y2="43.028">
			<stop  offset="0" style="stop-color:#DD532D"/>
			<stop  offset="1" style="stop-color:#FEC474"/>
		</linearGradient>
		<path style="fill:url(#SVGID_00000047032120904330753720000008644096433650720437_);" d="M26.42,47.3L26.37,48h0.08
			c0.31,0,0.6-0.06,0.87-0.16l-0.78-0.67L26.42,47.3z"/>
		
			<linearGradient id="SVGID_00000003068870946093861160000003538199360230108550_" gradientUnits="userSpaceOnUse" x1="19.6474" y1="49.9685" x2="30.4" y2="40.8702">
			<stop  offset="0" style="stop-color:#DD532D"/>
			<stop  offset="1" style="stop-color:#FEC474"/>
		</linearGradient>
		<polygon style="fill:url(#SVGID_00000003068870946093861160000003538199360230108550_);" points="26.02,46.12 26.16,42.91 
			24.28,44.59 		"/>
		
			<linearGradient id="SVGID_00000054967589919443122810000006748456948502061756_" gradientUnits="userSpaceOnUse" x1="17.8189" y1="47.8076" x2="28.5715" y2="38.7092">
			<stop  offset="0" style="stop-color:#DD532D"/>
			<stop  offset="1" style="stop-color:#FEC474"/>
		</linearGradient>
		<polygon style="fill:url(#SVGID_00000054967589919443122810000006748456948502061756_);" points="26.4,39.15 24.31,40.84 
			26.09,42.28 26.28,42.09 26.54,39.15 		"/>
		
			<linearGradient id="SVGID_00000060016363348431036310000008164721704571198889_" gradientUnits="userSpaceOnUse" x1="19.9043" y1="50.2722" x2="30.657" y2="41.1738">
			<stop  offset="0" style="stop-color:#DD532D"/>
			<stop  offset="1" style="stop-color:#FEC474"/>
		</linearGradient>
		<polygon style="fill:url(#SVGID_00000060016363348431036310000008164721704571198889_);" points="23.95,44.92 23.95,44.92 
			23.95,44.92 23.94,44.92 23.94,44.92 23.94,44.92 23.94,44.92 23.94,44.92 21.88,46.72 21.88,46.93 23.01,48 23.94,48 23.95,48 
			24.88,48 26.01,46.93 26.01,46.72 23.95,44.92 		"/>
		
			<linearGradient id="SVGID_00000171687394513941252930000018298117719868453307_" gradientUnits="userSpaceOnUse" x1="17.8443" y1="47.8376" x2="28.5969" y2="38.7392">
			<stop  offset="0" style="stop-color:#DD532D"/>
			<stop  offset="1" style="stop-color:#FEC474"/>
		</linearGradient>
		<polygon style="fill:url(#SVGID_00000171687394513941252930000018298117719868453307_);" points="23.95,44.27 23.95,44.27 
			23.95,44.27 25.76,42.61 23.95,41.18 23.95,41.18 23.95,41.18 23.95,41.18 23.95,41.18 23.94,41.18 23.94,41.18 23.94,41.18 
			23.94,41.18 23.94,41.18 23.94,41.18 22.13,42.61 23.94,44.27 23.94,44.27 23.94,44.27 23.94,44.27 23.94,44.27 23.94,44.27 
			23.95,44.27 23.95,44.27 		"/>
	</g>
	<path class="st29" d="M28.4,30.49c0,0.33-0.24,0.62-0.58,0.68l-7.37,1.19c-0.37,0.06-0.73-0.19-0.79-0.57
		c-0.06-0.37,0.19-0.73,0.57-0.79l7.37-1.19c0.37-0.06,0.73,0.19,0.79,0.57C28.39,30.41,28.4,30.45,28.4,30.49z"/>
	<path class="st29" d="M21.58,34.37c0.35,1.02,1.31,1.75,2.45,1.75c1.13,0,2.1-0.73,2.45-1.75H21.58z"/>
	<polygon points="24.17,38.95 24.17,38.96 24.02,38.95 	"/>
	<polygon points="24.02,38.95 23.87,38.96 23.87,38.95 	"/>
	<g>
		<g>
			
				<rect x="20.64" y="33.96" transform="matrix(0.9959 -0.091 0.091 0.9959 -3.1945 2.0483)" class="st30" width="0.46" height="4.2"/>
		</g>
	</g>
	<g>
		<g>
			<polygon class="st30" points="27.51,33.92 27.14,38.17 26.68,38.13 27.06,33.99 			"/>
		</g>
	</g>
	<g>
		<g>
			<g>
				
					<rect x="15.75" y="17.46" transform="matrix(0.9707 -0.2402 0.2402 0.9707 -6.2517 4.6577)" class="st29" width="0.46" height="21.01"/>
			</g>
		</g>
	</g>
	<g>
		<g>
			
				<rect x="21.01" y="27.09" transform="matrix(0.2402 -0.9707 0.9707 0.2402 -2.0634 52.0014)" class="st11" width="22.36" height="0.46"/>
		</g>
	</g>
	<path class="st29" d="M30.32,38.54c0,0.17-0.07,0.32-0.18,0.43c-0.11,0.11-0.26,0.18-0.43,0.18H18.21c-0.33,0-0.6-0.27-0.6-0.6
		c0-0.17,0.07-0.32,0.18-0.43c0.11-0.11,0.26-0.18,0.43-0.18h11.51C30.05,37.94,30.32,38.21,30.32,38.54z"/>
	<path class="st29" d="M28.4,32.46c0,0.33-0.24,0.62-0.58,0.68l-7.37,1.19c-0.37,0.06-0.73-0.19-0.79-0.57
		c-0.06-0.37,0.19-0.73,0.57-0.79l7.37-1.19c0.37-0.06,0.73,0.19,0.79,0.57C28.39,32.39,28.4,32.42,28.4,32.46z"/>
	<path d="M15.1,20.62c-0.04-0.05-0.09-0.09-0.13-0.14C15.01,20.53,15.06,20.58,15.1,20.62z"/>
	<path class="st31" d="M26.72,28.09c-0.11,0.27-0.27,0.56-0.5,0.83h-0.13c0.01-0.01,0.02-0.03,0.02-0.04
		c0.04-0.17,0.04-0.34,0.05-0.51c0.01-0.09,0.02-0.18,0.03-0.27H26.72z"/>
	
		<linearGradient id="SVGID_00000013170556856985773510000007739124880046226053_" gradientUnits="userSpaceOnUse" x1="26.2647" y1="35.0823" x2="31.6092" y2="7.766">
		<stop  offset="0" style="stop-color:#DD532D"/>
		<stop  offset="1" style="stop-color:#FEC474"/>
	</linearGradient>
	<path style="fill:url(#SVGID_00000013170556856985773510000007739124880046226053_);" d="M36.22,12.91
		c-0.08,1.1-0.33,2.18-0.75,3.21c-0.05,0.11-0.09,0.23-0.14,0.34c0,0,0,0,0,0c0,0,0,0,0,0.01c0,0,0,0,0,0.01
		c-0.06,0.14-0.5,1.07-1.22,2.09c-0.23,0.33-0.5,0.67-0.79,1c0,0-0.01,0.01-0.01,0.01c-0.05,0.05-0.09,0.1-0.14,0.15
		c-0.53,0.53-1.09,1.03-1.64,1.54c-0.45,0.42-0.91,0.84-1.36,1.27c-0.23,0.22-0.44,0.47-0.6,0.75c-0.32,0.54-0.55,1.11-0.61,1.74
		c-0.04,0.39-0.04,0.79-0.06,1.18c-0.03,0.44-0.03,0.89-0.09,1.32c-0.06,0.41-0.19,0.79-0.44,1.09c0,0,0,0.01-0.01,0.01
		c-0.18,0.21-0.41,0.39-0.67,0.5c-0.26,0.11-0.55,0.17-0.83,0.21c-0.36,0.06-0.72,0.11-1.07,0.17c0,0,0,0-0.01,0l-0.35,0.06
		c0.33-0.18,0.59-0.41,0.8-0.65c0.05-0.06,0.09-0.12,0.14-0.18c0.03-0.03,0.05-0.07,0.07-0.11c0,0,0-0.01,0.01-0.01
		c0.01-0.02,0.02-0.03,0.03-0.05c0.02-0.04,0.05-0.08,0.07-0.12c0.01-0.02,0.02-0.04,0.03-0.06c0.01-0.02,0.02-0.03,0.02-0.05
		c0.01-0.02,0.02-0.05,0.03-0.07c0.01-0.03,0.02-0.06,0.04-0.08c0,0,0-0.01,0.01-0.01c0.01-0.02,0.02-0.04,0.03-0.06
		c0-0.01,0.01-0.01,0.01-0.02c0,0,0,0,0,0h0c0.02-0.04,0.03-0.08,0.05-0.13c0.21-0.62,0.25-1.29,0.27-1.96
		c0.01-0.23,0.02-0.47,0.02-0.7c0-0.75,0.1-1.49,0.31-2.22c0.23-0.78,0.62-1.48,1.19-2.08c0.54-0.56,1.13-1.05,1.74-1.52
		c0.85-0.66,1.65-1.36,2.33-2.2c0.85-1.06,1.45-2.24,1.78-3.56c0.25-1.02,0.31-2.07,0.2-3.12c-0.13-1.19-0.44-2.32-1-3.38
		c-0.2-0.39-0.42-0.78-0.66-1.15c-0.39-0.6-0.87-1.14-1.38-1.64c-0.31-0.29-0.66-0.54-0.99-0.81c-0.07-0.05-0.14-0.11-0.21-0.16
		C29.52,2.86,28.6,2.4,27.61,2.1c-0.19-0.06-0.37-0.11-0.56-0.15l0,0c0,0,4.33,0.25,6.95,3.21c0,0,0,0,0,0v0h0
		c0.25,0.36,0.49,0.73,0.71,1.11c0.62,1.09,1.07,2.25,1.31,3.49C36.22,10.81,36.3,11.86,36.22,12.91z"/>
	<polygon points="34,5.17 34,5.17 34,5.17 	"/>
	
		<linearGradient id="SVGID_00000150103780580259507470000017782647047081757849_" gradientUnits="userSpaceOnUse" x1="22.8724" y1="34.766" x2="22.8724" y2="0.286">
		<stop  offset="0.3691" style="stop-color:#11555C"/>
		<stop  offset="1" style="stop-color:#37C3B5"/>
	</linearGradient>
	<path style="fill:url(#SVGID_00000150103780580259507470000017782647047081757849_);" d="M34,5.17c-2.62-2.96-6.95-3.21-6.95-3.21
		c-0.66-0.14-1.33-0.2-2.01-0.24c-0.89-0.04-1.77,0.02-2.65,0.17c-1.49,0.26-2.86,0.83-4.12,1.64c-0.89,0.57-1.65,1.28-2.33,2.09
		c-0.57,0.68-1.07,1.42-1.45,2.22c-0.88,1.82-1.2,3.74-0.97,5.75c0.18,1.55,0.71,2.96,1.55,4.27c0.63,1,1.46,1.82,2.3,2.62
		c0.39,0.37,0.78,0.75,1.13,1.16c0.49,0.57,0.89,1.2,1.18,1.9c0.37,0.88,0.52,1.81,0.57,2.75c0.02,0.34,0.05,0.67,0.1,1.01
		c0.06,0.43,0.31,0.72,0.75,0.77c0.05,0.01,0.09,0.01,0.14,0.02h5.47l0,0c0,0.01-0.01,0.01-0.01,0.02
		c-0.01,0.02-0.02,0.04-0.03,0.06c0,0,0,0.01-0.01,0.01c-0.01,0.03-0.02,0.06-0.04,0.08c-0.01,0.02-0.02,0.05-0.03,0.07
		c-0.01,0.02-0.02,0.03-0.02,0.05c-0.01,0.02-0.02,0.04-0.03,0.06c-0.02,0.04-0.04,0.08-0.07,0.12c-0.01,0.02-0.02,0.03-0.03,0.05
		c0,0-0.01,0.01-0.01,0.01c-0.02,0.04-0.05,0.07-0.07,0.11c-0.04,0.06-0.09,0.12-0.14,0.18c-0.2,0.24-0.46,0.47-0.8,0.65l-4.97,0.81
		c-0.37,0.06-0.73-0.19-0.79-0.57c-0.06-0.36,0.18-0.7,0.53-0.78l-0.23-0.2l0,0c-0.47-0.41-0.7-0.95-0.75-1.58
		c-0.03-0.38-0.05-0.77-0.08-1.16c-0.08-1.14-0.52-2.12-1.33-2.92c-0.5-0.5-1.03-0.97-1.56-1.44c-0.4-0.35-0.79-0.71-1.15-1.1
		c-0.04-0.05-0.09-0.09-0.13-0.14c0,0,0,0,0,0c-0.23-0.25-0.44-0.51-0.65-0.78c-0.02-0.03-0.04-0.05-0.06-0.07
		c-0.7-0.96-1.34-2.13-1.38-2.2c0,0,0,0,0,0c-0.55-1.16-0.91-2.39-1.04-3.67c-0.05-0.52-0.09-1.04-0.08-1.56
		c0.02-1.33,0.26-2.62,0.7-3.88c0.6-1.68,1.53-3.16,2.75-4.44c1.33-1.39,2.9-2.42,4.71-3.08c1.14-0.41,2.31-0.65,3.51-0.76
		c0.71-0.06,1.41-0.01,2.12,0.08c1.11,0.15,2.2,0.42,3.24,0.85c1.21,0.5,2.31,1.18,3.29,2.04C32.8,3.65,33.44,4.38,34,5.17z"/>
	<g>
		<path class="st11" d="M25.92,28.09v-2.44c0-0.2-0.11-0.4-0.28-0.5l-0.29-0.18c-0.03-0.02-0.06-0.06-0.06-0.1v-0.8
			c0-0.59-0.48-1.07-1.07-1.07c-0.59,0-1.07,0.48-1.07,1.07v0.8c0,0.04-0.02,0.08-0.06,0.1l-0.29,0.18c-0.17,0.11-0.28,0.3-0.28,0.5
			v2.44h-0.34c0,0,0.21,0.82,4.36,0.36c0.06-0.12,0.12-0.24,0.17-0.36H25.92z M22.97,28.09v-2.44c0-0.04,0.02-0.09,0.06-0.11
			l0.29-0.18c0.17-0.1,0.28-0.29,0.28-0.49v-0.8c0-0.34,0.27-0.61,0.61-0.61c0.34,0,0.61,0.27,0.61,0.61v0.8
			c0,0.2,0.11,0.39,0.28,0.49l0.29,0.18c0.04,0.02,0.06,0.06,0.06,0.11v2.44H22.97z"/>
	</g>
</g>
</svg>
