<?xml version="1.0" encoding="utf-8"?>
<!-- Generator: Adobe Illustrator 27.8.1, SVG Export Plug-In . SVG Version: 6.00 Build 0)  -->
<svg version="1.1" id="Слой_1" xmlns="http://www.w3.org/2000/svg" xmlns:xlink="http://www.w3.org/1999/xlink" x="0px" y="0px"
	 viewBox="0 0 96 96" style="enable-background:new 0 0 96 96;" xml:space="preserve">
<style type="text/css">
	.st0{fill:#FFFFFF;}
	.st1{fill:url(#SVGID_1_);}
	.st2{fill:url(#SVGID_00000047041392362727477060000002989135113786581899_);}
	.st3{fill:url(#SVGID_00000088111096430486690760000003845787934396352640_);}
	.st4{fill:url(#SVGID_00000098908602770115781570000002791044529498032795_);}
	.st5{fill:url(#SVGID_00000002370095333879192710000004500872387005527454_);}
	.st6{fill:url(#SVGID_00000155124669903917266350000010471765622946738098_);}
	.st7{fill:url(#SVGID_00000091014256503164984320000010395958300449798541_);}
	.st8{fill:url(#SVGID_00000108286902103004368320000006506657629093958568_);}
	.st9{fill:url(#SVGID_00000158005901284299891520000000236000201734799785_);}
	.st10{fill:url(#SVGID_00000143609063306131161760000003273535280022389420_);}
	.st11{fill:#624330;}
	.st12{fill:url(#SVGID_00000101061930840768885170000012421343338521431440_);}
	.st13{fill:url(#SVGID_00000105384612825132471750000006840789165402901907_);}
	.st14{fill:url(#SVGID_00000083802756639997068150000015490864844682458498_);}
	.st15{fill:url(#SVGID_00000114759513844790429700000011833144335631515819_);}
	.st16{fill:url(#SVGID_00000079459830221135217800000002454461030488369561_);}
	.st17{fill:url(#SVGID_00000070830515574017733970000018420858791829477777_);}
	.st18{fill:url(#SVGID_00000103964400257092051810000004193765805656634276_);}
	.st19{fill:url(#SVGID_00000160903212676710074860000007540581623488766650_);}
	.st20{fill:url(#SVGID_00000106858018578059250530000018377353956294191275_);}
	.st21{fill:url(#SVGID_00000027583454859898694740000008969545917994739842_);}
	.st22{fill:url(#SVGID_00000067235422499807452420000008588438473170342841_);}
	.st23{fill:url(#SVGID_00000090296162580219404830000000893637960935402388_);}
	.st24{fill:url(#SVGID_00000138575500308347272810000006649992851169134241_);}
	.st25{fill:url(#SVGID_00000041982742233871969880000010154456694073465787_);}
	.st26{fill:url(#SVGID_00000094591515411133086010000001679100065116585888_);}
	.st27{fill:url(#SVGID_00000033334888845184797230000003697530293809910691_);}
	.st28{fill:url(#SVGID_00000018928809616461349530000006046540072296297644_);}
	.st29{fill:#16505C;}
	.st30{fill:#614630;}
	.st31{opacity:0.5;}
	.st32{fill:url(#SVGID_00000036223177089211954290000011430018445359208594_);}
	.st33{fill:url(#SVGID_00000168815270120344079640000001109708694207016382_);}
	.st34{fill:url(#SVGID_00000089573646057956607220000013025000368574417839_);}
	.st35{fill:url(#SVGID_00000109020409964634449370000008238809302061904043_);}
	.st36{fill:url(#SVGID_00000152969856293260553000000010742008414004134329_);}
	.st37{fill:url(#SVGID_00000171000784717251175040000007590100964688555183_);}
	.st38{fill:url(#SVGID_00000075129793039905330920000014047838556319269522_);}
	.st39{fill:url(#SVGID_00000179630074795172745170000017456960035764115595_);}
	.st40{fill:url(#SVGID_00000103254689212929635570000010184836793660474795_);}
	.st41{fill:url(#SVGID_00000018929714005459415110000010434186543570456500_);}
	.st42{fill:url(#SVGID_00000091720198237337902250000013883697743147850897_);}
	.st43{fill:url(#SVGID_00000074408442260392289760000013853693371831389852_);}
	.st44{fill:url(#SVGID_00000049221260091193043710000009341202443802310582_);}
	.st45{fill:url(#SVGID_00000154401703931228535490000016804983860527602059_);}
	.st46{fill:url(#SVGID_00000145763447372932928170000003100949838573269947_);}
	.st47{fill:url(#SVGID_00000119807906656109495620000009956644031796066950_);}
	.st48{fill:url(#SVGID_00000064342955380435587070000017410582413502269835_);}
	.st49{fill:url(#SVGID_00000132796558425990028430000008048070146570439305_);}
	.st50{fill:url(#SVGID_00000151520525622286507740000000466667538297523133_);}
	.st51{fill:url(#SVGID_00000145774885575733595670000009037589914922545581_);}
	.st52{fill:url(#SVGID_00000041998315719170304430000009773327890703054010_);}
	.st53{fill:url(#SVGID_00000142161220618244966450000010168630228793457595_);}
	.st54{fill:url(#SVGID_00000080174429691895017480000011031527988964884378_);}
	.st55{fill:url(#SVGID_00000042720762176956795670000004551369330244086943_);}
	.st56{fill:url(#SVGID_00000047761090511761397440000013046014689378750651_);}
	.st57{fill:url(#SVGID_00000005252679686804829360000011879605341535951241_);}
	.st58{fill:url(#SVGID_00000128486981993175412560000000980772260096094882_);}
	.st59{fill:url(#SVGID_00000018929285424359923670000013129838245102038934_);}
	.st60{fill:url(#SVGID_00000103235173302567532070000006740950651104008615_);}
	.st61{fill:url(#SVGID_00000057860518550807536680000016070961209575613582_);}
	.st62{fill:url(#SVGID_00000067915641066081388470000001447364883925771141_);}
	.st63{fill:url(#SVGID_00000057828304527632319640000006781146977641933213_);}
	.st64{fill:url(#SVGID_00000111160055000484745660000000599633699237143686_);}
	.st65{fill:url(#SVGID_00000134941642516797100310000003367453359313104802_);}
	.st66{fill:url(#SVGID_00000070097089166117727770000016533808502758886791_);}
	.st67{fill:url(#SVGID_00000067225101624041413790000006384703856428572817_);}
	.st68{fill:url(#SVGID_00000040554106520103164450000003632331852068689309_);}
	.st69{fill:url(#SVGID_00000170238351683289525490000006682099450999686026_);}
	.st70{fill:url(#SVGID_00000082358217952261362830000002890956345743020939_);}
	.st71{fill:url(#SVGID_00000025438212098366409900000004034853510165442182_);}
	.st72{fill:url(#SVGID_00000114036252183163936500000015295855880810186402_);}
	.st73{fill:url(#SVGID_00000111906501736172603830000006107292066693068439_);}
	.st74{fill:url(#SVGID_00000168812845922227364170000018413070528503446662_);}
	.st75{fill:url(#SVGID_00000060711054499839904900000004001019608978202264_);}
	.st76{fill:url(#SVGID_00000176000712593984797600000003939754949276405690_);}
	.st77{fill:url(#SVGID_00000080183029401023671100000005031987847177281423_);}
	.st78{fill:url(#SVGID_00000086669210258476511040000018430775559518003638_);}
	.st79{fill:url(#SVGID_00000003077804305322816210000001598275828070352792_);}
	.st80{fill:url(#SVGID_00000087411462150644802040000001336969287425622167_);}
	.st81{fill:url(#SVGID_00000075868131883753761680000010197601264511870123_);}
	.st82{fill:url(#SVGID_00000066513714139329721850000003476268080033710221_);}
	.st83{fill:url(#SVGID_00000102542747766535514040000002693219880789258651_);}
	.st84{fill:url(#SVGID_00000106133009968556698150000000231378980940252316_);}
	.st85{fill:url(#SVGID_00000085965988333202477830000002032296370736745613_);}
	.st86{fill:url(#SVGID_00000080187705518252332910000004344597104007886241_);}
	.st87{fill:url(#SVGID_00000057118555006390188400000002170416663928556950_);}
	.st88{fill:url(#SVGID_00000150081244601919755430000015952972633504456091_);}
	.st89{fill:url(#SVGID_00000144316688861405838810000009982077883616841860_);}
	.st90{fill:url(#SVGID_00000088094280876160151490000005394076304299282607_);}
	.st91{fill:url(#SVGID_00000133501759453691198140000014007291565288087936_);}
	.st92{fill:url(#SVGID_00000140700081155405145460000011995748615131044744_);}
	.st93{fill:url(#SVGID_00000039093838060028389080000010281605545543370643_);}
	.st94{fill:url(#SVGID_00000056405866629893426230000006183076934073184444_);}
	.st95{fill:url(#SVGID_00000014599846833255155750000016978914587382873216_);}
	.st96{fill:url(#SVGID_00000141455815628058397190000015746584956114535330_);}
	.st97{fill:url(#SVGID_00000078729823351061928630000007071312597680091012_);}
	.st98{fill:url(#SVGID_00000073703133945981153960000009931306902919868048_);}
	.st99{fill:url(#SVGID_00000155860340158841255970000010955168566220254386_);}
	.st100{fill:url(#SVGID_00000099634389423084738900000001903260843731490183_);}
	.st101{fill:url(#SVGID_00000109731025477788171190000004833845225249631117_);}
	.st102{fill:url(#SVGID_00000086689881137217806510000008313553451408152979_);}
	.st103{fill:url(#SVGID_00000076605388445887852980000009433508437104843700_);}
	.st104{fill:url(#SVGID_00000112609318185419061170000002767598412842693546_);}
	.st105{fill:url(#SVGID_00000016798126790893401050000012972643217668486793_);}
	.st106{fill:url(#SVGID_00000070083983330986715980000008448699013445801864_);}
	.st107{fill:url(#SVGID_00000134218448032204318110000012687121220730031004_);}
	.st108{fill:url(#SVGID_00000119115752900429317420000001995349964836099989_);}
	.st109{fill:url(#SVGID_00000118395081276732591850000007348910780486128521_);}
	.st110{fill:url(#SVGID_00000118357414983729167820000009340530968642141867_);}
	.st111{fill:url(#SVGID_00000009581023642697026870000012648166908243997886_);}
	.st112{fill:url(#SVGID_00000114044527806788005380000005593397864211279493_);}
	.st113{fill:url(#SVGID_00000054947971761758668090000013791291512531737743_);}
	.st114{fill:url(#SVGID_00000068647607189726140200000013382103566858209681_);}
	.st115{fill:url(#SVGID_00000131348006972766700740000000372738599565720222_);}
	.st116{fill:url(#SVGID_00000176725158282608688450000009962781824828344488_);}
	.st117{fill:url(#SVGID_00000037676700525007631960000007097903199674262707_);}
	.st118{fill:url(#SVGID_00000027595866291653184310000003510855797162079634_);}
	.st119{fill:url(#SVGID_00000026872553559218174720000012733180606651867019_);}
	.st120{fill:url(#SVGID_00000005964768567988149810000015267080086429550740_);}
	.st121{fill:url(#SVGID_00000046324840865515765990000018329431531104778151_);}
	.st122{fill:url(#SVGID_00000178912997567807786830000005800526164736831147_);}
	.st123{fill:url(#SVGID_00000159431628977653552840000004505687320708984486_);}
	.st124{fill:url(#SVGID_00000149344118844689715360000012917277351214691724_);}
	.st125{fill:url(#SVGID_00000116927047173245947540000012177237769362644885_);}
	.st126{fill:url(#SVGID_00000162309970735749050250000006788064609070677658_);}
	.st127{fill:url(#SVGID_00000038382935005840765200000009570334805518893460_);}
	.st128{fill:url(#SVGID_00000071543029290706654930000000540297666458629802_);}
	.st129{fill:url(#SVGID_00000119799687756726511450000000074493443287575705_);}
	.st130{fill:url(#SVGID_00000142134117381106846760000010883297355321762205_);}
	.st131{fill:url(#SVGID_00000008122180803477167270000014981573573535862688_);}
	.st132{fill:url(#SVGID_00000111169889966122977620000012782373960526001285_);}
	.st133{fill:url(#SVGID_00000015351243116516831510000012856143189825698202_);}
	.st134{fill:url(#SVGID_00000004507381648154229780000007169356031328987538_);}
	.st135{fill:url(#SVGID_00000100351438806665288530000008595720572762047623_);}
	.st136{fill:url(#SVGID_00000101102374812422496470000016210352112238954925_);}
	.st137{fill:url(#SVGID_00000132794256693748286220000006997659416721454231_);}
	.st138{fill:url(#SVGID_00000098918422606058869540000015035131728784719509_);}
	.st139{fill:url(#SVGID_00000111160123488374671700000009836351062812942983_);}
	.st140{fill:url(#SVGID_00000002355598460860325610000007462382105305138817_);}
	.st141{fill:url(#SVGID_00000089569777297794389550000001501018503342520198_);}
	.st142{fill:url(#SVGID_00000075869689422928010910000018023333081923454635_);}
	.st143{fill:url(#SVGID_00000095329767691076657120000006772382645545928077_);}
	.st144{fill:url(#SVGID_00000052816418286184497260000010965411632748667545_);}
	.st145{fill:url(#SVGID_00000090263889156124066620000018263493721117890704_);}
	.st146{fill:url(#SVGID_00000060717333429670415930000000471527970160123047_);}
	.st147{fill:url(#SVGID_00000039835074472186898750000004899693793510805380_);}
	.st148{fill:url(#SVGID_00000115498658225288119930000000634556023153973401_);}
	.st149{fill:url(#SVGID_00000173846008130810015150000006659387151784587966_);}
</style>
<g>
	<path class="st0" d="M70.97,27.46c-0.65,2.63-1.85,5-3.55,7.12c-1.35,1.68-2.96,3.08-4.65,4.4c-1.22,0.95-2.41,1.93-3.49,3.05
		c-1.14,1.19-1.92,2.58-2.37,4.15c-0.42,1.44-0.61,2.92-0.62,4.43c0,0.47-0.02,0.94-0.04,1.41c-0.06,1.33-0.13,2.68-0.55,3.92
		c-0.03,0.08-0.06,0.17-0.09,0.25H44.67c-0.09-0.01-0.18-0.02-0.28-0.03c-0.87-0.12-1.37-0.7-1.5-1.55
		c-0.1-0.67-0.15-1.34-0.19-2.02c-0.11-1.89-0.42-3.74-1.15-5.5c-0.58-1.4-1.38-2.66-2.36-3.8c-0.7-0.81-1.48-1.57-2.26-2.31
		c-1.69-1.61-3.34-3.25-4.6-5.25c-1.67-2.63-2.74-5.45-3.09-8.55c-0.46-4.03,0.18-7.86,1.93-11.51c0.77-1.6,1.76-3.07,2.9-4.43
		c1.35-1.62,2.88-3.04,4.66-4.18c2.53-1.63,5.27-2.76,8.25-3.28c1.75-0.3,3.52-0.43,5.29-0.34c1.35,0.07,2.7,0.19,4.02,0.48l0,0
		c0.38,0.08,0.76,0.18,1.13,0.29c1.97,0.6,3.8,1.52,5.46,2.75c0.14,0.1,0.28,0.21,0.41,0.31c0.67,0.53,1.37,1.03,1.98,1.61
		c1.04,0.99,1.99,2.07,2.77,3.27c0.48,0.74,0.91,1.52,1.32,2.3c1.11,2.12,1.74,4.39,2,6.77C71.59,23.33,71.48,25.41,70.97,27.46z"/>
	<g>
		<linearGradient id="SVGID_1_" gradientUnits="userSpaceOnUse" x1="40.9615" y1="42.634" x2="40.9615" y2="19.1406">
			<stop  offset="0.3691" style="stop-color:#11555C"/>
			<stop  offset="1" style="stop-color:#37C3B5"/>
		</linearGradient>
		<path class="st1" d="M50.68,30.36c-0.03-0.51-0.01-1.02-0.04-1.52c-0.01-0.2-0.06-0.41-0.11-0.61c-0.09-0.32-0.29-0.51-0.64-0.54
			c-0.38-0.03-0.76-0.09-1.14-0.11c-0.26-0.02-0.44-0.11-0.57-0.36c-0.19-0.38-0.38-0.77-0.61-1.13c-0.22-0.34-0.15-0.6,0.05-0.91
			c0.22-0.33,0.37-0.7,0.55-1.05c0.17-0.33,0.1-0.63-0.18-0.85c-0.55-0.45-1.1-0.9-1.68-1.32c-0.36-0.25-0.46-0.22-0.8,0.06
			c-0.33,0.27-0.66,0.54-0.99,0.82C44.37,22.98,44.21,23,44,22.93c-0.42-0.14-0.84-0.28-1.27-0.39c-0.3-0.07-0.46-0.22-0.53-0.52
			c-0.11-0.43-0.27-0.85-0.4-1.27c-0.08-0.28-0.26-0.41-0.55-0.44c-0.77-0.08-1.52,0.05-2.27,0.18c-0.25,0.04-0.38,0.22-0.41,0.46
			c-0.04,0.44-0.1,0.88-0.12,1.32c-0.01,0.33-0.15,0.53-0.51,0.65c-0.32,0.11-0.62,0.27-0.89,0.46c-0.32,0.22-0.57,0.24-0.87,0.05
			c-0.32-0.2-0.67-0.37-1-0.54c-0.06-0.03-0.11-0.05-0.18-0.08c-0.21-0.08-0.45-0.06-0.63,0.07c-0.03,0.02-0.06,0.05-0.09,0.08
			c-0.44,0.48-0.87,0.97-1.27,1.48c-0.38,0.5-0.36,0.67,0.03,1.18c0.22,0.29,0.45,0.57,0.68,0.86c0.17,0.2,0.2,0.41,0.09,0.66
			c-0.13,0.32-0.26,0.65-0.34,0.99c-0.09,0.4-0.33,0.58-0.71,0.66c-0.34,0.07-0.68,0.15-1.01,0.25c-0.32,0.1-0.53,0.32-0.51,0.66
			c0.02,0.7,0.06,1.39,0.12,2.09c0.03,0.35,0.23,0.59,0.59,0.64c0.42,0.07,0.84,0.15,1.27,0.19c0.26,0.03,0.43,0.13,0.54,0.38
			c0.17,0.38,0.36,0.74,0.57,1.1c0.12,0.2,0.09,0.36-0.03,0.55c-0.21,0.34-0.42,0.69-0.6,1.04c-0.19,0.36-0.1,0.8,0.2,1.07
			c0.41,0.37,0.85,0.71,1.29,1.05c0.5,0.39,0.59,0.4,1.13,0.02c0.31-0.22,0.6-0.47,0.9-0.71c0.22-0.18,0.42-0.23,0.74-0.04
			c0.27,0.16,0.57,0.25,0.88,0.3c0.43,0.07,0.61,0.26,0.68,0.62c0.07,0.36,0.18,0.71,0.29,1.05c0.11,0.35,0.34,0.57,0.74,0.55
			c0.68-0.03,1.36-0.05,2.03-0.11c0.33-0.03,0.6-0.28,0.66-0.6c0.06-0.33,0.12-0.67,0.1-1.01c-0.02-0.44,0.16-0.67,0.55-0.83
			c0.32-0.13,0.65-0.27,0.94-0.45c0.27-0.17,0.49-0.15,0.74,0.03c0.31,0.21,0.65,0.39,0.97,0.6c0.29,0.19,0.55,0.17,0.83-0.03
			c0.63-0.43,1.06-1.04,1.48-1.66c0.24-0.35,0.23-0.68-0.03-1c-0.21-0.26-0.41-0.52-0.64-0.76c-0.25-0.26-0.31-0.53-0.17-0.86
			c0.14-0.32,0.27-0.65,0.34-0.99c0.08-0.36,0.28-0.49,0.61-0.56c0.43-0.1,0.85-0.24,1.27-0.38C50.55,30.91,50.7,30.7,50.68,30.36z
			 M40.96,35.35c-2.98,0-5.39-2.41-5.39-5.39c0-2.98,2.41-5.39,5.39-5.39c2.98,0,5.39,2.41,5.39,5.39
			C46.35,32.93,43.94,35.35,40.96,35.35z"/>
		
			<linearGradient id="SVGID_00000089560510792082936690000011922957317949411466_" gradientUnits="userSpaceOnUse" x1="40.9615" y1="42.634" x2="40.9615" y2="19.1406">
			<stop  offset="0.3691" style="stop-color:#11555C"/>
			<stop  offset="1" style="stop-color:#37C3B5"/>
		</linearGradient>
		<path style="fill:url(#SVGID_00000089560510792082936690000011922957317949411466_);" d="M40.96,25.63
			c-2.39,0-4.32,1.94-4.32,4.32c0,2.39,1.94,4.32,4.32,4.32c2.39,0,4.32-1.94,4.32-4.32C45.29,27.57,43.35,25.63,40.96,25.63z
			 M40.96,33.18c-1.78,0-3.22-1.44-3.22-3.22c0-1.78,1.44-3.22,3.22-3.22c1.78,0,3.22,1.44,3.22,3.22
			C44.18,31.73,42.74,33.18,40.96,33.18z"/>
	</g>
	<g>
		<g>
			
				<linearGradient id="SVGID_00000001635099101988749300000000484565218070014348_" gradientUnits="userSpaceOnUse" x1="60.018" y1="10.2722" x2="60.018" y2="30.7975">
				<stop  offset="0" style="stop-color:#F8A074"/>
				<stop  offset="1" style="stop-color:#F56A4C"/>
			</linearGradient>
			<path style="fill:url(#SVGID_00000001635099101988749300000000484565218070014348_);" d="M70.64,22.7c0-0.56,0.03-1.11,0.03-1.67
				c0-0.22-0.05-0.45-0.1-0.67c-0.08-0.36-0.3-0.58-0.68-0.63c-0.41-0.05-0.82-0.13-1.24-0.18c-0.29-0.03-0.48-0.14-0.6-0.42
				c-0.19-0.43-0.38-0.86-0.62-1.26c-0.22-0.38-0.14-0.67,0.1-1c0.25-0.35,0.44-0.75,0.66-1.13c0.2-0.35,0.13-0.69-0.16-0.95
				c-0.58-0.52-1.17-1.04-1.79-1.52c-0.38-0.3-0.5-0.26-0.88,0.02c-0.38,0.28-0.75,0.57-1.12,0.86c-0.18,0.14-0.36,0.16-0.58,0.08
				c-0.45-0.18-0.91-0.35-1.38-0.48c-0.32-0.09-0.49-0.26-0.56-0.6c-0.1-0.48-0.25-0.94-0.38-1.41c-0.08-0.31-0.27-0.46-0.58-0.51
				c-0.84-0.13-1.67-0.02-2.49,0.09c-0.28,0.04-0.43,0.22-0.47,0.49c-0.07,0.48-0.15,0.96-0.19,1.45c-0.03,0.37-0.19,0.58-0.59,0.69
				c-0.35,0.1-0.69,0.26-1,0.46c-0.36,0.22-0.64,0.24-0.96,0.02c-0.34-0.24-0.71-0.43-1.08-0.64c-0.06-0.03-0.12-0.06-0.19-0.09
				c-0.23-0.1-0.49-0.08-0.7,0.05c-0.04,0.02-0.07,0.05-0.1,0.08c-0.5,0.51-1,1.02-1.46,1.57c-0.44,0.53-0.42,0.72-0.02,1.3
				c0.23,0.33,0.47,0.65,0.71,0.97c0.17,0.23,0.2,0.46,0.07,0.73c-0.16,0.35-0.32,0.7-0.42,1.07c-0.12,0.43-0.39,0.62-0.81,0.69
				c-0.38,0.06-0.75,0.13-1.12,0.23c-0.35,0.09-0.59,0.33-0.59,0.7c-0.01,0.76,0,1.53,0.03,2.29c0.01,0.39,0.22,0.65,0.62,0.73
				c0.46,0.09,0.92,0.2,1.38,0.27c0.28,0.04,0.46,0.16,0.57,0.44c0.17,0.42,0.36,0.83,0.57,1.23c0.12,0.23,0.08,0.4-0.06,0.6
				c-0.25,0.36-0.49,0.73-0.71,1.11c-0.22,0.39-0.15,0.87,0.17,1.18c0.44,0.42,0.9,0.82,1.36,1.21c0.53,0.45,0.63,0.46,1.24,0.08
				c0.35-0.23,0.68-0.48,1.01-0.74c0.25-0.19,0.47-0.23,0.82-0.01c0.29,0.19,0.62,0.3,0.95,0.37c0.46,0.09,0.65,0.32,0.72,0.72
				c0.06,0.39,0.16,0.78,0.27,1.17c0.11,0.38,0.35,0.64,0.79,0.64c0.74-0.01,1.49,0.01,2.23-0.03c0.37-0.02,0.67-0.27,0.75-0.63
				c0.08-0.36,0.16-0.73,0.16-1.1c0-0.48,0.21-0.73,0.64-0.88c0.36-0.12,0.72-0.27,1.05-0.45c0.3-0.17,0.54-0.14,0.81,0.06
				c0.33,0.25,0.7,0.46,1.04,0.7c0.31,0.22,0.59,0.21,0.91,0.01c0.71-0.44,1.21-1.09,1.7-1.75c0.28-0.38,0.28-0.73,0.01-1.1
				c-0.21-0.29-0.43-0.59-0.67-0.86c-0.26-0.3-0.32-0.59-0.14-0.95c0.16-0.35,0.33-0.7,0.42-1.07c0.1-0.39,0.33-0.52,0.69-0.59
				c0.48-0.09,0.94-0.23,1.41-0.36C70.48,23.3,70.65,23.07,70.64,22.7z M59.76,27.72c-3.26-0.14-5.8-2.89-5.66-6.16
				c0.14-3.27,2.89-5.8,6.16-5.66c3.27,0.14,5.8,2.89,5.66,6.16C65.78,25.32,63.03,27.86,59.76,27.72z"/>
			
				<linearGradient id="SVGID_00000064351211327351556360000013127132348490428072_" gradientUnits="userSpaceOnUse" x1="60.008" y1="10.2722" x2="60.008" y2="30.7975">
				<stop  offset="0" style="stop-color:#F8A074"/>
				<stop  offset="1" style="stop-color:#F56A4C"/>
			</linearGradient>
			<path style="fill:url(#SVGID_00000064351211327351556360000013127132348490428072_);" d="M60.21,17.07
				c-2.62-0.11-4.83,1.92-4.94,4.54c-0.11,2.62,1.92,4.83,4.54,4.94c2.62,0.11,4.83-1.92,4.94-4.54
				C64.86,19.39,62.83,17.18,60.21,17.07z M59.86,25.34c-1.95-0.08-3.47-1.73-3.38-3.68c0.08-1.95,1.73-3.47,3.68-3.38
				c1.95,0.08,3.47,1.73,3.38,3.68C63.46,23.91,61.81,25.42,59.86,25.34z"/>
		</g>
	</g>
	<g>
		
			<linearGradient id="SVGID_00000097479950225038747190000005579221637797324426_" gradientUnits="userSpaceOnUse" x1="54.6913" y1="44.0995" x2="54.6913" y2="31.5573">
			<stop  offset="0.3691" style="stop-color:#11555C"/>
			<stop  offset="1" style="stop-color:#37C3B5"/>
		</linearGradient>
		<path style="fill:url(#SVGID_00000097479950225038747190000005579221637797324426_);" d="M60.44,38.47
			c0.01-0.3,0.04-0.6,0.05-0.91c0-0.12-0.02-0.25-0.04-0.37c-0.04-0.19-0.15-0.32-0.36-0.35c-0.22-0.04-0.45-0.09-0.67-0.12
			c-0.16-0.02-0.26-0.09-0.32-0.24c-0.1-0.24-0.19-0.48-0.31-0.7c-0.11-0.21-0.06-0.36,0.07-0.54c0.14-0.18,0.25-0.4,0.38-0.6
			c0.12-0.19,0.09-0.37-0.07-0.52c-0.31-0.29-0.61-0.59-0.94-0.86c-0.2-0.17-0.26-0.15-0.48,0c-0.21,0.14-0.42,0.29-0.62,0.44
			c-0.1,0.07-0.2,0.08-0.32,0.03c-0.24-0.1-0.49-0.21-0.74-0.29c-0.17-0.06-0.26-0.15-0.29-0.34c-0.04-0.26-0.12-0.52-0.18-0.77
			c-0.04-0.17-0.14-0.26-0.31-0.29c-0.45-0.08-0.9-0.04-1.36,0c-0.15,0.02-0.24,0.11-0.26,0.26c-0.05,0.26-0.1,0.52-0.13,0.78
			c-0.02,0.2-0.11,0.31-0.33,0.36c-0.19,0.05-0.38,0.13-0.55,0.23c-0.2,0.11-0.35,0.12-0.52-0.01c-0.18-0.13-0.38-0.25-0.57-0.37
			c-0.03-0.02-0.06-0.04-0.1-0.05c-0.12-0.06-0.26-0.05-0.38,0.01c-0.02,0.01-0.04,0.03-0.06,0.04c-0.28,0.27-0.56,0.53-0.82,0.82
			c-0.25,0.28-0.24,0.38-0.04,0.71c0.12,0.18,0.24,0.36,0.36,0.54c0.09,0.13,0.1,0.25,0.03,0.4c-0.09,0.19-0.19,0.37-0.25,0.57
			c-0.07,0.23-0.22,0.33-0.45,0.36c-0.21,0.02-0.41,0.06-0.61,0.1c-0.19,0.04-0.33,0.17-0.34,0.37c-0.02,0.42-0.03,0.83-0.03,1.25
			c0,0.21,0.11,0.36,0.32,0.41c0.25,0.06,0.49,0.13,0.75,0.17c0.15,0.03,0.25,0.1,0.3,0.25c0.08,0.23,0.18,0.46,0.29,0.68
			c0.06,0.12,0.03,0.22-0.04,0.32c-0.14,0.19-0.28,0.39-0.41,0.59c-0.13,0.21-0.1,0.47,0.07,0.64c0.23,0.24,0.47,0.46,0.72,0.68
			c0.28,0.26,0.34,0.26,0.67,0.07c0.2-0.12,0.38-0.25,0.56-0.38c0.14-0.1,0.26-0.11,0.44,0.01c0.15,0.11,0.33,0.18,0.51,0.22
			c0.25,0.06,0.35,0.18,0.38,0.4c0.03,0.22,0.07,0.43,0.12,0.64c0.05,0.21,0.18,0.35,0.41,0.36c0.4,0.01,0.81,0.03,1.21,0.03
			c0.2,0,0.37-0.14,0.42-0.33c0.05-0.19,0.1-0.39,0.11-0.59c0.01-0.26,0.13-0.39,0.37-0.47c0.2-0.06,0.4-0.13,0.58-0.22
			c0.17-0.09,0.3-0.06,0.44,0.05c0.18,0.14,0.37,0.26,0.55,0.4c0.16,0.13,0.32,0.12,0.5,0.02c0.4-0.23,0.68-0.57,0.96-0.92
			c0.16-0.2,0.17-0.39,0.03-0.6c-0.11-0.16-0.22-0.33-0.35-0.48c-0.14-0.17-0.16-0.33-0.06-0.52c0.1-0.18,0.19-0.37,0.25-0.57
			c0.06-0.21,0.19-0.28,0.39-0.31c0.26-0.04,0.52-0.1,0.77-0.17C60.34,38.79,60.44,38.67,60.44,38.47z M54.44,40.98
			c-1.77-0.14-3.09-1.68-2.96-3.45c0.14-1.77,1.68-3.09,3.45-2.96c1.77,0.14,3.09,1.68,2.96,3.45
			C57.75,39.79,56.21,41.12,54.44,40.98z"/>
		
			<linearGradient id="SVGID_00000109015536802897288490000009347424125622842001_" gradientUnits="userSpaceOnUse" x1="54.6847" y1="44.0995" x2="54.6847" y2="31.5573">
			<stop  offset="0.3691" style="stop-color:#11555C"/>
			<stop  offset="1" style="stop-color:#37C3B5"/>
		</linearGradient>
		<path style="fill:url(#SVGID_00000109015536802897288490000009347424125622842001_);" d="M54.88,35.2
			c-1.42-0.11-2.66,0.95-2.77,2.37c-0.11,1.42,0.95,2.66,2.37,2.77c1.42,0.11,2.66-0.95,2.77-2.37
			C57.37,36.55,56.3,35.31,54.88,35.2z M54.54,39.69c-1.06-0.08-1.85-1.01-1.77-2.06c0.08-1.06,1.01-1.85,2.06-1.77
			c1.06,0.08,1.85,1.01,1.77,2.06C56.52,38.98,55.59,39.77,54.54,39.69z"/>
	</g>
	<g>
		
			<linearGradient id="SVGID_00000116219781116384542210000002441856008482987928_" gradientUnits="userSpaceOnUse" x1="45.4378" y1="37.6271" x2="45.4378" y2="46.6648">
			<stop  offset="0" style="stop-color:#F8A074"/>
			<stop  offset="1" style="stop-color:#F56A4C"/>
		</linearGradient>
		<path style="fill:url(#SVGID_00000116219781116384542210000002441856008482987928_);" d="M49.34,43.09c-0.01-0.2,0-0.41,0-0.61
			c0-0.08-0.02-0.16-0.04-0.24c-0.03-0.13-0.11-0.21-0.25-0.22c-0.15-0.02-0.3-0.04-0.46-0.05c-0.11-0.01-0.18-0.05-0.22-0.15
			c-0.07-0.16-0.15-0.31-0.24-0.46c-0.09-0.14-0.06-0.24,0.03-0.37c0.09-0.13,0.16-0.28,0.23-0.42c0.07-0.13,0.04-0.25-0.07-0.34
			c-0.22-0.19-0.44-0.37-0.67-0.54c-0.14-0.1-0.18-0.09-0.32,0.02c-0.14,0.11-0.27,0.21-0.4,0.32c-0.07,0.05-0.13,0.06-0.21,0.03
			c-0.17-0.06-0.34-0.12-0.51-0.16c-0.12-0.03-0.18-0.09-0.21-0.21c-0.04-0.17-0.1-0.34-0.15-0.51c-0.03-0.11-0.1-0.17-0.22-0.18
			c-0.31-0.04-0.61,0.01-0.91,0.06c-0.1,0.02-0.15,0.08-0.17,0.18c-0.02,0.18-0.05,0.35-0.06,0.53c-0.01,0.13-0.06,0.21-0.21,0.26
			c-0.13,0.04-0.25,0.1-0.36,0.18c-0.13,0.08-0.23,0.09-0.35,0.01c-0.13-0.08-0.27-0.15-0.4-0.22c-0.02-0.01-0.04-0.02-0.07-0.03
			c-0.08-0.03-0.18-0.03-0.26,0.03c-0.01,0.01-0.02,0.02-0.04,0.03c-0.18,0.19-0.36,0.38-0.52,0.59c-0.16,0.2-0.15,0.27,0.01,0.48
			c0.09,0.12,0.18,0.23,0.27,0.35c0.07,0.08,0.08,0.17,0.03,0.27c-0.06,0.13-0.11,0.26-0.14,0.39c-0.04,0.16-0.14,0.23-0.29,0.26
			c-0.14,0.02-0.27,0.06-0.41,0.1c-0.13,0.04-0.21,0.12-0.21,0.26c0.01,0.28,0.02,0.56,0.03,0.84c0.01,0.14,0.09,0.24,0.23,0.26
			c0.17,0.03,0.34,0.06,0.51,0.09c0.1,0.01,0.17,0.06,0.21,0.15c0.07,0.15,0.14,0.3,0.22,0.44c0.05,0.08,0.03,0.15-0.02,0.22
			c-0.09,0.14-0.17,0.27-0.25,0.41c-0.08,0.14-0.05,0.32,0.07,0.43c0.16,0.15,0.34,0.29,0.51,0.43c0.2,0.16,0.24,0.16,0.45,0.02
			c0.13-0.09,0.25-0.18,0.36-0.28c0.09-0.07,0.17-0.09,0.3-0.01c0.11,0.07,0.23,0.11,0.35,0.13c0.17,0.03,0.24,0.11,0.27,0.26
			c0.03,0.14,0.07,0.29,0.11,0.43c0.04,0.14,0.13,0.23,0.29,0.23c0.27-0.01,0.55-0.01,0.82-0.03c0.13-0.01,0.24-0.11,0.27-0.24
			c0.03-0.13,0.05-0.27,0.05-0.4c-0.01-0.18,0.07-0.27,0.23-0.33c0.13-0.05,0.26-0.1,0.38-0.18c0.11-0.06,0.2-0.06,0.3,0.02
			c0.12,0.09,0.26,0.16,0.39,0.25c0.12,0.08,0.22,0.07,0.33-0.01c0.26-0.17,0.43-0.41,0.61-0.66c0.1-0.14,0.1-0.27-0.01-0.4
			c-0.08-0.11-0.16-0.21-0.25-0.31c-0.1-0.11-0.12-0.21-0.06-0.35c0.06-0.13,0.11-0.26,0.15-0.39c0.03-0.14,0.11-0.19,0.25-0.22
			c0.17-0.04,0.34-0.09,0.51-0.14C49.29,43.31,49.35,43.23,49.34,43.09z M45.4,45.03c-1.2-0.02-2.15-1.01-2.13-2.2
			c0.02-1.2,1.01-2.15,2.2-2.13c1.2,0.02,2.15,1.01,2.13,2.2C47.59,44.1,46.6,45.05,45.4,45.03z"/>
		
			<linearGradient id="SVGID_00000017483454633351726400000016158671786695682997_" gradientUnits="userSpaceOnUse" x1="45.4385" y1="37.6271" x2="45.4385" y2="46.6648">
			<stop  offset="0" style="stop-color:#F8A074"/>
			<stop  offset="1" style="stop-color:#F56A4C"/>
		</linearGradient>
		<path style="fill:url(#SVGID_00000017483454633351726400000016158671786695682997_);" d="M45.47,41.13
			c-0.96-0.02-1.75,0.75-1.77,1.71c-0.02,0.96,0.75,1.75,1.71,1.77c0.96,0.02,1.75-0.75,1.77-1.71
			C47.19,41.93,46.43,41.14,45.47,41.13z M45.42,44.16c-0.71-0.01-1.28-0.6-1.27-1.32c0.01-0.72,0.6-1.29,1.32-1.27
			c0.72,0.01,1.29,0.6,1.27,1.32C46.72,43.6,46.13,44.17,45.42,44.16z"/>
	</g>
	<g>
		
			<linearGradient id="SVGID_00000043418536927621067560000014671986422060242053_" gradientUnits="userSpaceOnUse" x1="43.7091" y1="6.1201" x2="43.7091" y2="19.0792">
			<stop  offset="0" style="stop-color:#F8A074"/>
			<stop  offset="1" style="stop-color:#F56A4C"/>
		</linearGradient>
		<path style="fill:url(#SVGID_00000043418536927621067560000014671986422060242053_);" d="M50.77,12.87
			c-0.06-0.36-0.09-0.73-0.15-1.1c-0.02-0.15-0.08-0.29-0.13-0.43c-0.09-0.22-0.25-0.35-0.51-0.34C49.71,11,49.43,10.99,49.15,11
			c-0.19,0.01-0.33-0.05-0.44-0.21c-0.17-0.26-0.34-0.53-0.53-0.77C48,9.8,48.02,9.6,48.15,9.36c0.13-0.25,0.22-0.53,0.32-0.8
			c0.1-0.25,0.02-0.46-0.2-0.6c-0.43-0.28-0.87-0.57-1.32-0.82c-0.28-0.16-0.35-0.12-0.58,0.1c-0.22,0.22-0.44,0.45-0.65,0.67
			c-0.11,0.11-0.22,0.14-0.37,0.11c-0.32-0.07-0.63-0.14-0.95-0.18c-0.22-0.03-0.35-0.12-0.43-0.34c-0.11-0.3-0.26-0.59-0.39-0.89
			c-0.08-0.19-0.22-0.28-0.43-0.28c-0.56,0-1.1,0.15-1.63,0.31c-0.18,0.05-0.26,0.19-0.26,0.37c0,0.32,0,0.65,0.02,0.97
			c0.02,0.24-0.07,0.4-0.32,0.51c-0.22,0.1-0.43,0.24-0.61,0.4c-0.21,0.18-0.4,0.22-0.63,0.11c-0.25-0.12-0.51-0.21-0.77-0.31
			c-0.04-0.02-0.09-0.03-0.13-0.04c-0.16-0.04-0.33-0.01-0.45,0.1c-0.02,0.02-0.04,0.04-0.06,0.06c-0.28,0.38-0.55,0.77-0.8,1.17
			c-0.24,0.39-0.21,0.52,0.12,0.85c0.18,0.19,0.37,0.38,0.56,0.57c0.14,0.13,0.18,0.28,0.12,0.47c-0.07,0.24-0.14,0.49-0.17,0.74
			c-0.04,0.3-0.19,0.45-0.46,0.53c-0.24,0.07-0.48,0.16-0.71,0.26c-0.22,0.1-0.36,0.27-0.32,0.52c0.07,0.5,0.16,1,0.25,1.5
			c0.05,0.25,0.21,0.41,0.48,0.42c0.31,0.02,0.62,0.04,0.93,0.04c0.19,0,0.32,0.06,0.42,0.23c0.15,0.26,0.32,0.51,0.5,0.75
			c0.1,0.14,0.09,0.26,0.02,0.4c-0.13,0.26-0.25,0.53-0.35,0.8c-0.11,0.28-0.01,0.59,0.23,0.76c0.33,0.23,0.67,0.45,1.02,0.66
			c0.39,0.24,0.46,0.24,0.82-0.07c0.21-0.18,0.4-0.38,0.59-0.58c0.14-0.15,0.29-0.2,0.53-0.09c0.21,0.09,0.43,0.14,0.66,0.15
			c0.31,0.02,0.46,0.14,0.54,0.4c0.08,0.25,0.18,0.5,0.3,0.74c0.11,0.24,0.29,0.38,0.58,0.34c0.49-0.08,0.98-0.15,1.46-0.24
			c0.24-0.05,0.42-0.25,0.43-0.49c0.02-0.24,0.03-0.5-0.01-0.74c-0.05-0.31,0.06-0.5,0.33-0.64c0.23-0.12,0.45-0.25,0.65-0.4
			c0.18-0.14,0.34-0.15,0.54-0.04c0.24,0.13,0.5,0.23,0.75,0.36c0.23,0.11,0.41,0.08,0.6-0.09c0.42-0.36,0.68-0.84,0.94-1.32
			c0.15-0.28,0.11-0.51-0.1-0.72c-0.17-0.17-0.34-0.35-0.53-0.5c-0.2-0.17-0.27-0.36-0.19-0.61c0.07-0.24,0.15-0.49,0.17-0.74
			c0.03-0.26,0.16-0.37,0.4-0.45c0.3-0.1,0.6-0.24,0.89-0.37C50.72,13.27,50.81,13.11,50.77,12.87z M44.13,17.25
			c-2.16,0.24-4.1-1.32-4.33-3.48c-0.24-2.16,1.32-4.1,3.48-4.33c2.16-0.24,4.1,1.32,4.33,3.48C47.84,15.07,46.29,17.01,44.13,17.25
			z"/>
		
			<linearGradient id="SVGID_00000050656746404188943080000005691060692378094991_" gradientUnits="userSpaceOnUse" x1="43.7012" y1="6.1201" x2="43.7012" y2="19.0792">
			<stop  offset="0" style="stop-color:#F8A074"/>
			<stop  offset="1" style="stop-color:#F56A4C"/>
		</linearGradient>
		<path style="fill:url(#SVGID_00000050656746404188943080000005691060692378094991_);" d="M43.36,10.21
			c-1.73,0.19-2.98,1.74-2.79,3.47c0.19,1.73,1.74,2.98,3.47,2.79c1.73-0.19,2.98-1.75,2.79-3.47
			C46.64,11.27,45.09,10.02,43.36,10.21z M43.96,15.68c-1.29,0.14-2.45-0.79-2.59-2.08c-0.14-1.29,0.79-2.45,2.08-2.59
			c1.29-0.14,2.45,0.79,2.59,2.08C46.18,14.38,45.25,15.53,43.96,15.68z"/>
	</g>
	<path class="st11" d="M64.3,87.17c-0.52,0.94-1.63,1.42-2.67,1.16c-0.59-0.15-1.2-0.55-1.55-1.53v4.22c0,1.77-0.93,3.33-2.32,4.21
		c-0.29,0.18-0.6,0.34-0.92,0.46C56.3,95.89,55.71,96,55.1,96H45.07c-0.61,0-1.2-0.11-1.74-0.31c-0.32-0.12-0.63-0.27-0.92-0.46
		c-1.4-0.88-2.32-2.44-2.32-4.21V86.8c-0.35,0.97-0.97,1.38-1.55,1.53c-1.04,0.26-2.14-0.22-2.67-1.16c-0.94-1.69,0.3-4.05,0.3-4.05
		l2.42-4.9l11.34-0.3l0.15,0h0l0.15,0l11.34,0.3l2.42,4.9C64,83.12,65.24,85.48,64.3,87.17z"/>
	<g>
		
			<linearGradient id="SVGID_00000042709645737186718190000007719454816686508987_" gradientUnits="userSpaceOnUse" x1="32.1788" y1="88.933" x2="53.684" y2="70.7363">
			<stop  offset="0" style="stop-color:#DD532D"/>
			<stop  offset="1" style="stop-color:#FEC474"/>
		</linearGradient>
		<polygon style="fill:url(#SVGID_00000042709645737186718190000007719454816686508987_);" points="43.96,78.29 39.63,78.29 
			44.3,83.02 		"/>
		
			<linearGradient id="SVGID_00000132081369453145844890000008183984184750413714_" gradientUnits="userSpaceOnUse" x1="32.993" y1="89.8953" x2="54.4983" y2="71.6986">
			<stop  offset="0" style="stop-color:#DD532D"/>
			<stop  offset="1" style="stop-color:#FEC474"/>
		</linearGradient>
		<polygon style="fill:url(#SVGID_00000132081369453145844890000008183984184750413714_);" points="44.49,85.71 44.4,84.47 
			39.19,79.11 40.06,87.21 40.09,89.27 		"/>
		
			<linearGradient id="SVGID_00000150063559298351945930000006985850725212744076_" gradientUnits="userSpaceOnUse" x1="37.9332" y1="95.7337" x2="59.4385" y2="77.537">
			<stop  offset="0" style="stop-color:#DD532D"/>
			<stop  offset="1" style="stop-color:#FEC474"/>
		</linearGradient>
		<polygon style="fill:url(#SVGID_00000150063559298351945930000006985850725212744076_);" points="45.02,93.11 44.57,86.88 
			40.81,89.92 		"/>
		
			<linearGradient id="SVGID_00000081606714220114016600000018226269865284303500_" gradientUnits="userSpaceOnUse" x1="37.9054" y1="95.7008" x2="59.4107" y2="77.5041">
			<stop  offset="0" style="stop-color:#DD532D"/>
			<stop  offset="1" style="stop-color:#FEC474"/>
		</linearGradient>
		<path style="fill:url(#SVGID_00000081606714220114016600000018226269865284303500_);" d="M40.09,90.5v0.51
			c0,1.77,0.93,3.33,2.32,4.21c0.64-0.53,1.81-1.53,1.81-1.53L40.09,90.5z"/>
		
			<linearGradient id="SVGID_00000121986569360434914960000012290770081174395046_" gradientUnits="userSpaceOnUse" x1="40.6308" y1="98.9217" x2="62.136" y2="80.725">
			<stop  offset="0" style="stop-color:#DD532D"/>
			<stop  offset="1" style="stop-color:#FEC474"/>
		</linearGradient>
		<path style="fill:url(#SVGID_00000121986569360434914960000012290770081174395046_);" d="M44.89,94.35l-1.56,1.34
			c0.54,0.2,1.13,0.31,1.74,0.31h0.16l-0.1-1.39L44.89,94.35z"/>
		
			<linearGradient id="SVGID_00000178188412192723976960000014069777839172470673_" gradientUnits="userSpaceOnUse" x1="37.9077" y1="95.7036" x2="59.413" y2="77.5069">
			<stop  offset="0" style="stop-color:#DD532D"/>
			<stop  offset="1" style="stop-color:#FEC474"/>
		</linearGradient>
		<polygon style="fill:url(#SVGID_00000178188412192723976960000014069777839172470673_);" points="45.65,85.83 45.94,92.24 
			49.42,89.17 		"/>
		
			<linearGradient id="SVGID_00000075131182305979516100000007852188973381749637_" gradientUnits="userSpaceOnUse" x1="34.0001" y1="91.0855" x2="55.5054" y2="72.8888">
			<stop  offset="0" style="stop-color:#DD532D"/>
			<stop  offset="1" style="stop-color:#FEC474"/>
		</linearGradient>
		<polygon style="fill:url(#SVGID_00000075131182305979516100000007852188973381749637_);" points="49.35,81.68 45.18,78.29 
			44.89,78.29 45.42,84.19 45.79,84.56 		"/>
		
			<linearGradient id="SVGID_00000178187891134913306460000002048541324019587975_" gradientUnits="userSpaceOnUse" x1="34.4023" y1="91.5608" x2="55.9076" y2="73.3641">
			<stop  offset="0" style="stop-color:#DD532D"/>
			<stop  offset="1" style="stop-color:#FEC474"/>
		</linearGradient>
		<polygon style="fill:url(#SVGID_00000178187891134913306460000002048541324019587975_);" points="50.08,81.15 50.08,81.15 
			50.08,81.15 50.08,81.15 50.09,81.15 50.09,81.15 50.09,81.15 50.09,81.15 50.09,81.15 50.09,81.15 53.56,78.29 50.09,78.29 
			50.08,78.29 46.61,78.29 50.08,81.15 		"/>
		
			<linearGradient id="SVGID_00000000198476916125894750000014878282980325937590_" gradientUnits="userSpaceOnUse" x1="38.0533" y1="95.8756" x2="59.5586" y2="77.6789">
			<stop  offset="0" style="stop-color:#DD532D"/>
			<stop  offset="1" style="stop-color:#FEC474"/>
		</linearGradient>
		<polygon style="fill:url(#SVGID_00000000198476916125894750000014878282980325937590_);" points="56.21,78.29 55.87,83.02 
			60.54,78.29 		"/>
		
			<linearGradient id="SVGID_00000018202462495617163820000014640032625614503554_" gradientUnits="userSpaceOnUse" x1="41.6681" y1="100.1477" x2="63.1734" y2="81.9509">
			<stop  offset="0" style="stop-color:#DD532D"/>
			<stop  offset="1" style="stop-color:#FEC474"/>
		</linearGradient>
		<polygon style="fill:url(#SVGID_00000018202462495617163820000014640032625614503554_);" points="55.77,84.47 55.68,85.71 
			60.08,89.27 60.11,87.21 60.98,79.11 		"/>
		
			<linearGradient id="SVGID_00000065774617766009380530000013020263290735560332_" gradientUnits="userSpaceOnUse" x1="42.4717" y1="101.0973" x2="63.9769" y2="82.9006">
			<stop  offset="0" style="stop-color:#DD532D"/>
			<stop  offset="1" style="stop-color:#FEC474"/>
		</linearGradient>
		<polygon style="fill:url(#SVGID_00000065774617766009380530000013020263290735560332_);" points="59.36,89.92 55.6,86.88 
			55.15,93.11 		"/>
		
			<linearGradient id="SVGID_00000052080387776587321120000009906283645924600491_" gradientUnits="userSpaceOnUse" x1="45.2161" y1="104.3408" x2="66.7214" y2="86.144">
			<stop  offset="0" style="stop-color:#DD532D"/>
			<stop  offset="1" style="stop-color:#FEC474"/>
		</linearGradient>
		<path style="fill:url(#SVGID_00000052080387776587321120000009906283645924600491_);" d="M57.76,95.23
			c1.4-0.88,2.32-2.44,2.32-4.21V90.5l-4.14,3.2C55.94,93.7,57.11,94.7,57.76,95.23z"/>
		
			<linearGradient id="SVGID_00000067216929940780298240000003837766008630956707_" gradientUnits="userSpaceOnUse" x1="45.1416" y1="104.2527" x2="66.6468" y2="86.0559">
			<stop  offset="0" style="stop-color:#DD532D"/>
			<stop  offset="1" style="stop-color:#FEC474"/>
		</linearGradient>
		<path style="fill:url(#SVGID_00000067216929940780298240000003837766008630956707_);" d="M55.04,94.61L54.94,96h0.16
			c0.61,0,1.2-0.11,1.74-0.31l-1.56-1.34L55.04,94.61z"/>
		
			<linearGradient id="SVGID_00000060729057956399832580000011349384076553489041_" gradientUnits="userSpaceOnUse" x1="41.4899" y1="99.9371" x2="62.9951" y2="81.7403">
			<stop  offset="0" style="stop-color:#DD532D"/>
			<stop  offset="1" style="stop-color:#FEC474"/>
		</linearGradient>
		<polygon style="fill:url(#SVGID_00000060729057956399832580000011349384076553489041_);" points="54.23,92.24 54.52,85.83 
			50.75,89.17 		"/>
		
			<linearGradient id="SVGID_00000160165605903176126500000005672281312461134257_" gradientUnits="userSpaceOnUse" x1="37.833" y1="95.6152" x2="59.3382" y2="77.4185">
			<stop  offset="0" style="stop-color:#DD532D"/>
			<stop  offset="1" style="stop-color:#FEC474"/>
		</linearGradient>
		<polygon style="fill:url(#SVGID_00000160165605903176126500000005672281312461134257_);" points="54.99,78.29 50.82,81.68 
			54.38,84.56 54.75,84.19 55.28,78.29 		"/>
		
			<linearGradient id="SVGID_00000141452966555214383270000014427986659983546793_" gradientUnits="userSpaceOnUse" x1="42.0038" y1="100.5444" x2="63.509" y2="82.3476">
			<stop  offset="0" style="stop-color:#DD532D"/>
			<stop  offset="1" style="stop-color:#FEC474"/>
		</linearGradient>
		<polygon style="fill:url(#SVGID_00000141452966555214383270000014427986659983546793_);" points="50.09,89.84 50.09,89.84 
			50.09,89.84 50.09,89.84 50.08,89.84 50.08,89.84 50.08,89.84 50.08,89.84 45.96,93.43 45.96,93.86 48.22,96 50.08,96 50.09,96 
			51.95,96 54.21,93.86 54.21,93.43 50.09,89.84 		"/>
		
			<linearGradient id="SVGID_00000018202787216626452630000003239681324350789523_" gradientUnits="userSpaceOnUse" x1="37.8837" y1="95.6752" x2="59.3889" y2="77.4784">
			<stop  offset="0" style="stop-color:#DD532D"/>
			<stop  offset="1" style="stop-color:#FEC474"/>
		</linearGradient>
		<polygon style="fill:url(#SVGID_00000018202787216626452630000003239681324350789523_);" points="50.09,88.55 50.09,88.55 
			50.09,88.55 53.72,85.23 50.09,82.36 50.09,82.36 50.09,82.36 50.09,82.36 50.09,82.36 50.09,82.36 50.08,82.36 50.08,82.36 
			50.08,82.36 50.08,82.36 50.08,82.36 46.45,85.23 50.08,88.55 50.08,88.55 50.08,88.55 50.08,88.55 50.08,88.55 50.09,88.55 
			50.09,88.55 50.09,88.55 		"/>
	</g>
	<path class="st29" d="M58.99,60.97c0,0.66-0.48,1.24-1.15,1.35L43.1,64.71c-0.75,0.12-1.45-0.39-1.57-1.13
		c-0.12-0.75,0.39-1.45,1.13-1.57l14.74-2.39c0.75-0.12,1.45,0.39,1.57,1.13C58.98,60.83,58.99,60.9,58.99,60.97z"/>
	<path class="st29" d="M45.36,68.73c0.7,2.03,2.62,3.49,4.89,3.49c2.27,0,4.19-1.46,4.89-3.49H45.36z"/>
	<polygon points="50.53,77.9 50.53,77.92 50.23,77.91 	"/>
	<polygon points="50.23,77.91 49.93,77.92 49.93,77.9 	"/>
	<g>
		<g>
			
				<rect x="43.47" y="67.92" transform="matrix(0.9959 -0.091 0.091 0.9959 -6.3799 4.2963)" class="st30" width="0.92" height="8.39"/>
		</g>
	</g>
	<g>
		<g>
			<polygon class="st30" points="57.22,67.84 56.47,76.34 55.56,76.26 56.32,67.99 			"/>
		</g>
	</g>
	<g>
		<g>
			<g>
				
					<rect x="33.69" y="34.93" transform="matrix(0.9707 -0.2402 0.2402 0.9707 -12.4391 9.8428)" class="st29" width="0.92" height="42.03"/>
			</g>
		</g>
	</g>
	<g>
		<g>
			
				<rect x="44.22" y="54.18" transform="matrix(0.2402 -0.9707 0.9707 0.2402 -2.459 106.1337)" class="st11" width="44.71" height="0.92"/>
		</g>
	</g>
	<path class="st29" d="M62.84,77.09c0,0.33-0.13,0.63-0.35,0.85c-0.22,0.22-0.52,0.35-0.85,0.35H38.62c-0.66,0-1.2-0.54-1.2-1.2
		c0-0.33,0.13-0.63,0.35-0.85c0.22-0.22,0.52-0.35,0.85-0.35h23.01C62.3,75.88,62.84,76.42,62.84,77.09z"/>
	<path class="st29" d="M58.99,64.92c0,0.66-0.48,1.24-1.15,1.35L43.1,68.66c-0.75,0.12-1.45-0.39-1.57-1.13
		c-0.12-0.75,0.39-1.45,1.13-1.57l14.74-2.39c0.75-0.12,1.45,0.39,1.57,1.13C58.98,64.77,58.99,64.84,58.99,64.92z"/>
	<path d="M32.39,41.24c-0.09-0.09-0.18-0.19-0.27-0.29C32.22,41.06,32.31,41.15,32.39,41.24z"/>
	<path class="st31" d="M55.63,56.18c-0.22,0.54-0.54,1.12-0.99,1.65h-0.26c0.02-0.02,0.03-0.05,0.04-0.09
		c0.08-0.34,0.07-0.68,0.1-1.03c0.01-0.18,0.03-0.36,0.05-0.54H55.63z"/>
	
		<linearGradient id="SVGID_00000014591960841263044220000013144149575775860647_" gradientUnits="userSpaceOnUse" x1="54.7244" y1="70.1647" x2="65.4135" y2="15.5319">
		<stop  offset="0" style="stop-color:#DD532D"/>
		<stop  offset="1" style="stop-color:#FEC474"/>
	</linearGradient>
	<path style="fill:url(#SVGID_00000014591960841263044220000013144149575775860647_);" d="M74.64,25.83
		c-0.17,2.21-0.66,4.36-1.49,6.42c-0.09,0.23-0.18,0.45-0.28,0.68c0,0,0,0,0,0.01c0,0,0,0.01-0.01,0.01c0,0,0,0.01-0.01,0.01
		c-0.12,0.27-1,2.14-2.44,4.18c-0.47,0.66-1,1.35-1.58,2c-0.01,0.01-0.02,0.02-0.02,0.03c-0.09,0.1-0.18,0.2-0.28,0.3
		c-1.06,1.06-2.18,2.05-3.27,3.07c-0.91,0.84-1.82,1.68-2.71,2.54c-0.46,0.45-0.87,0.94-1.21,1.5c-0.65,1.08-1.1,2.22-1.22,3.48
		c-0.08,0.78-0.08,1.57-0.13,2.36c-0.05,0.88-0.06,1.77-0.19,2.65c-0.12,0.82-0.39,1.57-0.87,2.19c0,0-0.01,0.01-0.02,0.02
		c-0.37,0.42-0.83,0.78-1.34,1.01c-0.52,0.23-1.09,0.34-1.65,0.43c-0.72,0.12-1.43,0.22-2.15,0.34c0,0-0.01,0-0.01,0l-0.7,0.11
		c0.66-0.37,1.18-0.82,1.59-1.3c0.1-0.12,0.19-0.23,0.27-0.35c0.05-0.07,0.1-0.14,0.15-0.21c0.01-0.01,0.01-0.02,0.02-0.02
		c0.02-0.03,0.04-0.07,0.06-0.1c0.05-0.08,0.1-0.16,0.14-0.24c0.02-0.04,0.05-0.08,0.07-0.13c0.02-0.03,0.03-0.06,0.05-0.09
		c0.02-0.05,0.05-0.09,0.07-0.14c0.03-0.06,0.05-0.11,0.07-0.17c0-0.01,0.01-0.02,0.01-0.03c0.02-0.04,0.04-0.09,0.05-0.13
		c0.01-0.01,0.01-0.03,0.02-0.04c0,0,0,0,0,0h0c0.03-0.08,0.06-0.17,0.09-0.25c0.42-1.23,0.49-2.59,0.55-3.92
		c0.02-0.47,0.03-0.94,0.04-1.41c0.01-1.51,0.2-2.99,0.62-4.43c0.46-1.57,1.23-2.96,2.37-4.15c1.07-1.12,2.26-2.1,3.49-3.05
		c1.69-1.32,3.3-2.72,4.65-4.4c1.7-2.12,2.9-4.49,3.55-7.12c0.51-2.05,0.62-4.13,0.39-6.23c-0.25-2.38-0.89-4.65-2-6.77
		c-0.41-0.78-0.84-1.56-1.32-2.3c-0.78-1.21-1.73-2.28-2.77-3.27c-0.61-0.59-1.31-1.09-1.98-1.61c-0.14-0.11-0.27-0.21-0.41-0.31
		c-1.66-1.23-3.49-2.15-5.46-2.75c-0.37-0.11-0.75-0.21-1.13-0.29l0,0c0,0,8.66,0.5,13.89,6.42c0,0,0,0,0,0v0h0
		c0.51,0.72,0.98,1.46,1.42,2.23c1.25,2.18,2.14,4.5,2.63,6.98C74.64,21.62,74.79,23.72,74.64,25.83z"/>
	<polygon points="70.19,10.33 70.19,10.33 70.19,10.33 	"/>
	
		<linearGradient id="SVGID_00000152243260942516115920000017969149642453673916_" gradientUnits="userSpaceOnUse" x1="47.9398" y1="69.5319" x2="47.9398" y2="0.572">
		<stop  offset="0.3691" style="stop-color:#11555C"/>
		<stop  offset="1" style="stop-color:#37C3B5"/>
	</linearGradient>
	<path style="fill:url(#SVGID_00000152243260942516115920000017969149642453673916_);" d="M70.19,10.33
		c-5.24-5.92-13.89-6.42-13.89-6.42c-1.32-0.29-2.67-0.41-4.02-0.48c-1.77-0.09-3.54,0.03-5.29,0.34c-2.97,0.52-5.72,1.65-8.25,3.28
		c-1.77,1.14-3.3,2.56-4.66,4.18c-1.14,1.37-2.13,2.83-2.9,4.43c-1.75,3.64-2.39,7.48-1.93,11.51c0.35,3.1,1.42,5.92,3.09,8.55
		c1.27,2,2.91,3.64,4.6,5.25c0.78,0.74,1.55,1.5,2.26,2.31c0.98,1.14,1.78,2.41,2.36,3.8c0.73,1.76,1.03,3.61,1.15,5.5
		c0.04,0.67,0.09,1.35,0.19,2.02c0.13,0.85,0.63,1.43,1.5,1.55c0.09,0.01,0.18,0.02,0.28,0.03h10.94l0,0c0,0.01-0.01,0.03-0.02,0.04
		c-0.02,0.04-0.03,0.09-0.05,0.13c0,0.01-0.01,0.02-0.01,0.03c-0.02,0.06-0.05,0.11-0.07,0.17c-0.02,0.05-0.04,0.09-0.07,0.14
		c-0.01,0.03-0.03,0.06-0.05,0.09c-0.02,0.04-0.04,0.09-0.07,0.13c-0.04,0.08-0.09,0.16-0.14,0.24c-0.02,0.03-0.04,0.07-0.06,0.1
		c-0.01,0.01-0.01,0.02-0.02,0.02c-0.05,0.07-0.1,0.14-0.15,0.21c-0.09,0.12-0.18,0.24-0.27,0.35c-0.41,0.48-0.93,0.93-1.59,1.3
		l-9.94,1.61c-0.75,0.12-1.45-0.39-1.57-1.13c-0.12-0.72,0.36-1.41,1.07-1.56l-0.47-0.41l0,0c-0.94-0.82-1.41-1.89-1.5-3.16
		c-0.05-0.77-0.11-1.54-0.16-2.31c-0.17-2.28-1.04-4.24-2.66-5.85c-1.01-1-2.06-1.94-3.11-2.89c-0.79-0.71-1.57-1.43-2.3-2.2
		c-0.09-0.09-0.18-0.19-0.27-0.29c0,0,0,0,0,0c-0.46-0.5-0.89-1.01-1.29-1.56c-0.04-0.05-0.08-0.1-0.13-0.15
		c-1.4-1.92-2.68-4.25-2.76-4.4c0,0,0-0.01,0-0.01c-1.11-2.32-1.81-4.77-2.08-7.35c-0.11-1.04-0.18-2.09-0.17-3.13
		c0.03-2.66,0.52-5.25,1.41-7.76c1.19-3.36,3.05-6.31,5.5-8.88c2.65-2.78,5.79-4.83,9.41-6.15c2.27-0.83,4.62-1.3,7.01-1.52
		c1.41-0.13,2.83-0.02,4.24,0.17c2.23,0.3,4.39,0.84,6.47,1.71c2.41,1.01,4.61,2.36,6.58,4.08C67.79,7.3,69.07,8.75,70.19,10.33z"/>
	<g>
		<path class="st11" d="M54.03,56.18v-4.87c0-0.41-0.22-0.79-0.57-1l-0.59-0.36c-0.07-0.04-0.11-0.12-0.11-0.2v-1.6
			c0-1.18-0.96-2.14-2.14-2.14c-1.18,0-2.14,0.96-2.14,2.14v1.6c0,0.08-0.04,0.15-0.11,0.2l-0.59,0.36c-0.35,0.21-0.57,0.59-0.57,1
			v4.87h-0.68c0,0,0.41,1.64,8.73,0.73c0.13-0.24,0.24-0.48,0.34-0.73H54.03z M48.14,56.18v-4.87c0-0.09,0.05-0.17,0.12-0.22
			l0.59-0.36c0.34-0.21,0.55-0.58,0.55-0.98v-1.6c0-0.67,0.55-1.22,1.22-1.22c0.67,0,1.22,0.55,1.22,1.22v1.6
			c0,0.4,0.21,0.78,0.55,0.98l0.59,0.36c0.07,0.05,0.12,0.13,0.12,0.22v4.87H48.14z"/>
	</g>
</g>
</svg>
