<?xml version="1.0" encoding="utf-8"?>
<!-- Generator: Adobe Illustrator 27.8.1, SVG Export Plug-In . SVG Version: 6.00 Build 0)  -->
<svg version="1.1" id="Слой_1" xmlns="http://www.w3.org/2000/svg" xmlns:xlink="http://www.w3.org/1999/xlink" x="0px" y="0px"
	 viewBox="0 0 128 128" style="enable-background:new 0 0 128 128;" xml:space="preserve">
<style type="text/css">
	.st0{fill:#FFFFFF;}
	.st1{fill:url(#SVGID_1_);}
	.st2{fill:url(#SVGID_00000136395050906257996660000003434993847767895207_);}
	.st3{fill:url(#SVGID_00000138571695411671045930000016367345743671947188_);}
	.st4{fill:url(#SVGID_00000014597662419121322980000004491814819762477703_);}
	.st5{fill:url(#SVGID_00000163785688687842799920000015229193920266413204_);}
	.st6{fill:url(#SVGID_00000054950949985307610070000017888036057434194091_);}
	.st7{fill:url(#SVGID_00000165209572146721837230000016401078988860765581_);}
	.st8{fill:url(#SVGID_00000093869509297347939860000009003637789642112662_);}
	.st9{fill:url(#SVGID_00000146499669127380352400000015265522470939834549_);}
	.st10{fill:url(#SVGID_00000119081742710617240740000015511964267130462612_);}
	.st11{fill:#624330;}
	.st12{fill:url(#SVGID_00000069390126502963137340000004148355608889651599_);}
	.st13{fill:url(#SVGID_00000061458769432836238610000013096310144313517222_);}
	.st14{fill:url(#SVGID_00000101822865581468770150000008681913163995457959_);}
	.st15{fill:url(#SVGID_00000080894715838930829390000004817268982725237674_);}
	.st16{fill:url(#SVGID_00000170270281956230725720000014132308524153060485_);}
	.st17{fill:url(#SVGID_00000177460498507158242380000011149208455019863190_);}
	.st18{fill:url(#SVGID_00000178199815209245462440000016049466197033340564_);}
	.st19{fill:url(#SVGID_00000140013545781678613540000018398131467561357749_);}
	.st20{fill:url(#SVGID_00000151501155108822706890000004954958552382354353_);}
	.st21{fill:url(#SVGID_00000146496479106227259340000001198639370924167313_);}
	.st22{fill:url(#SVGID_00000034779516894702666330000001059191528362587836_);}
	.st23{fill:url(#SVGID_00000150818228699430123250000003386959751805609125_);}
	.st24{fill:url(#SVGID_00000170271056730563068110000012134416936015948164_);}
	.st25{fill:url(#SVGID_00000131353353470023433710000014735744386709097146_);}
	.st26{fill:url(#SVGID_00000057133750658583711330000014168505436594159238_);}
	.st27{fill:url(#SVGID_00000154384278241870096780000004433827566544223367_);}
	.st28{fill:url(#SVGID_00000024710197366406846550000013920128775630840758_);}
	.st29{fill:#16505C;}
	.st30{fill:#614630;}
	.st31{opacity:0.5;}
	.st32{fill:url(#SVGID_00000025425659510660945900000001650391534106929305_);}
	.st33{fill:url(#SVGID_00000019663935900455250930000009274966822273999510_);}
	.st34{fill:url(#SVGID_00000089533021054186813210000017627303652914577845_);}
	.st35{fill:url(#SVGID_00000098938345660922776560000005848714465963441328_);}
	.st36{fill:url(#SVGID_00000170959794038930501040000004333805038022015399_);}
	.st37{fill:url(#SVGID_00000008134070946620304850000007019434070611403144_);}
	.st38{fill:url(#SVGID_00000111896062574682634930000013955143895710773651_);}
	.st39{fill:url(#SVGID_00000005971163816935469700000009960327996900433338_);}
	.st40{fill:url(#SVGID_00000049221406238415710830000011989623211083264691_);}
	.st41{fill:url(#SVGID_00000157286215657818842070000013711064248354205849_);}
	.st42{fill:url(#SVGID_00000116201871290811470240000015484460041814560649_);}
	.st43{fill:url(#SVGID_00000183962194466554760000000016081990674363691441_);}
	.st44{fill:url(#SVGID_00000090979732750866816040000007664300031265692861_);}
	.st45{fill:url(#SVGID_00000018959414220530788260000017922863294830267805_);}
	.st46{fill:url(#SVGID_00000104689963225099927120000008075936066511142329_);}
	.st47{fill:url(#SVGID_00000101083311369282587420000006385379521931170485_);}
	.st48{fill:url(#SVGID_00000168816834390566094610000010196562867807589817_);}
	.st49{fill:url(#SVGID_00000101072320476316088410000015380319439416540811_);}
	.st50{fill:url(#SVGID_00000072996307978884511340000004771006421910812094_);}
	.st51{fill:url(#SVGID_00000121982043532392349050000016653915065657220284_);}
	.st52{fill:url(#SVGID_00000129177561136837289740000014933316134911654558_);}
	.st53{fill:url(#SVGID_00000008142087833743491060000009847016825730354333_);}
	.st54{fill:url(#SVGID_00000163036111771337574420000008804330225786808482_);}
	.st55{fill:url(#SVGID_00000016756547347752006320000011801349372971833777_);}
	.st56{fill:url(#SVGID_00000152963113444811713590000006506667889241829043_);}
	.st57{fill:url(#SVGID_00000060028983771711953800000002411766191874333317_);}
	.st58{fill:url(#SVGID_00000056412028891080338870000003039858779837705381_);}
	.st59{fill:url(#SVGID_00000049908479755664790510000013591012859881864372_);}
	.st60{fill:url(#SVGID_00000077289134365521223880000014398081105171358884_);}
	.st61{fill:url(#SVGID_00000148629120406182954300000011573550074613205930_);}
	.st62{fill:url(#SVGID_00000115498835210119824260000014854928475833869212_);}
	.st63{fill:url(#SVGID_00000011719944511465401190000018285506500003658156_);}
	.st64{fill:url(#SVGID_00000182495945808599992910000002996266279444802444_);}
	.st65{fill:url(#SVGID_00000132774738886105735870000011274183498651665589_);}
	.st66{fill:url(#SVGID_00000031201982470573274310000016642935484912772746_);}
	.st67{fill:url(#SVGID_00000003803045271789743270000001726716445692864168_);}
	.st68{fill:url(#SVGID_00000032606403332320478770000004220344697183914148_);}
	.st69{fill:url(#SVGID_00000170249603036262849680000015884200261319787939_);}
	.st70{fill:url(#SVGID_00000057141739140535599640000012115439703694452614_);}
	.st71{fill:url(#SVGID_00000053534810918473745080000011882635888099094451_);}
	.st72{fill:url(#SVGID_00000068660117557357208720000005776970719368159109_);}
	.st73{fill:url(#SVGID_00000056392980329991522930000007300088428043297184_);}
	.st74{fill:url(#SVGID_00000134971906243673809810000003632730823753320604_);}
	.st75{fill:url(#SVGID_00000090270058736318312600000009898228828041678724_);}
	.st76{fill:url(#SVGID_00000113312506154985254880000007942656333117179779_);}
	.st77{fill:url(#SVGID_00000076579695819787457150000017204436354415034772_);}
	.st78{fill:url(#SVGID_00000158003567895942826060000012169533307862307212_);}
	.st79{fill:url(#SVGID_00000040540455655262302100000004782354394157364373_);}
	.st80{fill:url(#SVGID_00000164508480723473391310000005311364307158080399_);}
	.st81{fill:url(#SVGID_00000055668616142980452860000005777469214199476921_);}
	.st82{fill:url(#SVGID_00000052801090742903078680000011817601266642364082_);}
	.st83{fill:url(#SVGID_00000065033082000118724700000005967032703239334833_);}
	.st84{fill:url(#SVGID_00000174563694787634944660000014128145718740710065_);}
	.st85{fill:url(#SVGID_00000013888331216197628040000010280595034210757545_);}
	.st86{fill:url(#SVGID_00000166675792123118629530000009056202074090449342_);}
	.st87{fill:url(#SVGID_00000052102582985677692100000009243576708596262821_);}
	.st88{fill:url(#SVGID_00000163763810220738998360000014706320996158282886_);}
	.st89{fill:url(#SVGID_00000152235050746537918180000015324455678789579167_);}
	.st90{fill:url(#SVGID_00000008146336861457352000000008002154373699050919_);}
	.st91{fill:url(#SVGID_00000103966249180974185450000011477140400335355534_);}
	.st92{fill:url(#SVGID_00000089561812128454080300000002314266743465465223_);}
	.st93{fill:url(#SVGID_00000061439442460920309620000011593077168190697646_);}
	.st94{fill:url(#SVGID_00000162353516298074980950000004100233031016711057_);}
	.st95{fill:url(#SVGID_00000094619588853071379180000017519797658092340383_);}
	.st96{fill:url(#SVGID_00000165950302040938071770000003269077898783343744_);}
	.st97{fill:url(#SVGID_00000154386457454676490260000001027040595655240105_);}
	.st98{fill:url(#SVGID_00000004539403182312862550000011258278705498905268_);}
	.st99{fill:url(#SVGID_00000124152755902784116460000000867001535679794560_);}
	.st100{fill:url(#SVGID_00000003791318800582027030000007400255432618264731_);}
	.st101{fill:url(#SVGID_00000098190524309393316070000011608898597330075050_);}
	.st102{fill:url(#SVGID_00000140720635936917400400000018108264645040007851_);}
	.st103{fill:url(#SVGID_00000074442674227572130230000013470059494408848569_);}
	.st104{fill:url(#SVGID_00000175321934868968194300000004134509828393715343_);}
	.st105{fill:url(#SVGID_00000050653014405732105810000008080414915201167766_);}
	.st106{fill:url(#SVGID_00000036947501082371911500000011993353678807393215_);}
	.st107{fill:url(#SVGID_00000068670623968142437620000010760591868625884297_);}
	.st108{fill:url(#SVGID_00000138557282684765253620000009549564784569897090_);}
	.st109{fill:url(#SVGID_00000078745138698369883080000009202439350391643323_);}
	.st110{fill:url(#SVGID_00000080175614568182615460000003562790020526451877_);}
	.st111{fill:url(#SVGID_00000011713387090016230150000012234097070620200076_);}
	.st112{fill:url(#SVGID_00000165913006814739353670000017387921028258941886_);}
	.st113{fill:url(#SVGID_00000170983698350237630950000013198839229113704595_);}
	.st114{fill:url(#SVGID_00000140737065051438723820000001932887271437801106_);}
	.st115{fill:url(#SVGID_00000018931999911470376190000014782864677379118769_);}
	.st116{fill:url(#SVGID_00000171695605130602055690000013881478112863977109_);}
	.st117{fill:url(#SVGID_00000116229036172205701250000004588864257544811416_);}
	.st118{fill:url(#SVGID_00000180343808721765941490000012111461566471041214_);}
	.st119{fill:url(#SVGID_00000026123890843731175710000002164723035298590361_);}
	.st120{fill:url(#SVGID_00000060737091632001979500000012227483929569060748_);}
	.st121{fill:url(#SVGID_00000024712568570380852960000016264530212567875230_);}
	.st122{fill:url(#SVGID_00000000904731959174850520000008544579090657339011_);}
	.st123{fill:url(#SVGID_00000080907776782070692270000005104242410221448612_);}
	.st124{fill:url(#SVGID_00000025437955733191585300000007720390425487308419_);}
	.st125{fill:url(#SVGID_00000124154236904180975280000015149804553425494963_);}
	.st126{fill:url(#SVGID_00000106838131237746296770000016291875355014303667_);}
	.st127{fill:url(#SVGID_00000173871518244620951400000013646626886171503542_);}
	.st128{fill:url(#SVGID_00000002359488894174149770000015771044955726103169_);}
	.st129{fill:url(#SVGID_00000101104092753687413310000003620412912336722075_);}
	.st130{fill:url(#SVGID_00000105408353897751230460000007602772616805526427_);}
	.st131{fill:url(#SVGID_00000134245839650954585630000010686127012526443197_);}
	.st132{fill:url(#SVGID_00000085952286442248270270000010980246191173303218_);}
	.st133{fill:url(#SVGID_00000091725391903268028710000002215099751447696261_);}
	.st134{fill:url(#SVGID_00000084515366409130166590000000449084577600031366_);}
	.st135{fill:url(#SVGID_00000018945159365874915480000008311490281201765542_);}
	.st136{fill:url(#SVGID_00000103984734613504364920000005952988493667853982_);}
	.st137{fill:url(#SVGID_00000048491582141253140750000015308931761916199593_);}
	.st138{fill:url(#SVGID_00000075845827681386358370000009470164286172752304_);}
	.st139{fill:url(#SVGID_00000123435886290655517370000013401928405789947054_);}
	.st140{fill:url(#SVGID_00000084495553171971501450000008388270793781655451_);}
	.st141{fill:url(#SVGID_00000141449995582423501790000003467450604592389016_);}
	.st142{fill:url(#SVGID_00000101100655288595744850000006820451874764955032_);}
	.st143{fill:url(#SVGID_00000016791992193938449800000016262459257055728553_);}
	.st144{fill:url(#SVGID_00000048484533607482493820000014971934735196834963_);}
	.st145{fill:url(#SVGID_00000152247541411864868610000011259429394284462982_);}
	.st146{fill:url(#SVGID_00000021811975179354282040000009114548932661272987_);}
	.st147{fill:url(#SVGID_00000163043708553284555530000008783505694800221101_);}
	.st148{fill:url(#SVGID_00000033340354250192607200000003040166337801564801_);}
	.st149{fill:url(#SVGID_00000013887604666368292260000003803880686521362562_);}
</style>
<g>
	<path class="st0" d="M91.7,36.61c-0.87,3.51-2.47,6.66-4.74,9.49c-1.8,2.24-3.95,4.11-6.2,5.87c-1.63,1.27-3.22,2.57-4.65,4.06
		c-1.52,1.58-2.56,3.44-3.16,5.54c-0.56,1.93-0.81,3.9-0.83,5.91c0,0.63-0.02,1.25-0.05,1.87c-0.08,1.78-0.17,3.58-0.73,5.23
		c-0.04,0.11-0.08,0.22-0.12,0.33H56.63c-0.12-0.01-0.25-0.03-0.37-0.04c-1.16-0.16-1.82-0.93-1.99-2.07
		c-0.14-0.89-0.2-1.79-0.26-2.69c-0.15-2.52-0.55-4.99-1.53-7.34c-0.77-1.86-1.83-3.55-3.15-5.07c-0.94-1.08-1.97-2.09-3.01-3.08
		c-2.26-2.15-4.45-4.34-6.14-7c-2.23-3.5-3.65-7.26-4.12-11.4c-0.61-5.37,0.24-10.49,2.58-15.35c1.03-2.13,2.35-4.09,3.87-5.91
		c1.8-2.16,3.84-4.05,6.21-5.57c3.38-2.17,7.03-3.68,11-4.37c2.33-0.41,4.69-0.57,7.05-0.45c1.8,0.09,3.6,0.25,5.36,0.64l0,0
		c0.51,0.11,1.01,0.24,1.5,0.39c2.63,0.81,5.07,2.03,7.28,3.67c0.18,0.14,0.37,0.28,0.55,0.42c0.89,0.7,1.83,1.37,2.64,2.15
		c1.38,1.32,2.65,2.76,3.69,4.37c0.64,0.99,1.22,2.02,1.76,3.07c1.48,2.83,2.32,5.86,2.66,9.03C92.53,31.1,92.38,33.88,91.7,36.61z"
		/>
	<g>
		<linearGradient id="SVGID_1_" gradientUnits="userSpaceOnUse" x1="51.6885" y1="56.8454" x2="51.6885" y2="25.5208">
			<stop  offset="0.3691" style="stop-color:#11555C"/>
			<stop  offset="1" style="stop-color:#37C3B5"/>
		</linearGradient>
		<path class="st1" d="M64.65,40.48c-0.03-0.68-0.02-1.35-0.05-2.03c-0.01-0.27-0.08-0.54-0.15-0.81c-0.12-0.43-0.39-0.69-0.85-0.73
			c-0.51-0.04-1.01-0.12-1.51-0.15c-0.35-0.02-0.59-0.15-0.75-0.47c-0.25-0.51-0.51-1.03-0.82-1.5c-0.29-0.45-0.2-0.8,0.07-1.22
			c0.29-0.44,0.5-0.93,0.74-1.4c0.22-0.44,0.13-0.84-0.24-1.14c-0.73-0.6-1.47-1.21-2.25-1.76c-0.48-0.34-0.62-0.29-1.07,0.07
			c-0.44,0.36-0.88,0.73-1.31,1.1c-0.21,0.18-0.43,0.22-0.7,0.13c-0.56-0.19-1.12-0.38-1.7-0.52c-0.4-0.1-0.61-0.29-0.71-0.7
			c-0.14-0.57-0.36-1.13-0.53-1.69c-0.11-0.37-0.35-0.55-0.73-0.59c-1.02-0.11-2.02,0.06-3.02,0.24c-0.33,0.06-0.51,0.29-0.54,0.62
			c-0.06,0.59-0.13,1.18-0.15,1.77c-0.02,0.45-0.2,0.71-0.68,0.87c-0.42,0.14-0.82,0.35-1.19,0.61c-0.42,0.29-0.77,0.32-1.16,0.07
			c-0.43-0.27-0.89-0.49-1.34-0.72c-0.07-0.04-0.15-0.07-0.23-0.1c-0.28-0.11-0.6-0.08-0.84,0.1c-0.04,0.03-0.08,0.06-0.12,0.1
			c-0.58,0.64-1.16,1.29-1.69,1.97c-0.51,0.66-0.48,0.9,0.04,1.58c0.3,0.39,0.6,0.77,0.91,1.14c0.22,0.27,0.26,0.55,0.13,0.88
			c-0.18,0.43-0.35,0.87-0.46,1.32c-0.12,0.53-0.44,0.78-0.95,0.88c-0.46,0.09-0.91,0.2-1.35,0.34c-0.42,0.13-0.7,0.43-0.69,0.88
			c0.03,0.93,0.08,1.86,0.15,2.78c0.04,0.47,0.31,0.78,0.79,0.86c0.56,0.09,1.13,0.19,1.69,0.26c0.34,0.04,0.57,0.18,0.71,0.5
			c0.23,0.5,0.48,0.99,0.76,1.46c0.15,0.27,0.11,0.48-0.04,0.73c-0.28,0.45-0.56,0.91-0.8,1.39c-0.25,0.48-0.14,1.07,0.26,1.43
			c0.55,0.49,1.14,0.94,1.72,1.4c0.66,0.52,0.79,0.53,1.5,0.03c0.41-0.29,0.8-0.62,1.19-0.94c0.29-0.24,0.56-0.3,0.99-0.05
			c0.36,0.21,0.76,0.34,1.18,0.4c0.57,0.09,0.81,0.35,0.91,0.83c0.1,0.48,0.24,0.94,0.39,1.4c0.15,0.46,0.46,0.76,0.99,0.73
			c0.9-0.05,1.81-0.07,2.71-0.15c0.44-0.04,0.8-0.37,0.88-0.8c0.08-0.44,0.16-0.9,0.14-1.34c-0.03-0.58,0.22-0.9,0.74-1.1
			c0.43-0.17,0.86-0.36,1.26-0.6c0.36-0.22,0.65-0.2,0.99,0.03c0.42,0.28,0.87,0.52,1.3,0.8c0.39,0.25,0.73,0.22,1.11-0.04
			c0.84-0.58,1.41-1.39,1.97-2.21c0.32-0.47,0.3-0.91-0.04-1.34c-0.28-0.35-0.55-0.7-0.86-1.02c-0.33-0.35-0.41-0.7-0.22-1.15
			c0.18-0.43,0.36-0.86,0.46-1.32c0.1-0.47,0.37-0.65,0.81-0.75c0.57-0.13,1.13-0.32,1.7-0.5C64.48,41.21,64.67,40.93,64.65,40.48z
			 M51.69,47.13c-3.97,0-7.19-3.22-7.19-7.19c0-3.97,3.22-7.19,7.19-7.19c3.97,0,7.19,3.22,7.19,7.19
			C58.88,43.91,55.66,47.13,51.69,47.13z"/>
		
			<linearGradient id="SVGID_00000067938902862398769120000015885800017152834714_" gradientUnits="userSpaceOnUse" x1="51.6886" y1="56.8454" x2="51.6886" y2="25.5208">
			<stop  offset="0.3691" style="stop-color:#11555C"/>
			<stop  offset="1" style="stop-color:#37C3B5"/>
		</linearGradient>
		<path style="fill:url(#SVGID_00000067938902862398769120000015885800017152834714_);" d="M51.69,34.17
			c-3.18,0-5.77,2.58-5.77,5.77c0,3.18,2.58,5.77,5.77,5.77c3.19,0,5.77-2.58,5.77-5.77C57.45,36.75,54.87,34.17,51.69,34.17z
			 M51.69,44.23c-2.37,0-4.29-1.92-4.29-4.3c0-2.37,1.92-4.3,4.29-4.3c2.37,0,4.3,1.92,4.3,4.3C55.98,42.31,54.06,44.23,51.69,44.23
			z"/>
	</g>
	<g>
		<g>
			
				<linearGradient id="SVGID_00000036218976745933396460000005862616983455622538_" gradientUnits="userSpaceOnUse" x1="77.0972" y1="13.6963" x2="77.0972" y2="41.0633">
				<stop  offset="0" style="stop-color:#F8A074"/>
				<stop  offset="1" style="stop-color:#F56A4C"/>
			</linearGradient>
			<path style="fill:url(#SVGID_00000036218976745933396460000005862616983455622538_);" d="M91.26,30.27
				c-0.01-0.74,0.04-1.49,0.04-2.23c0-0.3-0.06-0.6-0.13-0.89c-0.11-0.47-0.4-0.77-0.9-0.84c-0.55-0.07-1.1-0.18-1.65-0.23
				c-0.38-0.04-0.64-0.19-0.81-0.55c-0.25-0.57-0.51-1.15-0.83-1.69c-0.3-0.51-0.19-0.89,0.13-1.33c0.34-0.47,0.59-1,0.87-1.5
				c0.27-0.47,0.18-0.91-0.21-1.26c-0.78-0.69-1.56-1.39-2.38-2.03c-0.51-0.39-0.66-0.35-1.18,0.03c-0.5,0.37-1,0.76-1.49,1.14
				c-0.24,0.19-0.48,0.22-0.78,0.11c-0.61-0.23-1.22-0.46-1.84-0.64c-0.43-0.13-0.65-0.35-0.75-0.8c-0.13-0.64-0.34-1.25-0.5-1.88
				c-0.11-0.41-0.35-0.62-0.77-0.68c-1.12-0.17-2.22-0.02-3.33,0.13c-0.37,0.05-0.57,0.29-0.62,0.65c-0.09,0.64-0.2,1.28-0.25,1.93
				c-0.04,0.49-0.25,0.77-0.78,0.92c-0.47,0.14-0.92,0.35-1.33,0.61c-0.48,0.3-0.85,0.31-1.28,0.02c-0.46-0.31-0.95-0.58-1.43-0.85
				c-0.08-0.04-0.16-0.08-0.25-0.12c-0.3-0.13-0.65-0.11-0.93,0.07c-0.05,0.03-0.09,0.07-0.13,0.11c-0.67,0.68-1.33,1.36-1.94,2.09
				c-0.59,0.7-0.56,0.96-0.02,1.73c0.31,0.44,0.62,0.87,0.94,1.3c0.23,0.31,0.26,0.61,0.1,0.97c-0.21,0.46-0.43,0.93-0.56,1.42
				c-0.16,0.58-0.52,0.83-1.08,0.92c-0.5,0.08-1.01,0.18-1.5,0.31c-0.47,0.12-0.79,0.43-0.79,0.94c-0.01,1.02,0.01,2.04,0.04,3.06
				c0.02,0.52,0.3,0.87,0.83,0.98c0.61,0.13,1.22,0.26,1.84,0.36c0.37,0.06,0.62,0.22,0.76,0.58c0.22,0.56,0.49,1.1,0.77,1.64
				c0.16,0.3,0.1,0.54-0.08,0.8c-0.33,0.48-0.65,0.98-0.94,1.49c-0.29,0.52-0.2,1.16,0.22,1.58c0.58,0.56,1.2,1.09,1.82,1.62
				c0.7,0.6,0.84,0.62,1.65,0.1c0.47-0.3,0.91-0.64,1.35-0.98c0.33-0.25,0.63-0.3,1.09-0.01c0.39,0.25,0.82,0.4,1.27,0.5
				c0.62,0.13,0.87,0.42,0.96,0.95c0.08,0.53,0.22,1.05,0.36,1.56c0.15,0.51,0.47,0.85,1.05,0.85c0.99-0.01,1.99,0.01,2.98-0.04
				c0.49-0.02,0.9-0.37,1-0.84c0.11-0.48,0.21-0.98,0.21-1.47c0-0.64,0.28-0.98,0.86-1.17c0.48-0.16,0.96-0.36,1.41-0.6
				c0.41-0.22,0.73-0.18,1.08,0.08c0.45,0.33,0.93,0.61,1.39,0.93c0.41,0.29,0.79,0.28,1.22,0.01c0.95-0.59,1.61-1.46,2.26-2.33
				c0.38-0.5,0.37-0.98,0.02-1.47c-0.29-0.39-0.57-0.79-0.89-1.15c-0.35-0.4-0.42-0.79-0.19-1.27c0.22-0.46,0.44-0.93,0.56-1.42
				c0.13-0.52,0.44-0.7,0.92-0.78c0.64-0.11,1.26-0.3,1.88-0.47C91.05,31.07,91.27,30.77,91.26,30.27z M76.75,36.96
				c-4.35-0.18-7.73-3.86-7.55-8.21c0.18-4.35,3.86-7.73,8.21-7.55c4.35,0.18,7.73,3.86,7.55,8.21
				C84.78,33.76,81.11,37.15,76.75,36.96z"/>
			
				<linearGradient id="SVGID_00000048465147631121873070000015212998209091664266_" gradientUnits="userSpaceOnUse" x1="77.0838" y1="13.6963" x2="77.0838" y2="41.0633">
				<stop  offset="0" style="stop-color:#F8A074"/>
				<stop  offset="1" style="stop-color:#F56A4C"/>
			</linearGradient>
			<path style="fill:url(#SVGID_00000048465147631121873070000015212998209091664266_);" d="M77.35,22.76
				c-3.49-0.15-6.44,2.56-6.59,6.06c-0.15,3.49,2.56,6.44,6.06,6.59c3.49,0.15,6.44-2.57,6.59-6.06
				C83.55,25.85,80.84,22.91,77.35,22.76z M76.89,33.79c-2.6-0.11-4.62-2.31-4.51-4.91c0.11-2.6,2.31-4.62,4.91-4.51
				c2.6,0.11,4.62,2.31,4.51,4.91C81.68,31.88,79.49,33.9,76.89,33.79z"/>
		</g>
	</g>
	<g>
		
			<linearGradient id="SVGID_00000143600454396913100950000006596006576558551228_" gradientUnits="userSpaceOnUse" x1="69.9949" y1="58.7993" x2="69.9949" y2="42.0764">
			<stop  offset="0.3691" style="stop-color:#11555C"/>
			<stop  offset="1" style="stop-color:#37C3B5"/>
		</linearGradient>
		<path style="fill:url(#SVGID_00000143600454396913100950000006596006576558551228_);" d="M77.66,51.29
			c0.01-0.4,0.05-0.81,0.07-1.21c0-0.16-0.02-0.33-0.05-0.49c-0.05-0.26-0.2-0.43-0.47-0.47c-0.3-0.05-0.59-0.12-0.89-0.16
			c-0.21-0.03-0.35-0.12-0.43-0.32c-0.13-0.32-0.25-0.63-0.42-0.93c-0.15-0.28-0.08-0.49,0.1-0.72c0.19-0.25,0.34-0.53,0.5-0.8
			c0.15-0.25,0.11-0.49-0.09-0.69c-0.41-0.39-0.82-0.78-1.25-1.15c-0.27-0.22-0.35-0.2-0.64-0.01c-0.28,0.19-0.56,0.39-0.83,0.59
			c-0.14,0.1-0.27,0.11-0.42,0.04c-0.32-0.14-0.65-0.28-0.99-0.39c-0.23-0.08-0.35-0.2-0.39-0.45c-0.06-0.35-0.16-0.69-0.24-1.03
			c-0.05-0.22-0.18-0.34-0.41-0.38c-0.6-0.11-1.21-0.06-1.81,0c-0.2,0.02-0.32,0.15-0.35,0.34c-0.06,0.35-0.13,0.69-0.17,1.04
			c-0.03,0.26-0.15,0.41-0.44,0.49c-0.26,0.07-0.5,0.17-0.74,0.31c-0.26,0.15-0.47,0.15-0.7-0.01c-0.24-0.18-0.5-0.33-0.76-0.49
			c-0.04-0.03-0.09-0.05-0.13-0.07c-0.16-0.08-0.35-0.07-0.51,0.02c-0.03,0.02-0.05,0.03-0.07,0.06c-0.38,0.35-0.75,0.71-1.1,1.1
			c-0.33,0.37-0.32,0.51-0.05,0.94c0.16,0.24,0.32,0.48,0.49,0.72c0.12,0.17,0.13,0.34,0.03,0.53c-0.12,0.25-0.25,0.5-0.33,0.76
			c-0.1,0.31-0.3,0.44-0.6,0.48c-0.28,0.03-0.55,0.08-0.82,0.14c-0.26,0.06-0.44,0.22-0.45,0.49c-0.02,0.55-0.04,1.11-0.04,1.66
			c0,0.28,0.15,0.48,0.43,0.55c0.33,0.08,0.66,0.17,0.99,0.23c0.2,0.04,0.33,0.13,0.4,0.33c0.11,0.31,0.24,0.61,0.38,0.9
			c0.08,0.17,0.05,0.29-0.06,0.43c-0.19,0.26-0.37,0.52-0.54,0.79c-0.17,0.27-0.13,0.63,0.09,0.86c0.3,0.32,0.63,0.61,0.96,0.91
			c0.37,0.34,0.45,0.35,0.89,0.09c0.26-0.15,0.51-0.33,0.75-0.51c0.19-0.13,0.35-0.15,0.59,0.01c0.2,0.14,0.44,0.24,0.68,0.29
			c0.33,0.08,0.47,0.25,0.5,0.54c0.04,0.29,0.1,0.57,0.17,0.85c0.07,0.28,0.24,0.47,0.55,0.48c0.54,0.01,1.08,0.04,1.62,0.04
			c0.26,0,0.5-0.18,0.56-0.44c0.07-0.26,0.13-0.53,0.14-0.79c0.01-0.35,0.17-0.52,0.49-0.62c0.27-0.08,0.53-0.18,0.77-0.3
			c0.22-0.11,0.4-0.09,0.59,0.07c0.24,0.19,0.49,0.35,0.73,0.53c0.22,0.17,0.42,0.17,0.66,0.03c0.53-0.3,0.9-0.76,1.28-1.22
			c0.21-0.27,0.22-0.52,0.04-0.8c-0.15-0.22-0.3-0.44-0.46-0.64c-0.18-0.22-0.21-0.44-0.08-0.69c0.13-0.25,0.26-0.5,0.33-0.76
			c0.08-0.28,0.25-0.37,0.52-0.41c0.35-0.05,0.69-0.14,1.03-0.22C77.53,51.72,77.66,51.56,77.66,51.29z M69.65,54.64
			c-2.36-0.18-4.12-2.25-3.94-4.61c0.18-2.36,2.25-4.12,4.61-3.94c2.36,0.18,4.12,2.25,3.94,4.61
			C74.08,53.06,72.01,54.82,69.65,54.64z"/>
		
			<linearGradient id="SVGID_00000098184566233938141100000005655880041560701110_" gradientUnits="userSpaceOnUse" x1="69.986" y1="58.7993" x2="69.986" y2="42.0764">
			<stop  offset="0.3691" style="stop-color:#11555C"/>
			<stop  offset="1" style="stop-color:#37C3B5"/>
		</linearGradient>
		<path style="fill:url(#SVGID_00000098184566233938141100000005655880041560701110_);" d="M70.25,46.94
			c-1.89-0.15-3.55,1.27-3.69,3.16c-0.15,1.89,1.27,3.55,3.16,3.69c1.89,0.15,3.55-1.27,3.69-3.16
			C73.56,48.74,72.15,47.09,70.25,46.94z M69.79,52.92c-1.41-0.11-2.46-1.34-2.35-2.75c0.11-1.41,1.34-2.46,2.75-2.35
			c1.41,0.11,2.46,1.34,2.36,2.75C72.43,51.98,71.2,53.03,69.79,52.92z"/>
	</g>
	<g>
		
			<linearGradient id="SVGID_00000134247554514244537000000015374575722737559191_" gradientUnits="userSpaceOnUse" x1="57.6569" y1="50.1695" x2="57.6569" y2="62.2198">
			<stop  offset="0" style="stop-color:#F8A074"/>
			<stop  offset="1" style="stop-color:#F56A4C"/>
		</linearGradient>
		<path style="fill:url(#SVGID_00000134247554514244537000000015374575722737559191_);" d="M62.86,57.46
			c-0.01-0.27,0-0.54-0.01-0.82c0-0.11-0.03-0.22-0.06-0.33c-0.04-0.17-0.15-0.28-0.34-0.3c-0.2-0.02-0.4-0.05-0.61-0.07
			c-0.14-0.01-0.24-0.06-0.3-0.2c-0.1-0.21-0.2-0.42-0.32-0.61c-0.11-0.18-0.08-0.32,0.04-0.49c0.12-0.17,0.21-0.37,0.31-0.56
			c0.09-0.18,0.06-0.34-0.09-0.46c-0.29-0.25-0.58-0.49-0.89-0.72c-0.19-0.14-0.25-0.12-0.43,0.02c-0.18,0.14-0.36,0.29-0.54,0.43
			c-0.09,0.07-0.17,0.08-0.28,0.05c-0.22-0.08-0.45-0.16-0.68-0.22c-0.16-0.04-0.24-0.12-0.28-0.29c-0.05-0.23-0.14-0.46-0.2-0.68
			c-0.04-0.15-0.14-0.22-0.29-0.24c-0.41-0.05-0.81,0.01-1.22,0.08c-0.13,0.02-0.21,0.11-0.22,0.24c-0.03,0.24-0.06,0.47-0.07,0.71
			c-0.01,0.18-0.08,0.28-0.28,0.35c-0.17,0.05-0.33,0.14-0.48,0.24c-0.17,0.11-0.31,0.12-0.47,0.02c-0.17-0.11-0.35-0.2-0.53-0.3
			c-0.03-0.02-0.06-0.03-0.09-0.04c-0.11-0.05-0.24-0.03-0.34,0.03c-0.02,0.01-0.03,0.03-0.05,0.04c-0.24,0.25-0.48,0.51-0.69,0.78
			c-0.21,0.26-0.2,0.36,0.01,0.63c0.12,0.16,0.24,0.31,0.36,0.47c0.09,0.11,0.1,0.22,0.04,0.36c-0.07,0.17-0.15,0.35-0.19,0.53
			c-0.05,0.21-0.18,0.31-0.39,0.35c-0.18,0.03-0.37,0.08-0.55,0.13c-0.17,0.05-0.28,0.17-0.28,0.35c0.01,0.37,0.02,0.75,0.04,1.12
			c0.01,0.19,0.12,0.32,0.31,0.35c0.23,0.04,0.45,0.09,0.68,0.11c0.14,0.02,0.23,0.07,0.28,0.21c0.09,0.2,0.19,0.4,0.3,0.59
			c0.06,0.11,0.04,0.2-0.02,0.29c-0.12,0.18-0.23,0.36-0.33,0.55c-0.1,0.19-0.06,0.43,0.1,0.57c0.22,0.2,0.45,0.39,0.68,0.57
			c0.26,0.21,0.32,0.22,0.6,0.02c0.17-0.11,0.33-0.24,0.49-0.37c0.12-0.1,0.23-0.12,0.4-0.01c0.14,0.09,0.3,0.14,0.47,0.17
			c0.23,0.04,0.32,0.15,0.36,0.34c0.04,0.19,0.09,0.38,0.15,0.57c0.06,0.19,0.18,0.31,0.39,0.3c0.36-0.01,0.73-0.02,1.09-0.04
			c0.18-0.01,0.33-0.14,0.36-0.32c0.03-0.18,0.07-0.36,0.06-0.54c-0.01-0.23,0.09-0.36,0.3-0.44c0.18-0.06,0.35-0.14,0.51-0.23
			c0.15-0.09,0.26-0.07,0.4,0.02c0.17,0.12,0.35,0.21,0.52,0.33c0.15,0.1,0.29,0.09,0.45-0.01c0.34-0.23,0.58-0.55,0.81-0.87
			c0.13-0.19,0.13-0.36-0.01-0.54c-0.11-0.14-0.22-0.28-0.34-0.41c-0.13-0.14-0.16-0.29-0.08-0.46c0.08-0.17,0.15-0.34,0.19-0.53
			c0.04-0.19,0.15-0.26,0.33-0.3c0.23-0.05,0.46-0.12,0.69-0.19C62.79,57.75,62.87,57.64,62.86,57.46z M57.61,60.04
			c-1.6-0.03-2.87-1.34-2.84-2.94c0.03-1.6,1.34-2.87,2.94-2.84c1.6,0.03,2.87,1.34,2.84,2.94C60.52,58.8,59.21,60.07,57.61,60.04z"
			/>
		
			<linearGradient id="SVGID_00000162321223410183255170000014434215607521839535_" gradientUnits="userSpaceOnUse" x1="57.6578" y1="50.1695" x2="57.6578" y2="62.2198">
			<stop  offset="0" style="stop-color:#F8A074"/>
			<stop  offset="1" style="stop-color:#F56A4C"/>
		</linearGradient>
		<path style="fill:url(#SVGID_00000162321223410183255170000014434215607521839535_);" d="M57.7,54.84c-1.28-0.02-2.33,1-2.36,2.28
			c-0.02,1.28,1,2.33,2.28,2.36c1.28,0.02,2.33-1,2.36-2.28C60,55.91,58.98,54.86,57.7,54.84z M57.63,58.88
			c-0.95-0.02-1.71-0.8-1.7-1.75c0.02-0.95,0.8-1.71,1.75-1.7c0.95,0.02,1.71,0.8,1.7,1.75C59.37,58.14,58.58,58.9,57.63,58.88z"/>
	</g>
	<g>
		
			<linearGradient id="SVGID_00000046302608187287707550000006695693603927501955_" gradientUnits="userSpaceOnUse" x1="55.352" y1="8.1602" x2="55.352" y2="25.439">
			<stop  offset="0" style="stop-color:#F8A074"/>
			<stop  offset="1" style="stop-color:#F56A4C"/>
		</linearGradient>
		<path style="fill:url(#SVGID_00000046302608187287707550000006695693603927501955_);" d="M64.77,17.15
			c-0.08-0.49-0.12-0.98-0.2-1.47c-0.03-0.2-0.1-0.39-0.17-0.57c-0.12-0.3-0.34-0.47-0.68-0.46c-0.37,0.01-0.74-0.01-1.11,0.01
			c-0.26,0.01-0.44-0.06-0.58-0.28c-0.22-0.35-0.45-0.7-0.71-1.02c-0.25-0.3-0.21-0.56-0.04-0.89c0.18-0.34,0.29-0.71,0.42-1.07
			c0.13-0.34,0.03-0.62-0.26-0.81c-0.58-0.38-1.16-0.76-1.77-1.09C59.3,9.3,59.2,9.34,58.9,9.64c-0.29,0.3-0.58,0.6-0.86,0.9
			c-0.14,0.15-0.3,0.19-0.5,0.15c-0.42-0.09-0.84-0.18-1.27-0.24c-0.3-0.04-0.46-0.16-0.57-0.45c-0.15-0.4-0.35-0.79-0.52-1.19
			c-0.11-0.26-0.29-0.37-0.58-0.37c-0.75,0-1.46,0.21-2.17,0.41c-0.24,0.07-0.35,0.25-0.34,0.49c0,0.43,0,0.86,0.03,1.29
			c0.02,0.32-0.09,0.53-0.42,0.68c-0.3,0.14-0.57,0.32-0.81,0.53c-0.28,0.24-0.53,0.29-0.84,0.14c-0.33-0.16-0.68-0.28-1.03-0.42
			c-0.06-0.02-0.11-0.04-0.18-0.06c-0.21-0.06-0.44-0.01-0.6,0.14c-0.03,0.03-0.05,0.05-0.08,0.08c-0.37,0.51-0.74,1.03-1.07,1.56
			c-0.32,0.52-0.27,0.69,0.16,1.14c0.24,0.26,0.49,0.51,0.75,0.76c0.18,0.18,0.23,0.38,0.16,0.63c-0.09,0.33-0.19,0.66-0.23,0.99
			c-0.05,0.4-0.26,0.6-0.62,0.71c-0.32,0.1-0.64,0.22-0.95,0.35c-0.3,0.13-0.47,0.36-0.43,0.7c0.1,0.67,0.21,1.34,0.33,2
			c0.06,0.34,0.28,0.54,0.64,0.56c0.41,0.02,0.83,0.05,1.25,0.05c0.25,0,0.43,0.08,0.56,0.31c0.2,0.34,0.43,0.68,0.67,1
			c0.13,0.18,0.12,0.34,0.03,0.53c-0.17,0.35-0.33,0.71-0.47,1.07c-0.14,0.37-0.02,0.78,0.3,1.01c0.44,0.31,0.9,0.59,1.35,0.88
			c0.52,0.33,0.62,0.32,1.09-0.1c0.28-0.24,0.53-0.51,0.79-0.78c0.19-0.2,0.38-0.26,0.71-0.12c0.28,0.12,0.58,0.18,0.88,0.2
			c0.42,0.02,0.61,0.19,0.72,0.53c0.11,0.34,0.25,0.67,0.39,0.99c0.15,0.32,0.39,0.51,0.77,0.45c0.65-0.11,1.3-0.19,1.95-0.32
			c0.32-0.06,0.55-0.33,0.57-0.65c0.02-0.33,0.04-0.66-0.01-0.98c-0.07-0.42,0.08-0.67,0.45-0.86c0.3-0.16,0.59-0.33,0.86-0.54
			c0.24-0.19,0.46-0.19,0.72-0.05c0.33,0.17,0.67,0.31,1,0.47c0.3,0.15,0.55,0.1,0.8-0.12c0.56-0.48,0.91-1.12,1.25-1.76
			c0.2-0.37,0.15-0.68-0.14-0.97c-0.23-0.23-0.45-0.46-0.7-0.67c-0.27-0.22-0.36-0.48-0.25-0.82c0.1-0.32,0.19-0.65,0.23-0.99
			c0.04-0.35,0.22-0.5,0.53-0.61c0.41-0.14,0.8-0.32,1.19-0.5C64.7,17.7,64.82,17.48,64.77,17.15z M55.91,23
			c-2.87,0.32-5.46-1.76-5.78-4.64c-0.32-2.88,1.76-5.46,4.64-5.78c2.88-0.32,5.46,1.76,5.78,4.64C60.86,20.1,58.79,22.68,55.91,23z
			"/>
		
			<linearGradient id="SVGID_00000157988792334115448650000005209121519721477820_" gradientUnits="userSpaceOnUse" x1="55.3414" y1="8.1602" x2="55.3414" y2="25.439">
			<stop  offset="0" style="stop-color:#F8A074"/>
			<stop  offset="1" style="stop-color:#F56A4C"/>
		</linearGradient>
		<path style="fill:url(#SVGID_00000157988792334115448650000005209121519721477820_);" d="M54.88,13.62
			c-2.31,0.25-3.97,2.33-3.72,4.63c0.25,2.31,2.33,3.97,4.63,3.72c2.31-0.25,3.97-2.33,3.72-4.63
			C59.26,15.03,57.19,13.36,54.88,13.62z M55.68,20.9c-1.72,0.19-3.26-1.05-3.45-2.77c-0.19-1.72,1.05-3.26,2.77-3.45
			c1.72-0.19,3.26,1.05,3.45,2.77C58.64,19.17,57.4,20.71,55.68,20.9z"/>
	</g>
	<path class="st11" d="M82.81,116.22c-0.7,1.25-2.17,1.89-3.56,1.54c-0.78-0.2-1.6-0.74-2.07-2.03v5.63c0,2.37-1.24,4.44-3.1,5.62
		c-0.38,0.24-0.79,0.45-1.22,0.61c-0.72,0.27-1.51,0.42-2.32,0.42H57.17c-0.82,0-1.6-0.15-2.32-0.42c-0.43-0.16-0.84-0.37-1.22-0.61
		c-1.86-1.18-3.1-3.25-3.1-5.62v-5.63c-0.47,1.3-1.29,1.84-2.07,2.03c-1.39,0.35-2.86-0.29-3.56-1.54c-1.25-2.25,0.4-5.4,0.4-5.4
		l3.23-6.54l15.12-0.39l0.2-0.01h0l0.2,0.01l15.12,0.39l3.23,6.54C82.41,110.82,84.06,113.97,82.81,116.22z"/>
	<g>
		
			<linearGradient id="SVGID_00000012467695078212023460000018359540772867001751_" gradientUnits="userSpaceOnUse" x1="39.9782" y1="118.5774" x2="68.6519" y2="94.315">
			<stop  offset="0" style="stop-color:#DD532D"/>
			<stop  offset="1" style="stop-color:#FEC474"/>
		</linearGradient>
		<polygon style="fill:url(#SVGID_00000012467695078212023460000018359540772867001751_);" points="55.68,104.39 49.92,104.39 
			56.13,110.69 		"/>
		
			<linearGradient id="SVGID_00000080884980996448881250000017115337886691330981_" gradientUnits="userSpaceOnUse" x1="41.0639" y1="119.8604" x2="69.7375" y2="95.5981">
			<stop  offset="0" style="stop-color:#DD532D"/>
			<stop  offset="1" style="stop-color:#FEC474"/>
		</linearGradient>
		<polygon style="fill:url(#SVGID_00000080884980996448881250000017115337886691330981_);" points="56.39,114.28 56.27,112.63 
			49.32,105.48 50.49,116.28 50.53,119.02 		"/>
		
			<linearGradient id="SVGID_00000013900207409246560050000002412026788525868431_" gradientUnits="userSpaceOnUse" x1="47.6508" y1="127.645" x2="76.3245" y2="103.3826">
			<stop  offset="0" style="stop-color:#DD532D"/>
			<stop  offset="1" style="stop-color:#FEC474"/>
		</linearGradient>
		<polygon style="fill:url(#SVGID_00000013900207409246560050000002412026788525868431_);" points="57.1,124.15 56.5,115.83 
			51.49,119.9 		"/>
		
			<linearGradient id="SVGID_00000072968963874892400340000009199529878374368387_" gradientUnits="userSpaceOnUse" x1="47.6137" y1="127.6011" x2="76.2874" y2="103.3388">
			<stop  offset="0" style="stop-color:#DD532D"/>
			<stop  offset="1" style="stop-color:#FEC474"/>
		</linearGradient>
		<path style="fill:url(#SVGID_00000072968963874892400340000009199529878374368387_);" d="M50.53,120.67v0.69
			c0,2.37,1.24,4.44,3.1,5.62c0.86-0.71,2.42-2.04,2.42-2.04L50.53,120.67z"/>
		
			<linearGradient id="SVGID_00000065758992605022118910000014205515355135291029_" gradientUnits="userSpaceOnUse" x1="51.2475" y1="131.8956" x2="79.9212" y2="107.6333">
			<stop  offset="0" style="stop-color:#DD532D"/>
			<stop  offset="1" style="stop-color:#FEC474"/>
		</linearGradient>
		<path style="fill:url(#SVGID_00000065758992605022118910000014205515355135291029_);" d="M56.93,125.79l-2.08,1.79
			c0.72,0.27,1.51,0.42,2.32,0.42h0.21l-0.13-1.85L56.93,125.79z"/>
		
			<linearGradient id="SVGID_00000141432159949432934120000009555821011910522009_" gradientUnits="userSpaceOnUse" x1="47.6168" y1="127.6048" x2="76.2905" y2="103.3425">
			<stop  offset="0" style="stop-color:#DD532D"/>
			<stop  offset="1" style="stop-color:#FEC474"/>
		</linearGradient>
		<polygon style="fill:url(#SVGID_00000141432159949432934120000009555821011910522009_);" points="57.94,114.43 58.32,122.99 
			62.97,118.89 		"/>
		
			<linearGradient id="SVGID_00000023981981938514120050000018429012830167840651_" gradientUnits="userSpaceOnUse" x1="42.4067" y1="121.4473" x2="71.0803" y2="97.185">
			<stop  offset="0" style="stop-color:#DD532D"/>
			<stop  offset="1" style="stop-color:#FEC474"/>
		</linearGradient>
		<polygon style="fill:url(#SVGID_00000023981981938514120050000018429012830167840651_);" points="62.87,108.9 57.31,104.39 
			56.93,104.39 57.63,112.25 58.12,112.75 		"/>
		
			<linearGradient id="SVGID_00000132055837326512575890000003953357365252219291_" gradientUnits="userSpaceOnUse" x1="42.9429" y1="122.0811" x2="71.6166" y2="97.8188">
			<stop  offset="0" style="stop-color:#DD532D"/>
			<stop  offset="1" style="stop-color:#FEC474"/>
		</linearGradient>
		<polygon style="fill:url(#SVGID_00000132055837326512575890000003953357365252219291_);" points="63.85,108.2 63.85,108.2 
			63.85,108.2 63.85,108.2 63.85,108.19 63.85,108.2 63.85,108.2 63.85,108.2 63.85,108.2 63.85,108.2 68.49,104.39 63.85,104.39 
			63.85,104.39 59.22,104.39 63.85,108.2 		"/>
		
			<linearGradient id="SVGID_00000158723569029630888860000010608833442341394831_" gradientUnits="userSpaceOnUse" x1="47.8109" y1="127.8342" x2="76.4846" y2="103.5719">
			<stop  offset="0" style="stop-color:#DD532D"/>
			<stop  offset="1" style="stop-color:#FEC474"/>
		</linearGradient>
		<polygon style="fill:url(#SVGID_00000158723569029630888860000010608833442341394831_);" points="72.02,104.39 71.57,110.69 
			77.79,104.39 		"/>
		
			<linearGradient id="SVGID_00000124153192179530351000000010727060732943864230_" gradientUnits="userSpaceOnUse" x1="52.6306" y1="133.5302" x2="81.3043" y2="109.2679">
			<stop  offset="0" style="stop-color:#DD532D"/>
			<stop  offset="1" style="stop-color:#FEC474"/>
		</linearGradient>
		<polygon style="fill:url(#SVGID_00000124153192179530351000000010727060732943864230_);" points="71.43,112.63 71.31,114.28 
			77.18,119.02 77.22,116.28 78.38,105.48 		"/>
		
			<linearGradient id="SVGID_00000063592421885896344030000011737914648552908990_" gradientUnits="userSpaceOnUse" x1="53.7021" y1="134.7964" x2="82.3757" y2="110.5341">
			<stop  offset="0" style="stop-color:#DD532D"/>
			<stop  offset="1" style="stop-color:#FEC474"/>
		</linearGradient>
		<polygon style="fill:url(#SVGID_00000063592421885896344030000011737914648552908990_);" points="76.22,119.9 71.2,115.83 
			70.6,124.15 		"/>
		
			<linearGradient id="SVGID_00000059289523221869117740000012966302507599985564_" gradientUnits="userSpaceOnUse" x1="57.3613" y1="139.121" x2="86.035" y2="114.8587">
			<stop  offset="0" style="stop-color:#DD532D"/>
			<stop  offset="1" style="stop-color:#FEC474"/>
		</linearGradient>
		<path style="fill:url(#SVGID_00000059289523221869117740000012966302507599985564_);" d="M74.08,126.97
			c1.86-1.18,3.1-3.25,3.1-5.62v-0.69l-5.51,4.26C71.67,124.93,73.22,126.26,74.08,126.97z"/>
		
			<linearGradient id="SVGID_00000112619921363877883650000008357410301082419862_" gradientUnits="userSpaceOnUse" x1="57.2619" y1="139.0036" x2="85.9356" y2="114.7412">
			<stop  offset="0" style="stop-color:#DD532D"/>
			<stop  offset="1" style="stop-color:#FEC474"/>
		</linearGradient>
		<path style="fill:url(#SVGID_00000112619921363877883650000008357410301082419862_);" d="M70.46,126.15L70.33,128h0.21
			c0.82,0,1.6-0.15,2.32-0.42l-2.08-1.79L70.46,126.15z"/>
		
			<linearGradient id="SVGID_00000145058678840071487110000006776563401830528905_" gradientUnits="userSpaceOnUse" x1="52.393" y1="133.2494" x2="81.0667" y2="108.9871">
			<stop  offset="0" style="stop-color:#DD532D"/>
			<stop  offset="1" style="stop-color:#FEC474"/>
		</linearGradient>
		<polygon style="fill:url(#SVGID_00000145058678840071487110000006776563401830528905_);" points="69.38,122.99 69.77,114.43 
			64.74,118.89 		"/>
		
			<linearGradient id="SVGID_00000159431386900911777500000005256097827436839857_" gradientUnits="userSpaceOnUse" x1="47.5171" y1="127.487" x2="76.1908" y2="103.2246">
			<stop  offset="0" style="stop-color:#DD532D"/>
			<stop  offset="1" style="stop-color:#FEC474"/>
		</linearGradient>
		<polygon style="fill:url(#SVGID_00000159431386900911777500000005256097827436839857_);" points="70.4,104.39 64.83,108.9 
			69.58,112.75 70.07,112.25 70.78,104.39 		"/>
		
			<linearGradient id="SVGID_00000078751739450164236510000004043808339063620767_" gradientUnits="userSpaceOnUse" x1="53.0782" y1="134.0592" x2="81.7519" y2="109.7969">
			<stop  offset="0" style="stop-color:#DD532D"/>
			<stop  offset="1" style="stop-color:#FEC474"/>
		</linearGradient>
		<polygon style="fill:url(#SVGID_00000078751739450164236510000004043808339063620767_);" points="63.85,119.78 63.85,119.78 
			63.85,119.78 63.85,119.78 63.85,119.78 63.85,119.78 63.85,119.78 63.85,119.78 58.36,124.58 58.36,125.15 61.37,128 63.85,128 
			63.85,128 66.34,128 69.35,125.15 69.35,124.58 63.85,119.78 		"/>
		
			<linearGradient id="SVGID_00000090994602670333264760000011103882459977762746_" gradientUnits="userSpaceOnUse" x1="47.5847" y1="127.5669" x2="76.2584" y2="103.3046">
			<stop  offset="0" style="stop-color:#DD532D"/>
			<stop  offset="1" style="stop-color:#FEC474"/>
		</linearGradient>
		<polygon style="fill:url(#SVGID_00000090994602670333264760000011103882459977762746_);" points="63.85,118.06 63.85,118.06 
			63.85,118.06 68.7,113.63 63.85,109.81 63.85,109.81 63.85,109.81 63.85,109.81 63.85,109.81 63.85,109.81 63.85,109.81 
			63.85,109.81 63.85,109.81 63.85,109.81 63.85,109.81 59.01,113.63 63.85,118.06 63.85,118.06 63.85,118.06 63.85,118.06 
			63.85,118.06 63.85,118.06 63.85,118.06 63.85,118.06 		"/>
	</g>
	<path class="st29" d="M75.72,81.3c0,0.88-0.64,1.66-1.54,1.8l-19.65,3.18c-1,0.16-1.93-0.52-2.1-1.51c-0.16-1,0.52-1.93,1.51-2.1
		l19.65-3.18c1-0.16,1.93,0.52,2.1,1.51C75.72,81.1,75.72,81.2,75.72,81.3z"/>
	<path class="st29" d="M57.55,91.64c0.93,2.71,3.5,4.66,6.52,4.66c3.02,0,5.59-1.95,6.52-4.66H57.55z"/>
	<polygon points="64.45,103.87 64.45,103.89 64.05,103.88 	"/>
	<polygon points="64.05,103.88 63.65,103.89 63.65,103.87 	"/>
	<g>
		<g>
			
				<rect x="55.03" y="90.57" transform="matrix(0.9959 -0.091 0.091 0.9959 -8.5187 5.462)" class="st30" width="1.22" height="11.19"/>
		</g>
	</g>
	<g>
		<g>
			<polygon class="st30" points="73.37,90.45 72.37,101.79 71.15,101.67 72.16,90.65 			"/>
		</g>
	</g>
	<g>
		<g>
			<g>
				
					<rect x="42" y="46.57" transform="matrix(0.9707 -0.2402 0.2402 0.9707 -16.6712 12.4206)" class="st29" width="1.22" height="56.04"/>
			</g>
		</g>
	</g>
	<g>
		<g>
			
				<rect x="56.03" y="72.24" transform="matrix(0.2402 -0.9707 0.9707 0.2402 -5.5023 138.6705)" class="st11" width="59.62" height="1.22"/>
		</g>
	</g>
	<path class="st29" d="M80.86,102.78c0,0.44-0.18,0.84-0.47,1.13c-0.29,0.29-0.69,0.47-1.13,0.47H48.57c-0.89,0-1.6-0.72-1.6-1.6
		c0-0.44,0.18-0.84,0.47-1.13c0.29-0.29,0.69-0.47,1.13-0.47h30.69C80.14,101.18,80.86,101.9,80.86,102.78z"/>
	<path class="st29" d="M75.72,86.56c0,0.88-0.64,1.66-1.54,1.8l-19.65,3.18c-1,0.16-1.93-0.52-2.1-1.51c-0.16-1,0.52-1.94,1.51-2.1
		l19.65-3.18c1-0.16,1.93,0.52,2.1,1.51C75.72,86.36,75.72,86.46,75.72,86.56z"/>
	<path d="M40.26,54.99c-0.12-0.13-0.24-0.25-0.36-0.38C40.04,54.74,40.16,54.87,40.26,54.99z"/>
	<path class="st31" d="M71.25,74.91c-0.3,0.72-0.72,1.49-1.33,2.21h-0.35c0.02-0.03,0.04-0.07,0.05-0.12
		c0.11-0.45,0.09-0.91,0.13-1.37c0.02-0.24,0.05-0.48,0.07-0.72H71.25z"/>
	
		<linearGradient id="SVGID_00000070818234317125608390000014882658344248893884_" gradientUnits="userSpaceOnUse" x1="70.0391" y1="93.5529" x2="84.2911" y2="20.7093">
		<stop  offset="0" style="stop-color:#DD532D"/>
		<stop  offset="1" style="stop-color:#FEC474"/>
	</linearGradient>
	<path style="fill:url(#SVGID_00000070818234317125608390000014882658344248893884_);" d="M96.59,34.44
		c-0.22,2.94-0.88,5.81-1.99,8.56c-0.12,0.3-0.24,0.6-0.37,0.9c0,0,0,0.01-0.01,0.01c0,0,0,0.01-0.01,0.02c0,0,0,0.01-0.01,0.02
		c-0.16,0.36-1.33,2.85-3.26,5.57c-0.63,0.88-1.33,1.79-2.11,2.66c-0.01,0.01-0.02,0.02-0.03,0.04c-0.12,0.13-0.24,0.27-0.37,0.39
		c-1.41,1.41-2.91,2.73-4.37,4.1c-1.21,1.12-2.43,2.24-3.62,3.38c-0.62,0.59-1.17,1.25-1.61,2c-0.86,1.44-1.47,2.97-1.63,4.64
		c-0.1,1.05-0.11,2.1-0.17,3.15c-0.07,1.18-0.08,2.37-0.25,3.53c-0.16,1.09-0.51,2.1-1.16,2.91c0,0.01-0.01,0.01-0.02,0.03
		c-0.49,0.56-1.1,1.04-1.78,1.34c-0.7,0.31-1.46,0.45-2.2,0.57c-0.95,0.15-1.91,0.3-2.86,0.45c0,0-0.01,0-0.01,0l-0.94,0.15
		c0.88-0.49,1.58-1.09,2.12-1.74c0.13-0.15,0.25-0.31,0.37-0.47c0.07-0.09,0.13-0.19,0.2-0.28c0.01-0.01,0.01-0.02,0.02-0.03
		c0.03-0.04,0.06-0.09,0.08-0.13c0.07-0.11,0.13-0.21,0.19-0.32c0.03-0.06,0.06-0.11,0.09-0.17c0.02-0.04,0.04-0.08,0.06-0.12
		c0.03-0.06,0.06-0.12,0.09-0.19c0.03-0.07,0.07-0.15,0.1-0.22c0.01-0.01,0.01-0.03,0.02-0.04c0.02-0.06,0.05-0.11,0.07-0.17
		c0.01-0.02,0.02-0.04,0.02-0.06c0,0,0,0,0,0h0c0.04-0.11,0.08-0.22,0.12-0.33c0.56-1.65,0.66-3.45,0.73-5.23
		c0.03-0.63,0.04-1.25,0.05-1.87c0.01-2.01,0.27-3.98,0.83-5.91c0.61-2.09,1.64-3.95,3.16-5.54c1.43-1.49,3.02-2.8,4.65-4.06
		c2.26-1.75,4.4-3.62,6.2-5.87c2.27-2.82,3.86-5.98,4.74-9.49c0.68-2.73,0.83-5.51,0.53-8.31c-0.34-3.17-1.18-6.2-2.66-9.03
		c-0.54-1.05-1.12-2.08-1.76-3.07c-1.04-1.61-2.31-3.05-3.69-4.37c-0.82-0.78-1.75-1.45-2.64-2.15c-0.18-0.14-0.36-0.28-0.55-0.42
		c-2.21-1.64-4.65-2.87-7.28-3.67c-0.5-0.15-1-0.28-1.5-0.39l0,0c0,0,11.54,0.67,18.52,8.57c0,0,0,0,0,0v0h0
		c0.67,0.95,1.3,1.95,1.89,2.97c1.66,2.9,2.86,6,3.5,9.3C96.59,28.82,96.8,31.63,96.59,34.44z"/>
	<polygon points="90.66,13.78 90.66,13.78 90.66,13.77 	"/>
	
		<linearGradient id="SVGID_00000144295871763160403820000015200934912770960537_" gradientUnits="userSpaceOnUse" x1="60.993" y1="92.7092" x2="60.993" y2="0.7627">
		<stop  offset="0.3691" style="stop-color:#11555C"/>
		<stop  offset="1" style="stop-color:#37C3B5"/>
	</linearGradient>
	<path style="fill:url(#SVGID_00000144295871763160403820000015200934912770960537_);" d="M90.66,13.77
		c-6.98-7.9-18.52-8.57-18.52-8.57c-1.75-0.39-3.56-0.55-5.36-0.64c-2.37-0.12-4.73,0.04-7.05,0.45c-3.97,0.69-7.62,2.2-11,4.37
		c-2.37,1.52-4.41,3.41-6.21,5.57c-1.52,1.82-2.84,3.78-3.87,5.91c-2.34,4.86-3.19,9.97-2.58,15.35c0.47,4.14,1.9,7.89,4.12,11.4
		c1.69,2.66,3.88,4.85,6.14,7c1.04,0.99,2.07,2,3.01,3.08c1.31,1.51,2.37,3.21,3.15,5.07c0.98,2.35,1.38,4.82,1.53,7.34
		c0.05,0.9,0.12,1.8,0.26,2.69c0.17,1.13,0.84,1.91,1.99,2.07c0.12,0.02,0.25,0.03,0.37,0.04h14.59l0,0
		c-0.01,0.02-0.01,0.04-0.02,0.06c-0.02,0.06-0.05,0.12-0.07,0.17c0,0.01-0.01,0.03-0.02,0.04c-0.03,0.07-0.06,0.15-0.1,0.22
		c-0.03,0.06-0.06,0.12-0.09,0.19c-0.02,0.04-0.04,0.08-0.06,0.12c-0.03,0.06-0.06,0.11-0.09,0.17c-0.06,0.11-0.12,0.21-0.19,0.32
		c-0.03,0.04-0.05,0.09-0.08,0.13c-0.01,0.01-0.01,0.02-0.02,0.03c-0.06,0.1-0.13,0.19-0.2,0.28c-0.11,0.16-0.24,0.32-0.37,0.47
		c-0.55,0.64-1.24,1.25-2.12,1.74L54.54,81c-1,0.16-1.94-0.52-2.1-1.51c-0.16-0.96,0.47-1.88,1.42-2.08l-0.62-0.55l-0.01,0
		c-1.25-1.1-1.87-2.52-1.99-4.21c-0.07-1.03-0.14-2.05-0.22-3.08c-0.22-3.03-1.38-5.66-3.54-7.8c-1.34-1.33-2.74-2.59-4.15-3.85
		c-1.06-0.95-2.09-1.91-3.07-2.93c-0.12-0.13-0.24-0.25-0.36-0.38c0,0,0,0-0.01,0c-0.61-0.66-1.19-1.35-1.72-2.08
		c-0.05-0.07-0.11-0.13-0.17-0.2c-1.86-2.56-3.57-5.67-3.68-5.86c0-0.01,0-0.01,0-0.01c-1.48-3.1-2.42-6.36-2.77-9.8
		c-0.14-1.38-0.24-2.78-0.22-4.17c0.04-3.55,0.69-7,1.88-10.34c1.59-4.48,4.07-8.41,7.34-11.85c3.54-3.71,7.72-6.44,12.55-8.2
		c3.03-1.11,6.16-1.73,9.35-2.02c1.88-0.17,3.77-0.03,5.65,0.22c2.97,0.4,5.86,1.12,8.63,2.28c3.22,1.34,6.15,3.15,8.77,5.44
		C87.46,9.74,89.17,11.67,90.66,13.77z"/>
	<g>
		<path class="st11" d="M69.12,74.91v-6.5c0-0.54-0.29-1.06-0.75-1.34l-0.79-0.47c-0.09-0.05-0.15-0.15-0.15-0.26v-2.14
			c0-1.57-1.28-2.85-2.85-2.85c-1.57,0-2.85,1.28-2.85,2.85v2.14c0,0.11-0.06,0.21-0.15,0.26l-0.79,0.47
			c-0.47,0.28-0.75,0.79-0.75,1.34v6.5h-0.9c0,0,0.55,2.18,11.64,0.97c0.17-0.31,0.32-0.64,0.45-0.97H69.12z M61.27,74.91v-6.5
			c0-0.12,0.06-0.23,0.16-0.29l0.79-0.47c0.46-0.28,0.74-0.78,0.74-1.31v-2.14c0-0.9,0.73-1.63,1.63-1.63s1.63,0.73,1.63,1.63v2.14
			c0,0.53,0.28,1.03,0.74,1.31l0.79,0.47c0.1,0.06,0.16,0.17,0.16,0.29v6.5H61.27z"/>
	</g>
</g>
</svg>
