<?xml version="1.0" encoding="utf-8"?>
<!-- Generator: Adobe Illustrator 27.8.1, SVG Export Plug-In . SVG Version: 6.00 Build 0)  -->
<svg version="1.1" id="Слой_1" xmlns="http://www.w3.org/2000/svg" xmlns:xlink="http://www.w3.org/1999/xlink" x="0px" y="0px"
	 viewBox="0 0 32 32" style="enable-background:new 0 0 32 32;" xml:space="preserve">
<style type="text/css">
	.st0{fill:#FFFFFF;}
	.st1{fill:url(#SVGID_1_);}
	.st2{fill:url(#SVGID_00000014607624132019122930000014772382494155397796_);}
	.st3{fill:url(#SVGID_00000051343541215967924670000000194644721270491293_);}
	.st4{fill:url(#SVGID_00000006686251154310270080000006500488356444005308_);}
	.st5{fill:url(#SVGID_00000033340977259857987020000011037371685602731928_);}
	.st6{fill:url(#SVGID_00000179627469179938579140000004083985068382253965_);}
	.st7{fill:url(#SVGID_00000123437948042608918640000012683688446199366293_);}
	.st8{fill:url(#SVGID_00000114792519687444310090000002584603255630487716_);}
	.st9{fill:url(#SVGID_00000043419884038555490390000010632438890429732016_);}
	.st10{fill:url(#SVGID_00000010284218234446074330000000393006043511508414_);}
	.st11{fill:#624330;}
	.st12{fill:url(#SVGID_00000129904352000664351160000005519454594265808002_);}
	.st13{fill:url(#SVGID_00000009590276136202700250000010104600399521637053_);}
	.st14{fill:url(#SVGID_00000117659659499069146800000009506868584942166181_);}
	.st15{fill:url(#SVGID_00000002348468679245663750000011139702817990468025_);}
	.st16{fill:url(#SVGID_00000134219638448730279600000016090614489000712622_);}
	.st17{fill:url(#SVGID_00000120547856963639710030000011422507344056484233_);}
	.st18{fill:url(#SVGID_00000009558293247936769190000001578757611675826346_);}
	.st19{fill:url(#SVGID_00000066517081361221784770000003604188054333462145_);}
	.st20{fill:url(#SVGID_00000050631849049929955830000005791071089290665898_);}
	.st21{fill:url(#SVGID_00000058584713048275218150000002552686319466360760_);}
	.st22{fill:url(#SVGID_00000095333680029036778790000007159601313394836379_);}
	.st23{fill:url(#SVGID_00000070798721807132191950000002710764799047071876_);}
	.st24{fill:url(#SVGID_00000173877869839383844470000006561812398498231429_);}
	.st25{fill:url(#SVGID_00000174598473688656241980000018259994438679642531_);}
	.st26{fill:url(#SVGID_00000090292086685586308290000000904745006630208678_);}
	.st27{fill:url(#SVGID_00000140703293758152168000000009156304282752281009_);}
	.st28{fill:url(#SVGID_00000096769548538887333140000008508812033826766232_);}
	.st29{fill:#16505C;}
	.st30{fill:#614630;}
	.st31{opacity:0.5;}
	.st32{fill:url(#SVGID_00000122702034562313192540000000901001838145686200_);}
	.st33{fill:url(#SVGID_00000058575880166052864800000008994467252649406865_);}
	.st34{fill:url(#SVGID_00000124848964477691305500000010545426780771991481_);}
	.st35{fill:url(#SVGID_00000021823875250077389760000006782724789928650133_);}
	.st36{fill:url(#SVGID_00000124848515338360363260000009115599748279584685_);}
	.st37{fill:url(#SVGID_00000008844508928344933690000018237649984147259553_);}
	.st38{fill:url(#SVGID_00000052076149601479698150000002772790194214154625_);}
	.st39{fill:url(#SVGID_00000146499299335604519120000002499264612132702863_);}
	.st40{fill:url(#SVGID_00000183244671736833095270000012979076140143181470_);}
	.st41{fill:url(#SVGID_00000116938667446003498680000004079156212778654654_);}
	.st42{fill:url(#SVGID_00000158730558813926512260000009208112242311868846_);}
	.st43{fill:url(#SVGID_00000071550071964852855610000007780470950576524985_);}
	.st44{fill:url(#SVGID_00000140733415151624404360000016587912216567303341_);}
	.st45{fill:url(#SVGID_00000069363847383503543500000014194089383208144526_);}
	.st46{fill:url(#SVGID_00000124163977600559532370000011226784591733212075_);}
	.st47{fill:url(#SVGID_00000161598678724387754810000009327783280502308542_);}
	.st48{fill:url(#SVGID_00000143585153611822626790000000664920169539555771_);}
	.st49{fill:url(#SVGID_00000169556922012212127460000016370666289079849602_);}
	.st50{fill:url(#SVGID_00000080912268310032943920000015636878547904459151_);}
	.st51{fill:url(#SVGID_00000140699597774352907910000011165998853042535101_);}
	.st52{fill:url(#SVGID_00000072997618941581882570000007626030461342407091_);}
	.st53{fill:url(#SVGID_00000137115420463156505350000017712076326669184671_);}
	.st54{fill:url(#SVGID_00000040569444773956124190000001313696031401535890_);}
	.st55{fill:url(#SVGID_00000093161365861075743200000005014240440641318314_);}
	.st56{fill:url(#SVGID_00000110456245409321181690000011698084715439373716_);}
	.st57{fill:url(#SVGID_00000092432498939981377670000004173200634843700103_);}
	.st58{fill:url(#SVGID_00000181794733997273778120000006893634050805735333_);}
	.st59{fill:url(#SVGID_00000072268891241881945050000007564509992095902888_);}
	.st60{fill:url(#SVGID_00000156574937117535940460000004965809679790750388_);}
	.st61{fill:url(#SVGID_00000158732548855489464030000014447977082200201860_);}
	.st62{fill:url(#SVGID_00000109012802533154077300000009716827248427823778_);}
	.st63{fill:url(#SVGID_00000121961072084775025040000001799281570514859941_);}
	.st64{fill:url(#SVGID_00000150815266090458875070000011218829306523023551_);}
	.st65{fill:url(#SVGID_00000096755187683083601090000004009791279578443920_);}
	.st66{fill:url(#SVGID_00000062876240393445568710000008409235375608999830_);}
	.st67{fill:url(#SVGID_00000060025036396082934520000018046630950043190967_);}
	.st68{fill:url(#SVGID_00000132057151216301335480000002979890459967432894_);}
	.st69{fill:url(#SVGID_00000165955275219190463630000012412982103341011369_);}
	.st70{fill:url(#SVGID_00000073687260152237532510000015211702617384002191_);}
	.st71{fill:url(#SVGID_00000052797947158223923480000008623483414343441570_);}
	.st72{fill:url(#SVGID_00000156588088394341892170000003781266564791857597_);}
	.st73{fill:url(#SVGID_00000098930601154553299620000010306170115448423581_);}
	.st74{fill:url(#SVGID_00000070106064622036818430000008226800065659031231_);}
	.st75{fill:url(#SVGID_00000117656044908353686960000017898095555401389957_);}
	.st76{fill:url(#SVGID_00000178175469646317330950000015914924133827417244_);}
	.st77{fill:url(#SVGID_00000168104144228968087310000006130290642227505551_);}
	.st78{fill:url(#SVGID_00000030462460364619366340000018069475227866764704_);}
	.st79{fill:url(#SVGID_00000183244274680355177670000005108542004401863297_);}
	.st80{fill:url(#SVGID_00000043427998949865652250000001105509360451904697_);}
	.st81{fill:url(#SVGID_00000154384690307952768210000009609216345821130151_);}
	.st82{fill:url(#SVGID_00000081615879546959962340000005831814350100013703_);}
	.st83{fill:url(#SVGID_00000036212877948876040440000016294442524030455229_);}
	.st84{fill:url(#SVGID_00000139270404863698445820000016979113421621651099_);}
	.st85{fill:url(#SVGID_00000097480631347074197870000013031228081628638122_);}
	.st86{fill:url(#SVGID_00000033358881756393284030000012826493323185404592_);}
	.st87{fill:url(#SVGID_00000027576326575853330490000017977818776643304592_);}
	.st88{fill:url(#SVGID_00000036222220878463970990000013562637899709441948_);}
	.st89{fill:url(#SVGID_00000138561506920262716650000003275661659424172727_);}
	.st90{fill:url(#SVGID_00000011736564685888627130000004298383530694149544_);}
	.st91{fill:url(#SVGID_00000068671295845747537030000000940782322053612946_);}
	.st92{fill:url(#SVGID_00000175307317665526326580000005036575036672639165_);}
	.st93{fill:url(#SVGID_00000158722816587170333020000000488987296266169473_);}
	.st94{fill:url(#SVGID_00000078763392283764855370000014141491520146219432_);}
	.st95{fill:url(#SVGID_00000013897349872566743810000001934590073821784750_);}
	.st96{fill:url(#SVGID_00000158007392833293709550000017004078261499339192_);}
	.st97{fill:url(#SVGID_00000160171837203318040720000007456261845832042939_);}
	.st98{fill:url(#SVGID_00000157300592346926523120000011942069484767410094_);}
	.st99{fill:url(#SVGID_00000083767444166248727720000016176568920692924347_);}
	.st100{fill:url(#SVGID_00000054967846358664630060000000503945506168267409_);}
	.st101{fill:url(#SVGID_00000155838295090778723880000017491105113466905504_);}
	.st102{fill:url(#SVGID_00000161610905774610602880000008086055109060156843_);}
	.st103{fill:url(#SVGID_00000111882661215959989430000015644575312783306396_);}
	.st104{fill:url(#SVGID_00000030453651732678920400000012975428302922187175_);}
	.st105{fill:url(#SVGID_00000003818922250355840270000007669572037854540214_);}
	.st106{fill:url(#SVGID_00000078752793348736385880000005351124093924492447_);}
	.st107{fill:url(#SVGID_00000147929444847927819190000018183411904546369719_);}
	.st108{fill:url(#SVGID_00000003793724404566485160000002847940980675885502_);}
	.st109{fill:url(#SVGID_00000172439787330067724540000002744220106177234833_);}
	.st110{fill:url(#SVGID_00000036959899929059807400000018079580861508428719_);}
	.st111{fill:url(#SVGID_00000137109616964991051150000007882062554597770926_);}
	.st112{fill:url(#SVGID_00000127016482503532489360000007019264269820031884_);}
	.st113{fill:url(#SVGID_00000177456499244659655780000009943683031087742871_);}
	.st114{fill:url(#SVGID_00000062905547136037407480000016403148923639273406_);}
	.st115{fill:url(#SVGID_00000086668939448290202630000008713732685029442233_);}
	.st116{fill:url(#SVGID_00000170251724902343254470000010275294288291489979_);}
	.st117{fill:url(#SVGID_00000000210535868318248720000000845088940303804605_);}
	.st118{fill:url(#SVGID_00000005964034944209773470000005792307692781643188_);}
	.st119{fill:url(#SVGID_00000170969725808563548430000006267769709555625856_);}
	.st120{fill:url(#SVGID_00000163753027735888183590000017630987753331191956_);}
	.st121{fill:url(#SVGID_00000084509889285023392920000017925224951670917772_);}
	.st122{fill:url(#SVGID_00000181793896570338245160000016711392449549379720_);}
	.st123{fill:url(#SVGID_00000175285984797282587510000012592420250842940094_);}
	.st124{fill:url(#SVGID_00000052103791329857511250000016138378964699414679_);}
	.st125{fill:url(#SVGID_00000146470539409046294200000016267700248762270143_);}
	.st126{fill:url(#SVGID_00000108276892605692538930000013369050096646532022_);}
	.st127{fill:url(#SVGID_00000178197508341269540840000008851490560601700253_);}
	.st128{fill:url(#SVGID_00000054974670872578282310000014663289339435196347_);}
	.st129{fill:url(#SVGID_00000166639105068106721880000016844827319315367836_);}
	.st130{fill:url(#SVGID_00000061468593416684847460000010971367277262412430_);}
	.st131{fill:url(#SVGID_00000049917771656137686620000004442652978511928242_);}
	.st132{fill:url(#SVGID_00000021808111811315164440000000530662445112553381_);}
	.st133{fill:url(#SVGID_00000129923068837576704080000013864113087785234589_);}
	.st134{fill:url(#SVGID_00000162325186603255357870000003441704141147434634_);}
	.st135{fill:url(#SVGID_00000039825216676131709700000001527858087400967062_);}
	.st136{fill:url(#SVGID_00000107572711408338241000000000234552100416758950_);}
	.st137{fill:url(#SVGID_00000175297309071219307950000017753663242724619406_);}
	.st138{fill:url(#SVGID_00000069369416295163655660000001287062904974307229_);}
	.st139{fill:url(#SVGID_00000183215510594366891100000015057686296024676495_);}
	.st140{fill:url(#SVGID_00000167385394928678168830000006992709742765024441_);}
	.st141{fill:url(#SVGID_00000052069689752249072110000002374501123694895252_);}
	.st142{fill:url(#SVGID_00000160897293116673443610000002027078775400643750_);}
	.st143{fill:url(#SVGID_00000065778163976195899270000017928459542060635307_);}
	.st144{fill:url(#SVGID_00000063634110280995580800000011917041285683392655_);}
	.st145{fill:url(#SVGID_00000137817365768684621690000014750064376458146695_);}
	.st146{fill:url(#SVGID_00000086676092127816439370000015974927923301175737_);}
	.st147{fill:url(#SVGID_00000154421396198527932520000011847101163728452500_);}
	.st148{fill:url(#SVGID_00000018931773693465550180000014018487970135423141_);}
	.st149{fill:url(#SVGID_00000169522971351291637150000008338235508634469789_);}
</style>
<g>
	<path class="st0" d="M23.31,9.16c-0.22,0.88-0.62,1.66-1.18,2.37c-0.45,0.56-0.99,1.03-1.55,1.46c-0.41,0.32-0.8,0.64-1.16,1.01
		c-0.38,0.4-0.64,0.86-0.79,1.38c-0.14,0.48-0.2,0.97-0.21,1.47c0,0.16-0.01,0.31-0.01,0.47c-0.02,0.44-0.04,0.89-0.18,1.3
		c-0.01,0.03-0.02,0.06-0.03,0.08h-3.64c-0.03,0-0.06-0.01-0.09-0.01c-0.29-0.04-0.45-0.23-0.5-0.52c-0.03-0.22-0.05-0.45-0.06-0.67
		c-0.04-0.63-0.14-1.25-0.38-1.83c-0.19-0.46-0.46-0.89-0.79-1.26c-0.23-0.27-0.49-0.52-0.75-0.77c-0.56-0.54-1.11-1.08-1.53-1.75
		c-0.56-0.87-0.91-1.81-1.03-2.84c-0.15-1.34,0.06-2.62,0.64-3.83c0.26-0.53,0.59-1.02,0.97-1.48c0.45-0.54,0.96-1.01,1.55-1.39
		c0.84-0.54,1.76-0.92,2.74-1.09c0.58-0.1,1.17-0.14,1.76-0.11c0.45,0.02,0.9,0.06,1.34,0.16l0,0c0.13,0.03,0.25,0.06,0.38,0.1
		c0.66,0.2,1.27,0.51,1.82,0.92c0.05,0.03,0.09,0.07,0.14,0.1c0.22,0.18,0.46,0.34,0.66,0.54c0.35,0.33,0.66,0.69,0.92,1.09
		c0.16,0.25,0.3,0.5,0.44,0.77c0.37,0.71,0.58,1.46,0.66,2.25C23.51,7.79,23.47,8.48,23.31,9.16z"/>
	<g>
		<linearGradient id="SVGID_1_" gradientUnits="userSpaceOnUse" x1="13.3192" y1="14.2144" x2="13.3192" y2="6.3966">
			<stop  offset="0.3691" style="stop-color:#11555C"/>
			<stop  offset="1" style="stop-color:#37C3B5"/>
		</linearGradient>
		<path class="st1" d="M16.55,10.13c-0.01-0.17,0-0.34-0.01-0.51c0-0.07-0.02-0.14-0.04-0.2c-0.03-0.11-0.1-0.17-0.21-0.18
			c-0.13-0.01-0.25-0.03-0.38-0.04c-0.09-0.01-0.15-0.04-0.19-0.12c-0.06-0.13-0.13-0.26-0.2-0.38c-0.07-0.11-0.05-0.2,0.02-0.3
			c0.07-0.11,0.12-0.23,0.18-0.35c0.06-0.11,0.03-0.21-0.06-0.28c-0.18-0.15-0.37-0.3-0.56-0.44c-0.12-0.08-0.15-0.07-0.27,0.02
			c-0.11,0.09-0.22,0.18-0.33,0.27c-0.05,0.05-0.11,0.05-0.18,0.03c-0.14-0.05-0.28-0.09-0.42-0.13c-0.1-0.02-0.15-0.07-0.18-0.17
			c-0.04-0.14-0.09-0.28-0.13-0.42c-0.03-0.09-0.09-0.14-0.18-0.15c-0.26-0.03-0.51,0.02-0.75,0.06C12.58,6.86,12.53,6.92,12.53,7
			c-0.01,0.15-0.03,0.29-0.04,0.44c0,0.11-0.05,0.18-0.17,0.22c-0.11,0.04-0.21,0.09-0.3,0.15c-0.11,0.07-0.19,0.08-0.29,0.02
			c-0.11-0.07-0.22-0.12-0.33-0.18c-0.02-0.01-0.04-0.02-0.06-0.03c-0.07-0.03-0.15-0.02-0.21,0.02c-0.01,0.01-0.02,0.02-0.03,0.03
			c-0.15,0.16-0.29,0.32-0.42,0.49c-0.13,0.16-0.12,0.22,0.01,0.39c0.07,0.1,0.15,0.19,0.23,0.29c0.06,0.07,0.07,0.14,0.03,0.22
			c-0.04,0.11-0.09,0.22-0.11,0.33c-0.03,0.13-0.11,0.19-0.24,0.22c-0.11,0.02-0.23,0.05-0.34,0.08c-0.11,0.03-0.18,0.11-0.17,0.22
			c0.01,0.23,0.02,0.46,0.04,0.69c0.01,0.12,0.08,0.19,0.2,0.21c0.14,0.02,0.28,0.05,0.42,0.06c0.09,0.01,0.14,0.04,0.18,0.12
			c0.06,0.13,0.12,0.25,0.19,0.36c0.04,0.07,0.03,0.12-0.01,0.18c-0.07,0.11-0.14,0.23-0.2,0.35c-0.06,0.12-0.03,0.27,0.07,0.36
			c0.14,0.12,0.28,0.24,0.43,0.35c0.17,0.13,0.2,0.13,0.38,0.01c0.1-0.07,0.2-0.15,0.3-0.24c0.07-0.06,0.14-0.08,0.25-0.01
			c0.09,0.05,0.19,0.08,0.29,0.1c0.14,0.02,0.2,0.09,0.23,0.21c0.02,0.12,0.06,0.24,0.1,0.35c0.04,0.11,0.11,0.19,0.25,0.18
			c0.23-0.01,0.45-0.02,0.68-0.04c0.11-0.01,0.2-0.09,0.22-0.2c0.02-0.11,0.04-0.22,0.03-0.34c-0.01-0.15,0.05-0.22,0.18-0.27
			c0.11-0.04,0.21-0.09,0.31-0.15c0.09-0.05,0.16-0.05,0.25,0.01c0.1,0.07,0.22,0.13,0.32,0.2c0.1,0.06,0.18,0.06,0.28-0.01
			c0.21-0.14,0.35-0.35,0.49-0.55c0.08-0.12,0.08-0.23-0.01-0.33c-0.07-0.09-0.14-0.17-0.21-0.25c-0.08-0.09-0.1-0.18-0.06-0.29
			c0.05-0.11,0.09-0.22,0.11-0.33c0.03-0.12,0.09-0.16,0.2-0.19c0.14-0.03,0.28-0.08,0.42-0.13C16.51,10.31,16.56,10.24,16.55,10.13
			z M13.32,11.79c-0.99,0-1.79-0.8-1.79-1.79c0-0.99,0.8-1.79,1.79-1.79c0.99,0,1.79,0.8,1.79,1.79
			C15.11,10.99,14.31,11.79,13.32,11.79z"/>
		
			<linearGradient id="SVGID_00000087391392181882661000000015063744118806661016_" gradientUnits="userSpaceOnUse" x1="13.3192" y1="14.2144" x2="13.3192" y2="6.3966">
			<stop  offset="0.3691" style="stop-color:#11555C"/>
			<stop  offset="1" style="stop-color:#37C3B5"/>
		</linearGradient>
		<path style="fill:url(#SVGID_00000087391392181882661000000015063744118806661016_);" d="M13.32,8.56c-0.79,0-1.44,0.64-1.44,1.44
			c0,0.79,0.64,1.44,1.44,1.44c0.79,0,1.44-0.64,1.44-1.44C14.76,9.2,14.11,8.56,13.32,8.56z M13.32,11.07
			c-0.59,0-1.07-0.48-1.07-1.07c0-0.59,0.48-1.07,1.07-1.07c0.59,0,1.07,0.48,1.07,1.07C14.39,10.59,13.91,11.07,13.32,11.07z"/>
	</g>
	<g>
		<g>
			
				<linearGradient id="SVGID_00000025431492181789600790000001743321147899671469_" gradientUnits="userSpaceOnUse" x1="19.6605" y1="3.4455" x2="19.6605" y2="10.2756">
				<stop  offset="0" style="stop-color:#F8A074"/>
				<stop  offset="1" style="stop-color:#F56A4C"/>
			</linearGradient>
			<path style="fill:url(#SVGID_00000025431492181789600790000001743321147899671469_);" d="M23.2,7.58c0-0.19,0.01-0.37,0.01-0.56
				c0-0.07-0.02-0.15-0.03-0.22c-0.03-0.12-0.1-0.19-0.23-0.21c-0.14-0.02-0.27-0.04-0.41-0.06c-0.1-0.01-0.16-0.05-0.2-0.14
				c-0.06-0.14-0.13-0.29-0.21-0.42c-0.07-0.13-0.05-0.22,0.03-0.33c0.08-0.12,0.15-0.25,0.22-0.37c0.07-0.12,0.04-0.23-0.05-0.31
				c-0.19-0.17-0.39-0.35-0.59-0.51c-0.13-0.1-0.17-0.09-0.29,0.01c-0.13,0.09-0.25,0.19-0.37,0.29c-0.06,0.05-0.12,0.05-0.19,0.03
				c-0.15-0.06-0.3-0.12-0.46-0.16c-0.11-0.03-0.16-0.09-0.19-0.2C20.2,4.25,20.14,4.1,20.1,3.94c-0.03-0.1-0.09-0.15-0.19-0.17
				c-0.28-0.04-0.55-0.01-0.83,0.03c-0.09,0.01-0.14,0.07-0.16,0.16c-0.02,0.16-0.05,0.32-0.06,0.48c-0.01,0.12-0.06,0.19-0.2,0.23
				c-0.12,0.03-0.23,0.09-0.33,0.15c-0.12,0.07-0.21,0.08-0.32,0.01c-0.11-0.08-0.24-0.14-0.36-0.21c-0.02-0.01-0.04-0.02-0.06-0.03
				c-0.08-0.03-0.16-0.03-0.23,0.02c-0.01,0.01-0.02,0.02-0.03,0.03C17.16,4.8,17,4.97,16.84,5.16C16.7,5.33,16.7,5.4,16.84,5.59
				c0.08,0.11,0.16,0.22,0.23,0.32c0.06,0.08,0.07,0.15,0.02,0.24c-0.05,0.12-0.11,0.23-0.14,0.36c-0.04,0.14-0.13,0.21-0.27,0.23
				c-0.13,0.02-0.25,0.04-0.37,0.08c-0.12,0.03-0.2,0.11-0.2,0.23c0,0.25,0,0.51,0.01,0.76c0,0.13,0.07,0.22,0.21,0.24
				c0.15,0.03,0.31,0.07,0.46,0.09c0.09,0.01,0.15,0.05,0.19,0.15c0.06,0.14,0.12,0.28,0.19,0.41c0.04,0.07,0.03,0.13-0.02,0.2
				c-0.08,0.12-0.16,0.24-0.24,0.37c-0.07,0.13-0.05,0.29,0.06,0.39c0.14,0.14,0.3,0.27,0.45,0.4c0.18,0.15,0.21,0.15,0.41,0.03
				c0.12-0.07,0.23-0.16,0.34-0.24c0.08-0.06,0.16-0.08,0.27,0c0.1,0.06,0.2,0.1,0.32,0.12c0.15,0.03,0.22,0.11,0.24,0.24
				c0.02,0.13,0.05,0.26,0.09,0.39c0.04,0.13,0.12,0.21,0.26,0.21c0.25,0,0.5,0,0.74-0.01c0.12-0.01,0.22-0.09,0.25-0.21
				c0.03-0.12,0.05-0.24,0.05-0.37c0-0.16,0.07-0.24,0.21-0.29c0.12-0.04,0.24-0.09,0.35-0.15c0.1-0.06,0.18-0.05,0.27,0.02
				c0.11,0.08,0.23,0.15,0.35,0.23c0.1,0.07,0.2,0.07,0.3,0c0.24-0.15,0.4-0.36,0.57-0.58c0.09-0.13,0.09-0.24,0-0.37
				c-0.07-0.1-0.14-0.2-0.22-0.29c-0.09-0.1-0.11-0.2-0.05-0.32c0.05-0.11,0.11-0.23,0.14-0.35c0.03-0.13,0.11-0.17,0.23-0.2
				c0.16-0.03,0.31-0.08,0.47-0.12C23.14,7.78,23.2,7.71,23.2,7.58z M19.57,9.25c-1.09-0.05-1.93-0.96-1.88-2.05
				c0.05-1.09,0.96-1.93,2.05-1.88c1.09,0.05,1.93,0.96,1.88,2.05C21.58,8.45,20.66,9.3,19.57,9.25z"/>
			
				<linearGradient id="SVGID_00000127756171618194518910000014578978600929049260_" gradientUnits="userSpaceOnUse" x1="19.6572" y1="3.4455" x2="19.6572" y2="10.2756">
				<stop  offset="0" style="stop-color:#F8A074"/>
				<stop  offset="1" style="stop-color:#F56A4C"/>
			</linearGradient>
			<path style="fill:url(#SVGID_00000127756171618194518910000014578978600929049260_);" d="M19.72,5.71
				c-0.87-0.04-1.61,0.64-1.64,1.51c-0.04,0.87,0.64,1.61,1.51,1.64c0.87,0.04,1.61-0.64,1.64-1.51
				C21.27,6.48,20.59,5.74,19.72,5.71z M19.61,8.46c-0.65-0.03-1.15-0.58-1.13-1.22c0.03-0.65,0.58-1.15,1.22-1.13
				c0.65,0.03,1.15,0.58,1.13,1.22C20.81,7.98,20.26,8.49,19.61,8.46z"/>
		</g>
	</g>
	<g>
		
			<linearGradient id="SVGID_00000071517864714530425630000015188585194226983560_" gradientUnits="userSpaceOnUse" x1="17.888" y1="14.702" x2="17.888" y2="10.5284">
			<stop  offset="0.3691" style="stop-color:#11555C"/>
			<stop  offset="1" style="stop-color:#37C3B5"/>
		</linearGradient>
		<path style="fill:url(#SVGID_00000071517864714530425630000015188585194226983560_);" d="M19.8,12.83c0-0.1,0.01-0.2,0.02-0.3
			c0-0.04-0.01-0.08-0.01-0.12c-0.01-0.06-0.05-0.11-0.12-0.12c-0.07-0.01-0.15-0.03-0.22-0.04c-0.05-0.01-0.09-0.03-0.11-0.08
			c-0.03-0.08-0.06-0.16-0.1-0.23c-0.04-0.07-0.02-0.12,0.02-0.18c0.05-0.06,0.08-0.13,0.13-0.2c0.04-0.06,0.03-0.12-0.02-0.17
			c-0.1-0.1-0.2-0.2-0.31-0.29c-0.07-0.06-0.09-0.05-0.16,0c-0.07,0.05-0.14,0.1-0.21,0.15c-0.03,0.02-0.07,0.03-0.11,0.01
			c-0.08-0.03-0.16-0.07-0.25-0.1c-0.06-0.02-0.09-0.05-0.1-0.11c-0.01-0.09-0.04-0.17-0.06-0.26c-0.01-0.06-0.05-0.09-0.1-0.1
			c-0.15-0.03-0.3-0.01-0.45,0c-0.05,0.01-0.08,0.04-0.09,0.09c-0.02,0.09-0.03,0.17-0.04,0.26c-0.01,0.07-0.04,0.1-0.11,0.12
			c-0.06,0.02-0.13,0.04-0.18,0.08c-0.07,0.04-0.12,0.04-0.17,0c-0.06-0.04-0.13-0.08-0.19-0.12c-0.01-0.01-0.02-0.01-0.03-0.02
			c-0.04-0.02-0.09-0.02-0.13,0c-0.01,0-0.01,0.01-0.02,0.01c-0.09,0.09-0.19,0.18-0.27,0.27c-0.08,0.09-0.08,0.13-0.01,0.23
			c0.04,0.06,0.08,0.12,0.12,0.18c0.03,0.04,0.03,0.08,0.01,0.13c-0.03,0.06-0.06,0.12-0.08,0.19c-0.02,0.08-0.07,0.11-0.15,0.12
			c-0.07,0.01-0.14,0.02-0.2,0.03c-0.06,0.01-0.11,0.05-0.11,0.12c-0.01,0.14-0.01,0.28-0.01,0.41c0,0.07,0.04,0.12,0.11,0.14
			c0.08,0.02,0.16,0.04,0.25,0.06c0.05,0.01,0.08,0.03,0.1,0.08c0.03,0.08,0.06,0.15,0.1,0.23c0.02,0.04,0.01,0.07-0.01,0.11
			c-0.05,0.06-0.09,0.13-0.13,0.2c-0.04,0.07-0.03,0.16,0.02,0.21c0.08,0.08,0.16,0.15,0.24,0.23c0.09,0.09,0.11,0.09,0.22,0.02
			c0.06-0.04,0.13-0.08,0.19-0.13c0.05-0.03,0.09-0.04,0.15,0c0.05,0.04,0.11,0.06,0.17,0.07c0.08,0.02,0.12,0.06,0.13,0.13
			c0.01,0.07,0.02,0.14,0.04,0.21c0.02,0.07,0.06,0.12,0.14,0.12c0.13,0,0.27,0.01,0.4,0.01c0.07,0,0.12-0.05,0.14-0.11
			c0.02-0.06,0.03-0.13,0.04-0.2c0-0.09,0.04-0.13,0.12-0.15c0.07-0.02,0.13-0.04,0.19-0.07c0.06-0.03,0.1-0.02,0.15,0.02
			c0.06,0.05,0.12,0.09,0.18,0.13c0.05,0.04,0.11,0.04,0.17,0.01c0.13-0.08,0.23-0.19,0.32-0.31c0.05-0.07,0.06-0.13,0.01-0.2
			c-0.04-0.05-0.07-0.11-0.12-0.16c-0.05-0.06-0.05-0.11-0.02-0.17c0.03-0.06,0.06-0.12,0.08-0.19c0.02-0.07,0.06-0.09,0.13-0.1
			c0.09-0.01,0.17-0.03,0.26-0.06C19.77,12.93,19.8,12.89,19.8,12.83z M17.8,13.66c-0.59-0.05-1.03-0.56-0.98-1.15
			c0.05-0.59,0.56-1.03,1.15-0.98c0.59,0.05,1.03,0.56,0.98,1.15C18.91,13.27,18.39,13.71,17.8,13.66z"/>
		
			<linearGradient id="SVGID_00000116935882026859874280000003657337900995461773_" gradientUnits="userSpaceOnUse" x1="17.8858" y1="14.702" x2="17.8858" y2="10.5284">
			<stop  offset="0.3691" style="stop-color:#11555C"/>
			<stop  offset="1" style="stop-color:#37C3B5"/>
		</linearGradient>
		<path style="fill:url(#SVGID_00000116935882026859874280000003657337900995461773_);" d="M17.95,11.74
			c-0.47-0.04-0.89,0.32-0.92,0.79c-0.04,0.47,0.32,0.89,0.79,0.92c0.47,0.04,0.89-0.32,0.92-0.79
			C18.78,12.19,18.42,11.78,17.95,11.74z M17.84,13.23c-0.35-0.03-0.61-0.33-0.59-0.69c0.03-0.35,0.33-0.62,0.69-0.59
			c0.35,0.03,0.62,0.33,0.59,0.69C18.5,13,18.19,13.26,17.84,13.23z"/>
	</g>
	<g>
		
			<linearGradient id="SVGID_00000137817152568395132030000012434752584772849854_" gradientUnits="userSpaceOnUse" x1="14.8087" y1="12.5483" x2="14.8087" y2="15.5557">
			<stop  offset="0" style="stop-color:#F8A074"/>
			<stop  offset="1" style="stop-color:#F56A4C"/>
		</linearGradient>
		<path style="fill:url(#SVGID_00000137817152568395132030000012434752584772849854_);" d="M16.11,14.37c0-0.07,0-0.14,0-0.2
			c0-0.03-0.01-0.05-0.01-0.08c-0.01-0.04-0.04-0.07-0.08-0.07c-0.05-0.01-0.1-0.01-0.15-0.02c-0.04,0-0.06-0.02-0.07-0.05
			c-0.02-0.05-0.05-0.1-0.08-0.15c-0.03-0.05-0.02-0.08,0.01-0.12c0.03-0.04,0.05-0.09,0.08-0.14c0.02-0.04,0.01-0.08-0.02-0.11
			c-0.07-0.06-0.15-0.12-0.22-0.18c-0.05-0.03-0.06-0.03-0.11,0.01c-0.05,0.04-0.09,0.07-0.13,0.11c-0.02,0.02-0.04,0.02-0.07,0.01
			c-0.06-0.02-0.11-0.04-0.17-0.05c-0.04-0.01-0.06-0.03-0.07-0.07c-0.01-0.06-0.03-0.11-0.05-0.17c-0.01-0.04-0.03-0.06-0.07-0.06
			c-0.1-0.01-0.2,0-0.3,0.02c-0.03,0.01-0.05,0.03-0.06,0.06c-0.01,0.06-0.02,0.12-0.02,0.18c0,0.04-0.02,0.07-0.07,0.09
			c-0.04,0.01-0.08,0.03-0.12,0.06c-0.04,0.03-0.08,0.03-0.12,0c-0.04-0.03-0.09-0.05-0.13-0.07c-0.01,0-0.01-0.01-0.02-0.01
			c-0.03-0.01-0.06-0.01-0.08,0.01c0,0-0.01,0.01-0.01,0.01c-0.06,0.06-0.12,0.13-0.17,0.2c-0.05,0.07-0.05,0.09,0,0.16
			c0.03,0.04,0.06,0.08,0.09,0.12c0.02,0.03,0.03,0.06,0.01,0.09c-0.02,0.04-0.04,0.09-0.05,0.13c-0.01,0.05-0.05,0.08-0.1,0.09
			c-0.05,0.01-0.09,0.02-0.14,0.03c-0.04,0.01-0.07,0.04-0.07,0.09c0,0.09,0.01,0.19,0.01,0.28c0,0.05,0.03,0.08,0.08,0.09
			c0.06,0.01,0.11,0.02,0.17,0.03c0.03,0,0.06,0.02,0.07,0.05c0.02,0.05,0.05,0.1,0.07,0.15c0.02,0.03,0.01,0.05-0.01,0.07
			c-0.03,0.05-0.06,0.09-0.08,0.14c-0.03,0.05-0.02,0.11,0.02,0.14c0.05,0.05,0.11,0.1,0.17,0.14c0.07,0.05,0.08,0.05,0.15,0.01
			c0.04-0.03,0.08-0.06,0.12-0.09c0.03-0.02,0.06-0.03,0.1,0c0.04,0.02,0.08,0.03,0.12,0.04c0.06,0.01,0.08,0.04,0.09,0.08
			c0.01,0.05,0.02,0.1,0.04,0.14c0.01,0.05,0.04,0.08,0.1,0.07c0.09,0,0.18,0,0.27-0.01c0.04,0,0.08-0.04,0.09-0.08
			c0.01-0.04,0.02-0.09,0.02-0.13c0-0.06,0.02-0.09,0.08-0.11c0.04-0.02,0.09-0.03,0.13-0.06c0.04-0.02,0.07-0.02,0.1,0.01
			c0.04,0.03,0.09,0.05,0.13,0.08c0.04,0.03,0.07,0.02,0.11,0c0.09-0.06,0.14-0.14,0.2-0.22c0.03-0.05,0.03-0.09,0-0.13
			c-0.03-0.04-0.05-0.07-0.08-0.1c-0.03-0.04-0.04-0.07-0.02-0.12c0.02-0.04,0.04-0.09,0.05-0.13c0.01-0.05,0.04-0.06,0.08-0.07
			c0.06-0.01,0.11-0.03,0.17-0.05C16.09,14.44,16.11,14.41,16.11,14.37z M14.8,15.01c-0.4-0.01-0.72-0.33-0.71-0.73
			c0.01-0.4,0.33-0.72,0.73-0.71c0.4,0.01,0.72,0.33,0.71,0.73C15.52,14.7,15.2,15.02,14.8,15.01z"/>
		
			<linearGradient id="SVGID_00000087395790461755816540000010963141814151990694_" gradientUnits="userSpaceOnUse" x1="14.809" y1="12.5483" x2="14.809" y2="15.5557">
			<stop  offset="0" style="stop-color:#F8A074"/>
			<stop  offset="1" style="stop-color:#F56A4C"/>
		</linearGradient>
		<path style="fill:url(#SVGID_00000087395790461755816540000010963141814151990694_);" d="M14.82,13.71
			c-0.32-0.01-0.58,0.25-0.59,0.57c-0.01,0.32,0.25,0.58,0.57,0.59c0.32,0.01,0.58-0.25,0.59-0.57
			C15.39,13.98,15.14,13.72,14.82,13.71z M14.8,14.72c-0.24,0-0.43-0.2-0.42-0.44c0-0.24,0.2-0.43,0.44-0.42
			c0.24,0,0.43,0.2,0.42,0.44C15.24,14.54,15.04,14.73,14.8,14.72z"/>
	</g>
	<g>
		
			<linearGradient id="SVGID_00000093160917041913607170000014149627760153221305_" gradientUnits="userSpaceOnUse" x1="14.2335" y1="2.0638" x2="14.2335" y2="6.3761">
			<stop  offset="0" style="stop-color:#F8A074"/>
			<stop  offset="1" style="stop-color:#F56A4C"/>
		</linearGradient>
		<path style="fill:url(#SVGID_00000093160917041913607170000014149627760153221305_);" d="M16.58,4.31
			c-0.02-0.12-0.03-0.24-0.05-0.37c-0.01-0.05-0.03-0.1-0.04-0.14c-0.03-0.07-0.08-0.12-0.17-0.11c-0.09,0-0.18,0-0.28,0
			c-0.06,0-0.11-0.02-0.15-0.07c-0.06-0.09-0.11-0.18-0.18-0.26c-0.06-0.08-0.05-0.14-0.01-0.22c0.04-0.08,0.07-0.18,0.11-0.27
			c0.03-0.08,0.01-0.15-0.07-0.2c-0.14-0.09-0.29-0.19-0.44-0.27c-0.09-0.05-0.12-0.04-0.19,0.03c-0.07,0.07-0.14,0.15-0.22,0.22
			c-0.04,0.04-0.07,0.05-0.12,0.04c-0.11-0.02-0.21-0.05-0.32-0.06c-0.07-0.01-0.12-0.04-0.14-0.11c-0.04-0.1-0.09-0.2-0.13-0.3
			c-0.03-0.06-0.07-0.09-0.14-0.09c-0.19,0-0.36,0.05-0.54,0.1c-0.06,0.02-0.09,0.06-0.09,0.12c0,0.11,0,0.22,0.01,0.32
			c0.01,0.08-0.02,0.13-0.11,0.17c-0.07,0.03-0.14,0.08-0.2,0.13c-0.07,0.06-0.13,0.07-0.21,0.04c-0.08-0.04-0.17-0.07-0.26-0.1
			c-0.01-0.01-0.03-0.01-0.04-0.01c-0.05-0.01-0.11,0-0.15,0.03c-0.01,0.01-0.01,0.01-0.02,0.02c-0.09,0.13-0.18,0.26-0.27,0.39
			c-0.08,0.13-0.07,0.17,0.04,0.28c0.06,0.06,0.12,0.13,0.19,0.19c0.05,0.04,0.06,0.09,0.04,0.16c-0.02,0.08-0.05,0.16-0.06,0.25
			c-0.01,0.1-0.06,0.15-0.15,0.18c-0.08,0.02-0.16,0.05-0.24,0.09c-0.07,0.03-0.12,0.09-0.11,0.17c0.02,0.17,0.05,0.33,0.08,0.5
			c0.02,0.08,0.07,0.14,0.16,0.14c0.1,0.01,0.21,0.01,0.31,0.01c0.06,0,0.11,0.02,0.14,0.08c0.05,0.09,0.11,0.17,0.17,0.25
			c0.03,0.05,0.03,0.09,0.01,0.13c-0.04,0.09-0.08,0.18-0.12,0.27c-0.04,0.09,0,0.2,0.08,0.25c0.11,0.08,0.22,0.15,0.34,0.22
			c0.13,0.08,0.15,0.08,0.27-0.02c0.07-0.06,0.13-0.13,0.2-0.19c0.05-0.05,0.1-0.07,0.18-0.03c0.07,0.03,0.14,0.05,0.22,0.05
			c0.1,0.01,0.15,0.05,0.18,0.13c0.03,0.08,0.06,0.17,0.1,0.25c0.04,0.08,0.1,0.13,0.19,0.11c0.16-0.03,0.33-0.05,0.49-0.08
			c0.08-0.02,0.14-0.08,0.14-0.16c0.01-0.08,0.01-0.17,0-0.25c-0.02-0.1,0.02-0.17,0.11-0.21c0.07-0.04,0.15-0.08,0.22-0.13
			c0.06-0.05,0.11-0.05,0.18-0.01C15.6,6,15.69,6.04,15.77,6.08c0.08,0.04,0.14,0.03,0.2-0.03c0.14-0.12,0.23-0.28,0.31-0.44
			c0.05-0.09,0.04-0.17-0.03-0.24c-0.06-0.06-0.11-0.12-0.18-0.17c-0.07-0.06-0.09-0.12-0.06-0.2c0.02-0.08,0.05-0.16,0.06-0.25
			c0.01-0.09,0.05-0.12,0.13-0.15c0.1-0.03,0.2-0.08,0.3-0.12C16.57,4.44,16.6,4.39,16.58,4.31z M14.37,5.77
			c-0.72,0.08-1.36-0.44-1.44-1.16c-0.08-0.72,0.44-1.36,1.16-1.44c0.72-0.08,1.36,0.44,1.44,1.16C15.61,5.04,15.09,5.69,14.37,5.77
			z"/>
		
			<linearGradient id="SVGID_00000111152072203304011340000010101549397178401955_" gradientUnits="userSpaceOnUse" x1="14.2309" y1="2.0638" x2="14.2309" y2="6.3761">
			<stop  offset="0" style="stop-color:#F8A074"/>
			<stop  offset="1" style="stop-color:#F56A4C"/>
		</linearGradient>
		<path style="fill:url(#SVGID_00000111152072203304011340000010101549397178401955_);" d="M14.12,3.43
			c-0.58,0.06-0.99,0.58-0.93,1.16c0.06,0.58,0.58,0.99,1.16,0.93c0.58-0.06,0.99-0.58,0.93-1.16C15.21,3.78,14.69,3.36,14.12,3.43z
			 M14.32,5.24c-0.43,0.05-0.81-0.26-0.86-0.69c-0.05-0.43,0.26-0.81,0.69-0.86c0.43-0.05,0.81,0.26,0.86,0.69
			C15.05,4.81,14.74,5.2,14.32,5.24z"/>
	</g>
	<path class="st11" d="M21.09,29.03c-0.17,0.31-0.54,0.47-0.89,0.38c-0.19-0.05-0.4-0.18-0.52-0.51v1.4c0,0.59-0.31,1.11-0.77,1.4
		c-0.1,0.06-0.2,0.11-0.31,0.15c-0.18,0.07-0.38,0.1-0.58,0.1h-3.34c-0.2,0-0.4-0.04-0.58-0.1c-0.11-0.04-0.21-0.09-0.31-0.15
		c-0.46-0.29-0.77-0.81-0.77-1.4v-1.4c-0.12,0.32-0.32,0.46-0.52,0.51c-0.35,0.09-0.71-0.07-0.89-0.38c-0.31-0.56,0.1-1.35,0.1-1.35
		l0.81-1.63l3.77-0.1l0.05,0h0l0.05,0l3.77,0.1l0.81,1.63C20.99,27.69,21.4,28.47,21.09,29.03z"/>
	<g>
		
			<linearGradient id="SVGID_00000138571031883578621720000013040986891021076885_" gradientUnits="userSpaceOnUse" x1="10.3966" y1="29.6211" x2="17.5528" y2="23.5659">
			<stop  offset="0" style="stop-color:#DD532D"/>
			<stop  offset="1" style="stop-color:#FEC474"/>
		</linearGradient>
		<polygon style="fill:url(#SVGID_00000138571031883578621720000013040986891021076885_);" points="14.32,26.08 12.88,26.08 
			14.43,27.65 		"/>
		
			<linearGradient id="SVGID_00000169529521141421506800000003713386443978092712_" gradientUnits="userSpaceOnUse" x1="10.6675" y1="29.9414" x2="17.8238" y2="23.8861">
			<stop  offset="0" style="stop-color:#DD532D"/>
			<stop  offset="1" style="stop-color:#FEC474"/>
		</linearGradient>
		<polygon style="fill:url(#SVGID_00000169529521141421506800000003713386443978092712_);" points="14.49,28.55 14.46,28.14 
			12.73,26.35 13.02,29.05 13.03,29.73 		"/>
		
			<linearGradient id="SVGID_00000162317669090595472990000007541341054325819021_" gradientUnits="userSpaceOnUse" x1="12.3115" y1="31.8842" x2="19.4677" y2="25.8289">
			<stop  offset="0" style="stop-color:#DD532D"/>
			<stop  offset="1" style="stop-color:#FEC474"/>
		</linearGradient>
		<polygon style="fill:url(#SVGID_00000162317669090595472990000007541341054325819021_);" points="14.67,31.01 14.52,28.94 
			13.27,29.95 		"/>
		
			<linearGradient id="SVGID_00000128456309760823463020000004521933435798391708_" gradientUnits="userSpaceOnUse" x1="12.3022" y1="31.8732" x2="19.4584" y2="25.818">
			<stop  offset="0" style="stop-color:#DD532D"/>
			<stop  offset="1" style="stop-color:#FEC474"/>
		</linearGradient>
		<path style="fill:url(#SVGID_00000128456309760823463020000004521933435798391708_);" d="M13.03,30.14v0.17
			c0,0.59,0.31,1.11,0.77,1.4c0.21-0.18,0.6-0.51,0.6-0.51L13.03,30.14z"/>
		
			<linearGradient id="SVGID_00000150819911497152499230000003315680163133653907_" gradientUnits="userSpaceOnUse" x1="13.2091" y1="32.945" x2="20.3653" y2="26.8898">
			<stop  offset="0" style="stop-color:#DD532D"/>
			<stop  offset="1" style="stop-color:#FEC474"/>
		</linearGradient>
		<path style="fill:url(#SVGID_00000150819911497152499230000003315680163133653907_);" d="M14.63,31.42l-0.52,0.45
			c0.18,0.07,0.38,0.1,0.58,0.1h0.05l-0.03-0.46L14.63,31.42z"/>
		
			<linearGradient id="SVGID_00000106860012302119156000000012890233785500522123_" gradientUnits="userSpaceOnUse" x1="12.303" y1="31.8742" x2="19.4592" y2="25.8189">
			<stop  offset="0" style="stop-color:#DD532D"/>
			<stop  offset="1" style="stop-color:#FEC474"/>
		</linearGradient>
		<polygon style="fill:url(#SVGID_00000106860012302119156000000012890233785500522123_);" points="14.88,28.59 14.98,30.72 
			16.13,29.7 		"/>
		
			<linearGradient id="SVGID_00000004519524168636885190000002494763701175139985_" gradientUnits="userSpaceOnUse" x1="11.0027" y1="30.3374" x2="18.1589" y2="24.2821">
			<stop  offset="0" style="stop-color:#DD532D"/>
			<stop  offset="1" style="stop-color:#FEC474"/>
		</linearGradient>
		<polygon style="fill:url(#SVGID_00000004519524168636885190000002494763701175139985_);" points="16.11,27.21 14.72,26.08 
			14.63,26.08 14.8,28.04 14.93,28.17 		"/>
		
			<linearGradient id="SVGID_00000174597248179869933010000002620860718202932896_" gradientUnits="userSpaceOnUse" x1="11.1365" y1="30.4956" x2="18.2927" y2="24.4403">
			<stop  offset="0" style="stop-color:#DD532D"/>
			<stop  offset="1" style="stop-color:#FEC474"/>
		</linearGradient>
		<polygon style="fill:url(#SVGID_00000174597248179869933010000002620860718202932896_);" points="16.35,27.03 16.35,27.03 
			16.35,27.03 16.35,27.03 16.36,27.03 16.36,27.03 16.36,27.03 16.36,27.03 16.36,27.03 16.36,27.03 17.51,26.08 16.36,26.08 
			16.35,26.08 15.2,26.08 16.35,27.03 		"/>
		
			<linearGradient id="SVGID_00000098901802622559799220000003615281761063813297_" gradientUnits="userSpaceOnUse" x1="12.3514" y1="31.9314" x2="19.5077" y2="25.8761">
			<stop  offset="0" style="stop-color:#DD532D"/>
			<stop  offset="1" style="stop-color:#FEC474"/>
		</linearGradient>
		<polygon style="fill:url(#SVGID_00000098901802622559799220000003615281761063813297_);" points="18.39,26.08 18.28,27.65 
			19.83,26.08 		"/>
		
			<linearGradient id="SVGID_00000038381252814121694080000017385198830783788713_" gradientUnits="userSpaceOnUse" x1="13.5543" y1="33.353" x2="20.7105" y2="27.2977">
			<stop  offset="0" style="stop-color:#DD532D"/>
			<stop  offset="1" style="stop-color:#FEC474"/>
		</linearGradient>
		<polygon style="fill:url(#SVGID_00000038381252814121694080000017385198830783788713_);" points="18.25,28.14 18.22,28.55 
			19.68,29.73 19.69,29.05 19.98,26.35 		"/>
		
			<linearGradient id="SVGID_00000002360458566126314430000001784310912523399560_" gradientUnits="userSpaceOnUse" x1="13.8217" y1="33.669" x2="20.9779" y2="27.6137">
			<stop  offset="0" style="stop-color:#DD532D"/>
			<stop  offset="1" style="stop-color:#FEC474"/>
		</linearGradient>
		<polygon style="fill:url(#SVGID_00000002360458566126314430000001784310912523399560_);" points="19.44,29.95 18.19,28.94 
			18.04,31.01 		"/>
		
			<linearGradient id="SVGID_00000031208919427416854250000000680774169570422972_" gradientUnits="userSpaceOnUse" x1="14.735" y1="34.7483" x2="21.8912" y2="28.693">
			<stop  offset="0" style="stop-color:#DD532D"/>
			<stop  offset="1" style="stop-color:#FEC474"/>
		</linearGradient>
		<path style="fill:url(#SVGID_00000031208919427416854250000000680774169570422972_);" d="M18.91,31.72
			c0.46-0.29,0.77-0.81,0.77-1.4v-0.17l-1.38,1.06C18.31,31.21,18.69,31.54,18.91,31.72z"/>
		
			<linearGradient id="SVGID_00000119110154265977163440000009994027270025870760_" gradientUnits="userSpaceOnUse" x1="14.7102" y1="34.719" x2="21.8664" y2="28.6637">
			<stop  offset="0" style="stop-color:#DD532D"/>
			<stop  offset="1" style="stop-color:#FEC474"/>
		</linearGradient>
		<path style="fill:url(#SVGID_00000119110154265977163440000009994027270025870760_);" d="M18,31.51l-0.03,0.46h0.05
			c0.2,0,0.4-0.04,0.58-0.1l-0.52-0.45L18,31.51z"/>
		
			<linearGradient id="SVGID_00000140727149951621585170000004981858733184930996_" gradientUnits="userSpaceOnUse" x1="13.495" y1="33.2829" x2="20.6512" y2="27.2276">
			<stop  offset="0" style="stop-color:#DD532D"/>
			<stop  offset="1" style="stop-color:#FEC474"/>
		</linearGradient>
		<polygon style="fill:url(#SVGID_00000140727149951621585170000004981858733184930996_);" points="17.74,30.72 17.83,28.59 
			16.58,29.7 		"/>
		
			<linearGradient id="SVGID_00000039111050778268522540000014726482011209154732_" gradientUnits="userSpaceOnUse" x1="12.2781" y1="31.8447" x2="19.4343" y2="25.7895">
			<stop  offset="0" style="stop-color:#DD532D"/>
			<stop  offset="1" style="stop-color:#FEC474"/>
		</linearGradient>
		<polygon style="fill:url(#SVGID_00000039111050778268522540000014726482011209154732_);" points="17.99,26.08 16.6,27.21 
			17.79,28.17 17.91,28.04 18.08,26.08 		"/>
		
			<linearGradient id="SVGID_00000166664426732600488150000012686243296048478102_" gradientUnits="userSpaceOnUse" x1="13.666" y1="33.485" x2="20.8222" y2="27.4297">
			<stop  offset="0" style="stop-color:#DD532D"/>
			<stop  offset="1" style="stop-color:#FEC474"/>
		</linearGradient>
		<polygon style="fill:url(#SVGID_00000166664426732600488150000012686243296048478102_);" points="16.36,29.92 16.36,29.92 
			16.36,29.92 16.36,29.92 16.35,29.92 16.35,29.92 16.35,29.92 16.35,29.92 14.98,31.12 14.98,31.26 15.73,31.97 16.35,31.97 
			16.36,31.97 16.98,31.97 17.73,31.26 17.73,31.12 16.36,29.92 		"/>
		
			<linearGradient id="SVGID_00000016772671215050768960000016643031956035907479_" gradientUnits="userSpaceOnUse" x1="12.295" y1="31.8647" x2="19.4512" y2="25.8094">
			<stop  offset="0" style="stop-color:#DD532D"/>
			<stop  offset="1" style="stop-color:#FEC474"/>
		</linearGradient>
		<polygon style="fill:url(#SVGID_00000016772671215050768960000016643031956035907479_);" points="16.36,29.49 16.36,29.49 
			16.36,29.49 17.56,28.39 16.36,27.43 16.36,27.43 16.36,27.43 16.36,27.43 16.36,27.43 16.36,27.43 16.35,27.43 16.35,27.43 
			16.35,27.43 16.35,27.43 16.35,27.43 15.15,28.39 16.35,29.49 16.35,29.49 16.35,29.49 16.35,29.49 16.35,29.49 16.36,29.49 
			16.36,29.49 16.36,29.49 		"/>
	</g>
	<path class="st29" d="M19.32,20.32c0,0.22-0.16,0.41-0.38,0.45l-4.9,0.79c-0.25,0.04-0.48-0.13-0.52-0.38
		c-0.04-0.25,0.13-0.48,0.38-0.52l4.9-0.79c0.25-0.04,0.48,0.13,0.52,0.38C19.32,20.27,19.32,20.29,19.32,20.32z"/>
	<path class="st29" d="M14.78,22.9c0.23,0.68,0.87,1.16,1.63,1.16c0.75,0,1.4-0.49,1.63-1.16H14.78z"/>
	<polygon points="16.5,25.95 16.5,25.96 16.4,25.95 	"/>
	<polygon points="16.4,25.95 16.3,25.96 16.3,25.95 	"/>
	<g>
		<g>
			
				<rect x="14.15" y="22.63" transform="matrix(0.9959 -0.091 0.091 0.9959 -2.1268 1.4014)" class="st30" width="0.31" height="2.79"/>
		</g>
	</g>
	<g>
		<g>
			<polygon class="st30" points="18.73,22.6 18.48,25.43 18.18,25.4 18.43,22.65 			"/>
		</g>
	</g>
	<g>
		<g>
			<g>
				
					<rect x="10.9" y="11.65" transform="matrix(0.9707 -0.2402 0.2402 0.9707 -4.155 3.2013)" class="st29" width="0.31" height="13.99"/>
			</g>
		</g>
	</g>
	<g>
		<g>
			
				<rect x="14.4" y="18.06" transform="matrix(0.2402 -0.9707 0.9707 0.2402 -1.0813 35.0361)" class="st11" width="14.88" height="0.31"/>
		</g>
	</g>
	<path class="st29" d="M20.6,25.68c0,0.11-0.04,0.21-0.12,0.28c-0.07,0.07-0.17,0.12-0.28,0.12h-7.66c-0.22,0-0.4-0.18-0.4-0.4
		c0-0.11,0.04-0.21,0.12-0.28c0.07-0.07,0.17-0.12,0.28-0.12h7.66C20.42,25.28,20.6,25.46,20.6,25.68z"/>
	<path class="st29" d="M19.32,21.63c0,0.22-0.16,0.41-0.38,0.45l-4.9,0.79c-0.25,0.04-0.48-0.13-0.52-0.38
		c-0.04-0.25,0.13-0.48,0.38-0.52l4.9-0.79c0.25-0.04,0.48,0.13,0.52,0.38C19.32,21.58,19.32,21.61,19.32,21.63z"/>
	<path d="M10.47,13.75c-0.03-0.03-0.06-0.06-0.09-0.1C10.41,13.69,10.44,13.72,10.47,13.75z"/>
	<path class="st31" d="M18.2,18.72c-0.07,0.18-0.18,0.37-0.33,0.55h-0.09c0.01-0.01,0.01-0.02,0.01-0.03
		c0.03-0.11,0.02-0.23,0.03-0.34c0-0.06,0.01-0.12,0.02-0.18H18.2z"/>
	
		<linearGradient id="SVGID_00000082326097783923215640000017788281315033680780_" gradientUnits="userSpaceOnUse" x1="17.899" y1="23.3757" x2="21.456" y2="5.1957">
		<stop  offset="0" style="stop-color:#DD532D"/>
		<stop  offset="1" style="stop-color:#FEC474"/>
	</linearGradient>
	<path style="fill:url(#SVGID_00000082326097783923215640000017788281315033680780_);" d="M24.53,8.62
		c-0.06,0.73-0.22,1.45-0.5,2.14c-0.03,0.08-0.06,0.15-0.09,0.23c0,0,0,0,0,0c0,0,0,0,0,0c0,0,0,0,0,0
		c-0.04,0.09-0.33,0.71-0.81,1.39c-0.16,0.22-0.33,0.45-0.53,0.66c0,0-0.01,0.01-0.01,0.01c-0.03,0.03-0.06,0.07-0.09,0.1
		c-0.35,0.35-0.73,0.68-1.09,1.02c-0.3,0.28-0.61,0.56-0.9,0.84c-0.15,0.15-0.29,0.31-0.4,0.5c-0.21,0.36-0.37,0.74-0.41,1.16
		c-0.03,0.26-0.03,0.52-0.04,0.79c-0.02,0.29-0.02,0.59-0.06,0.88c-0.04,0.27-0.13,0.52-0.29,0.73c0,0,0,0-0.01,0.01
		c-0.12,0.14-0.27,0.26-0.44,0.34c-0.17,0.08-0.36,0.11-0.55,0.14c-0.24,0.04-0.48,0.07-0.71,0.11c0,0,0,0,0,0l-0.23,0.04
		c0.22-0.12,0.39-0.27,0.53-0.43c0.03-0.04,0.06-0.08,0.09-0.12c0.02-0.02,0.03-0.05,0.05-0.07c0,0,0-0.01,0.01-0.01
		c0.01-0.01,0.01-0.02,0.02-0.03c0.02-0.03,0.03-0.05,0.05-0.08c0.01-0.01,0.02-0.03,0.02-0.04c0.01-0.01,0.01-0.02,0.02-0.03
		c0.01-0.02,0.02-0.03,0.02-0.05c0.01-0.02,0.02-0.04,0.02-0.06c0,0,0-0.01,0-0.01c0.01-0.01,0.01-0.03,0.02-0.04
		c0,0,0-0.01,0.01-0.01c0,0,0,0,0,0h0c0.01-0.03,0.02-0.06,0.03-0.08c0.14-0.41,0.16-0.86,0.18-1.3c0.01-0.16,0.01-0.31,0.01-0.47
		c0-0.5,0.07-0.99,0.21-1.47c0.15-0.52,0.41-0.99,0.79-1.38c0.36-0.37,0.75-0.7,1.16-1.01c0.56-0.44,1.1-0.9,1.55-1.46
		c0.57-0.7,0.96-1.49,1.18-2.37c0.17-0.68,0.21-1.38,0.13-2.07c-0.08-0.79-0.3-1.55-0.66-2.25c-0.14-0.26-0.28-0.52-0.44-0.77
		c-0.26-0.4-0.58-0.76-0.92-1.09c-0.2-0.2-0.44-0.36-0.66-0.54c-0.05-0.04-0.09-0.07-0.14-0.1c-0.55-0.41-1.16-0.72-1.82-0.92
		c-0.12-0.04-0.25-0.07-0.38-0.1l0,0c0,0,2.88,0.17,4.62,2.14c0,0,0,0,0,0v0h0c0.17,0.24,0.33,0.49,0.47,0.74
		c0.41,0.72,0.71,1.5,0.87,2.32C24.53,7.22,24.58,7.92,24.53,8.62z"/>
	<polygon points="23.04,3.47 23.04,3.47 23.04,3.46 	"/>
	
		<linearGradient id="SVGID_00000131357038804425404920000008392828365958509978_" gradientUnits="userSpaceOnUse" x1="15.6413" y1="23.1651" x2="15.6413" y2="0.2176">
		<stop  offset="0.3691" style="stop-color:#11555C"/>
		<stop  offset="1" style="stop-color:#37C3B5"/>
	</linearGradient>
	<path style="fill:url(#SVGID_00000131357038804425404920000008392828365958509978_);" d="M23.04,3.46
		c-1.74-1.97-4.62-2.14-4.62-2.14c-0.44-0.1-0.89-0.14-1.34-0.16c-0.59-0.03-1.18,0.01-1.76,0.11c-0.99,0.17-1.9,0.55-2.74,1.09
		c-0.59,0.38-1.1,0.85-1.55,1.39c-0.38,0.45-0.71,0.94-0.97,1.48c-0.58,1.21-0.8,2.49-0.64,3.83c0.12,1.03,0.47,1.97,1.03,2.84
		c0.42,0.66,0.97,1.21,1.53,1.75c0.26,0.25,0.52,0.5,0.75,0.77c0.33,0.38,0.59,0.8,0.79,1.26c0.24,0.59,0.34,1.2,0.38,1.83
		c0.01,0.22,0.03,0.45,0.06,0.67c0.04,0.28,0.21,0.48,0.5,0.52c0.03,0,0.06,0.01,0.09,0.01h3.64l0,0c0,0,0,0.01-0.01,0.01
		c-0.01,0.01-0.01,0.03-0.02,0.04c0,0,0,0.01,0,0.01c-0.01,0.02-0.02,0.04-0.02,0.06c-0.01,0.02-0.01,0.03-0.02,0.05
		c0,0.01-0.01,0.02-0.02,0.03c-0.01,0.01-0.01,0.03-0.02,0.04c-0.01,0.03-0.03,0.05-0.05,0.08c-0.01,0.01-0.01,0.02-0.02,0.03
		c0,0,0,0.01-0.01,0.01c-0.02,0.02-0.03,0.05-0.05,0.07c-0.03,0.04-0.06,0.08-0.09,0.12c-0.14,0.16-0.31,0.31-0.53,0.43l-3.31,0.54
		c-0.25,0.04-0.48-0.13-0.52-0.38c-0.04-0.24,0.12-0.47,0.35-0.52l-0.16-0.14l0,0c-0.31-0.27-0.47-0.63-0.5-1.05
		c-0.02-0.26-0.04-0.51-0.05-0.77c-0.06-0.76-0.34-1.41-0.88-1.95c-0.33-0.33-0.69-0.65-1.04-0.96c-0.26-0.24-0.52-0.48-0.77-0.73
		c-0.03-0.03-0.06-0.06-0.09-0.1c0,0,0,0,0,0c-0.15-0.17-0.3-0.34-0.43-0.52c-0.01-0.02-0.03-0.03-0.04-0.05
		c-0.46-0.64-0.89-1.41-0.92-1.46c0,0,0,0,0,0c-0.37-0.77-0.6-1.59-0.69-2.45C8.26,8.83,8.23,8.48,8.24,8.14
		c0.01-0.88,0.17-1.75,0.47-2.58c0.4-1.12,1.02-2.1,1.83-2.96c0.88-0.93,1.93-1.61,3.13-2.05c0.76-0.28,1.54-0.43,2.33-0.5
		C16.47,0,16.95,0.04,17.41,0.1c0.74,0.1,1.46,0.28,2.15,0.57c0.8,0.34,1.53,0.79,2.19,1.36C22.25,2.46,22.67,2.94,23.04,3.46z"/>
	<g>
		<path class="st11" d="M17.67,18.72V17.1c0-0.14-0.07-0.26-0.19-0.33l-0.2-0.12c-0.02-0.01-0.04-0.04-0.04-0.07v-0.53
			c0-0.39-0.32-0.71-0.71-0.71c-0.39,0-0.71,0.32-0.71,0.71v0.53c0,0.03-0.01,0.05-0.04,0.07l-0.2,0.12
			c-0.12,0.07-0.19,0.2-0.19,0.33v1.62h-0.23c0,0,0.14,0.54,2.9,0.24c0.04-0.08,0.08-0.16,0.11-0.24H17.67z M15.71,18.72V17.1
			c0-0.03,0.02-0.06,0.04-0.07l0.2-0.12c0.11-0.07,0.18-0.19,0.18-0.33v-0.53c0-0.22,0.18-0.41,0.41-0.41s0.41,0.18,0.41,0.41v0.53
			c0,0.13,0.07,0.26,0.18,0.33l0.2,0.12c0.02,0.02,0.04,0.04,0.04,0.07v1.62H15.71z"/>
	</g>
</g>
</svg>
