<?xml version="1.0" encoding="utf-8"?>
<!-- Generator: Adobe Illustrator 27.8.1, SVG Export Plug-In . SVG Version: 6.00 Build 0)  -->
<svg version="1.1" id="Слой_1" xmlns="http://www.w3.org/2000/svg" xmlns:xlink="http://www.w3.org/1999/xlink" x="0px" y="0px"
	 viewBox="0 0 16 16" style="enable-background:new 0 0 16 16;" xml:space="preserve">
<style type="text/css">
	.st0{fill:#FFFFFF;}
	.st1{fill:url(#SVGID_1_);}
	.st2{fill:url(#SVGID_00000141423952639813344580000011837636274838688693_);}
	.st3{fill:url(#SVGID_00000018196965865221826390000000040497313826941352_);}
	.st4{fill:url(#SVGID_00000131364767794136446230000000445315849441040270_);}
	.st5{fill:url(#SVGID_00000076599420032065602200000002612358310803752628_);}
	.st6{fill:url(#SVGID_00000078758697995449788570000012271518886283642277_);}
	.st7{fill:url(#SVGID_00000138531061349340994230000006535700050126628001_);}
	.st8{fill:url(#SVGID_00000170977683464402853720000013847828147715815603_);}
	.st9{fill:url(#SVGID_00000170963137808882477490000005785820717864802456_);}
	.st10{fill:url(#SVGID_00000072979233442381683830000017518856120589449384_);}
	.st11{fill:#624330;}
	.st12{fill:url(#SVGID_00000108283092914716475270000002254266534193182887_);}
	.st13{fill:url(#SVGID_00000013178373665896569130000003449652160496032415_);}
	.st14{fill:url(#SVGID_00000148661397488153189700000014205123751811360148_);}
	.st15{fill:url(#SVGID_00000136384176987596768330000000842585963180385181_);}
	.st16{fill:url(#SVGID_00000145769896915992164390000016951676552859428775_);}
	.st17{fill:url(#SVGID_00000064317581620000501550000009580494562115272604_);}
	.st18{fill:url(#SVGID_00000090998751140701135500000001272491904148391043_);}
	.st19{fill:url(#SVGID_00000146485029732800295790000017919664792285719476_);}
	.st20{fill:url(#SVGID_00000079485964127919770040000000625157050357192335_);}
	.st21{fill:url(#SVGID_00000034771640998778670230000002466311146955451034_);}
	.st22{fill:url(#SVGID_00000059988627348018025610000015098082142394498435_);}
	.st23{fill:url(#SVGID_00000181767757526059465400000004086272668278568383_);}
	.st24{fill:url(#SVGID_00000111899563001112181810000007434946750749984942_);}
	.st25{fill:url(#SVGID_00000044857652718859347090000010871757571753701010_);}
	.st26{fill:url(#SVGID_00000062871939037764619790000014722409016514126774_);}
	.st27{fill:url(#SVGID_00000044865009468875452360000004415754128983320466_);}
	.st28{fill:url(#SVGID_00000023270776466611758940000017586045840539338151_);}
	.st29{fill:#16505C;}
	.st30{fill:#614630;}
	.st31{opacity:0.5;}
	.st32{fill:url(#SVGID_00000135687849701452971290000005796100867756617638_);}
	.st33{fill:url(#SVGID_00000111190014586159974580000015209570572967436196_);}
	.st34{fill:url(#SVGID_00000062191999770729430650000015561388066786024848_);}
	.st35{fill:url(#SVGID_00000044176898846040657010000005960433650289793161_);}
	.st36{fill:url(#SVGID_00000054263149672917852470000017717859001806915466_);}
	.st37{fill:url(#SVGID_00000070094042334203091490000009884366973334261426_);}
	.st38{fill:url(#SVGID_00000054978045881434545270000003996968124757951404_);}
	.st39{fill:url(#SVGID_00000150084676107015109060000012106553382221834656_);}
	.st40{fill:url(#SVGID_00000079487374138042454700000003545086111211814052_);}
	.st41{fill:url(#SVGID_00000181076888138360541250000016751430200559392936_);}
	.st42{fill:url(#SVGID_00000066479168602160843370000010928194303526134423_);}
	.st43{fill:url(#SVGID_00000100344524155601530320000004889366450605080449_);}
	.st44{fill:url(#SVGID_00000127726310256066253500000006209545721478428817_);}
	.st45{fill:url(#SVGID_00000109737370820995104840000003077112025881900479_);}
	.st46{fill:url(#SVGID_00000056405078031728566740000014495327357883788734_);}
	.st47{fill:url(#SVGID_00000051345393244740491490000009289487731479963040_);}
	.st48{fill:url(#SVGID_00000047747900384107455970000001683209985431349667_);}
	.st49{fill:url(#SVGID_00000165939768507407593130000001535429647405461172_);}
	.st50{fill:url(#SVGID_00000092439171914346032770000015901113513213944993_);}
	.st51{fill:url(#SVGID_00000170958569368480785430000013939989045721043638_);}
	.st52{fill:url(#SVGID_00000072257682048903256070000012657394829728848062_);}
	.st53{fill:url(#SVGID_00000156556348243013603390000007959338740165631646_);}
	.st54{fill:url(#SVGID_00000003094923769051310410000001854850790567847558_);}
	.st55{fill:url(#SVGID_00000001630423337448261340000008235735807098847626_);}
	.st56{fill:url(#SVGID_00000006703602536597640940000015992597947293171383_);}
	.st57{fill:url(#SVGID_00000047060612430932335240000003462374510606376852_);}
	.st58{fill:url(#SVGID_00000056413028113495310830000003522143148514331054_);}
	.st59{fill:url(#SVGID_00000102526839820723564860000007133560647236099736_);}
	.st60{fill:url(#SVGID_00000169539710046021909480000008257671715400439954_);}
	.st61{fill:url(#SVGID_00000055683447909326321400000011185059148428272809_);}
	.st62{fill:url(#SVGID_00000155837484340205061080000005960324409283877041_);}
	.st63{fill:url(#SVGID_00000152233444758494787690000010489758014908861597_);}
	.st64{fill:url(#SVGID_00000134244266292673104070000006624711864946390700_);}
	.st65{fill:url(#SVGID_00000036941466613017055300000015021737730087728306_);}
	.st66{fill:url(#SVGID_00000088816920573192361210000013809840013464961215_);}
	.st67{fill:url(#SVGID_00000157988646041291266190000010417378546866939039_);}
	.st68{fill:url(#SVGID_00000175280203159489027810000001195356562029986738_);}
	.st69{fill:url(#SVGID_00000095308165457613972670000012225227009489737098_);}
	.st70{fill:url(#SVGID_00000132801297416837298560000004877126848012967357_);}
	.st71{fill:url(#SVGID_00000153702345058000042690000013986121628202773925_);}
	.st72{fill:url(#SVGID_00000182502062940440750090000006061158326641685159_);}
	.st73{fill:url(#SVGID_00000101078125387487129560000009870853896775909036_);}
	.st74{fill:url(#SVGID_00000056401734723610415810000000561914723064995769_);}
	.st75{fill:url(#SVGID_00000104674434265920541960000005688683570793910704_);}
	.st76{fill:url(#SVGID_00000158025587186856359090000016036845325843249585_);}
	.st77{fill:url(#SVGID_00000018915467741508625370000011906638615896302774_);}
	.st78{fill:url(#SVGID_00000047025668390469877180000013087629777035904647_);}
	.st79{fill:url(#SVGID_00000085228171860503107210000001064148527606155944_);}
	.st80{fill:url(#SVGID_00000023994962894437589760000002018122858821513359_);}
	.st81{fill:url(#SVGID_00000049918668987389734000000004304890224271651983_);}
	.st82{fill:url(#SVGID_00000139994710207078448510000000701828682034253467_);}
	.st83{fill:url(#SVGID_00000049184829918423380280000018159837424463464850_);}
	.st84{fill:url(#SVGID_00000076578285924102810550000002256437355301963428_);}
	.st85{fill:url(#SVGID_00000153664205876594378510000011357580580030625679_);}
	.st86{fill:url(#SVGID_00000062879397962955114300000003819901994415635851_);}
	.st87{fill:url(#SVGID_00000174581025011025798740000000322240003260576414_);}
	.st88{fill:url(#SVGID_00000141414478915954157810000009388153158925187481_);}
	.st89{fill:url(#SVGID_00000024716938813573496430000015337198436689400495_);}
	.st90{fill:url(#SVGID_00000062154535433335734110000006210204723072145833_);}
	.st91{fill:url(#SVGID_00000043425841621587736520000011403559416480814772_);}
	.st92{fill:url(#SVGID_00000092431032349753941160000009299288864895235501_);}
	.st93{fill:url(#SVGID_00000110456183088318805720000014758899487487296930_);}
	.st94{fill:url(#SVGID_00000034786997729339437510000013352024023188117404_);}
	.st95{fill:url(#SVGID_00000089563238185956862370000002686290578048740996_);}
	.st96{fill:url(#SVGID_00000039118643739772916430000004514624291031644841_);}
	.st97{fill:url(#SVGID_00000075165040530826044890000011639347280552035470_);}
	.st98{fill:url(#SVGID_00000062909125871693603590000000717301141768347536_);}
	.st99{fill:url(#SVGID_00000044865807257540945040000013088326220628082853_);}
	.st100{fill:url(#SVGID_00000089531941455296282400000017429465035086741180_);}
	.st101{fill:url(#SVGID_00000176004527670117913870000005723578278638678704_);}
	.st102{fill:url(#SVGID_00000021098863467332558110000016711780682230809515_);}
	.st103{fill:url(#SVGID_00000065797260945086777380000009717624808124815772_);}
	.st104{fill:url(#SVGID_00000068649028443901692470000007854104788366409613_);}
	.st105{fill:url(#SVGID_00000054983536128845885740000008119657468038573211_);}
	.st106{fill:url(#SVGID_00000162352451098098223140000002508160018275362218_);}
	.st107{fill:url(#SVGID_00000091711851612758879040000003786323178973002903_);}
	.st108{fill:url(#SVGID_00000136396620334736291480000009120309559559727521_);}
	.st109{fill:url(#SVGID_00000136374723625041226440000007286858849556976773_);}
	.st110{fill:url(#SVGID_00000145029810982400806410000011245391451549302680_);}
	.st111{fill:url(#SVGID_00000045580531370381736450000015787425402934742188_);}
	.st112{fill:url(#SVGID_00000128470364740183952030000005930267156002907068_);}
	.st113{fill:url(#SVGID_00000021832837847738427170000008563030420675000710_);}
	.st114{fill:url(#SVGID_00000104685417220987260880000018252113306730369684_);}
	.st115{fill:url(#SVGID_00000010308962134956907900000009846677671214260618_);}
	.st116{fill:url(#SVGID_00000014601639196844937710000010627857026713940388_);}
	.st117{fill:url(#SVGID_00000096032257348573233160000014071839509981145499_);}
	.st118{fill:url(#SVGID_00000150802247784247844740000001495717650684291239_);}
	.st119{fill:url(#SVGID_00000082367409209443475940000018266022145594935740_);}
	.st120{fill:url(#SVGID_00000034804049402727714550000016527044421601011861_);}
	.st121{fill:url(#SVGID_00000121279891736361733710000004918529472280979110_);}
	.st122{fill:url(#SVGID_00000121961591464312752990000013560864947933390503_);}
	.st123{fill:url(#SVGID_00000034081824538641214390000009303430771666033587_);}
	.st124{fill:url(#SVGID_00000090291451857144072010000013450955699762023838_);}
	.st125{fill:url(#SVGID_00000173872199267174251370000011010672797842328751_);}
	.st126{fill:url(#SVGID_00000005247187096396000020000013268965785220915620_);}
	.st127{fill:url(#SVGID_00000109001702081685401800000016148350919823396026_);}
	.st128{fill:url(#SVGID_00000158714695384255237920000014542246289702502844_);}
	.st129{fill:url(#SVGID_00000124881490292527639440000008520493913814128309_);}
	.st130{fill:url(#SVGID_00000098911940601388820870000008547552328934072198_);}
	.st131{fill:url(#SVGID_00000078015795837187661490000005289474213077267349_);}
	.st132{fill:url(#SVGID_00000137847175307624112280000003089838012211966378_);}
	.st133{fill:url(#SVGID_00000127731260621486633430000007288228044694184843_);}
	.st134{fill:url(#SVGID_00000033348628569649399210000007458859267665279379_);}
	.st135{fill:url(#SVGID_00000013885718270106510550000007866330401437439146_);}
	.st136{fill:url(#SVGID_00000069392578621270464560000017030581354143749264_);}
	.st137{fill:url(#SVGID_00000145053781951532406830000012468866779855010495_);}
	.st138{fill:url(#SVGID_00000126297029198051035490000013022887003391721349_);}
	.st139{fill:url(#SVGID_00000098926893839541012540000014354259836473950607_);}
	.st140{fill:url(#SVGID_00000119119030339689974300000008151888553507928510_);}
	.st141{fill:url(#SVGID_00000062178395666738110430000014736245643748859836_);}
	.st142{fill:url(#SVGID_00000075864543149980997960000011465295062942523533_);}
	.st143{fill:url(#SVGID_00000118376165035383035990000009431454770264593822_);}
	.st144{fill:url(#SVGID_00000091015870675737997070000001957673832850963122_);}
	.st145{fill:url(#SVGID_00000121280483640398500710000005899427500379879056_);}
	.st146{fill:url(#SVGID_00000015338278407513517090000000565638494781984424_);}
	.st147{fill:url(#SVGID_00000142855442861061348940000013180485219215142306_);}
	.st148{fill:url(#SVGID_00000005234697085419027970000017077782627691333308_);}
	.st149{fill:url(#SVGID_00000050648470272832845660000005501329942730092713_);}
</style>
<g>
	<path class="st0" d="M11.46,4.58c-0.11,0.44-0.31,0.83-0.59,1.19c-0.23,0.28-0.49,0.51-0.78,0.73C9.89,6.65,9.69,6.82,9.51,7
		C9.32,7.2,9.19,7.43,9.12,7.7c-0.07,0.24-0.1,0.49-0.1,0.74c0,0.08,0,0.16-0.01,0.23C9,8.89,8.99,9.12,8.92,9.32
		c0,0.01-0.01,0.03-0.02,0.04H7.08c-0.02,0-0.03,0-0.05-0.01C6.89,9.34,6.81,9.24,6.78,9.1C6.77,8.99,6.76,8.88,6.75,8.76
		C6.73,8.45,6.68,8.14,6.56,7.85C6.46,7.61,6.33,7.4,6.17,7.21C6.05,7.08,5.92,6.95,5.79,6.83C5.51,6.56,5.23,6.29,5.02,5.95
		C4.75,5.52,4.57,5.05,4.51,4.53C4.43,3.86,4.54,3.22,4.83,2.61C4.96,2.34,5.12,2.1,5.31,1.87c0.23-0.27,0.48-0.51,0.78-0.7
		C6.51,0.9,6.97,0.71,7.47,0.63c0.29-0.05,0.59-0.07,0.88-0.06C8.57,0.58,8.8,0.6,9.02,0.65l0,0C9.08,0.66,9.14,0.68,9.2,0.7
		c0.33,0.1,0.63,0.25,0.91,0.46c0.02,0.02,0.05,0.03,0.07,0.05c0.11,0.09,0.23,0.17,0.33,0.27c0.17,0.16,0.33,0.34,0.46,0.55
		c0.08,0.12,0.15,0.25,0.22,0.38c0.18,0.35,0.29,0.73,0.33,1.13C11.57,3.89,11.55,4.24,11.46,4.58z"/>
	<g>
		<linearGradient id="SVGID_1_" gradientUnits="userSpaceOnUse" x1="6.4611" y1="7.1057" x2="6.4611" y2="3.1901">
			<stop  offset="0.3691" style="stop-color:#11555C"/>
			<stop  offset="1" style="stop-color:#37C3B5"/>
		</linearGradient>
		<path class="st1" d="M8.08,5.06c0-0.08,0-0.17-0.01-0.25c0-0.03-0.01-0.07-0.02-0.1C8.04,4.65,8.01,4.62,7.95,4.61
			C7.89,4.61,7.82,4.6,7.76,4.6c-0.04,0-0.07-0.02-0.09-0.06C7.63,4.47,7.6,4.41,7.56,4.35C7.53,4.29,7.54,4.25,7.57,4.2
			c0.04-0.05,0.06-0.12,0.09-0.17c0.03-0.06,0.02-0.1-0.03-0.14C7.54,3.8,7.45,3.73,7.35,3.66C7.29,3.62,7.28,3.62,7.22,3.67
			C7.16,3.71,7.11,3.76,7.06,3.81C7.03,3.83,7,3.83,6.97,3.82C6.9,3.8,6.83,3.78,6.76,3.76C6.71,3.75,6.68,3.72,6.67,3.67
			C6.65,3.6,6.62,3.53,6.6,3.46C6.59,3.41,6.56,3.39,6.51,3.38C6.38,3.37,6.26,3.39,6.13,3.42C6.09,3.42,6.07,3.45,6.06,3.49
			C6.06,3.57,6.05,3.64,6.04,3.71c0,0.06-0.02,0.09-0.08,0.11C5.91,3.84,5.86,3.87,5.81,3.9c-0.05,0.04-0.1,0.04-0.15,0.01
			C5.61,3.87,5.55,3.84,5.5,3.82c-0.01,0-0.02-0.01-0.03-0.01C5.43,3.79,5.39,3.79,5.36,3.82c-0.01,0-0.01,0.01-0.01,0.01
			C5.28,3.91,5.2,3.99,5.14,4.07c-0.06,0.08-0.06,0.11,0.01,0.2c0.04,0.05,0.07,0.1,0.11,0.14c0.03,0.03,0.03,0.07,0.02,0.11
			C5.25,4.58,5.23,4.63,5.21,4.69C5.2,4.76,5.16,4.79,5.1,4.8C5.04,4.81,4.98,4.83,4.93,4.84C4.87,4.86,4.84,4.9,4.84,4.95
			c0,0.12,0.01,0.23,0.02,0.35c0,0.06,0.04,0.1,0.1,0.11C5.03,5.42,5.1,5.43,5.17,5.44c0.04,0,0.07,0.02,0.09,0.06
			c0.03,0.06,0.06,0.12,0.09,0.18c0.02,0.03,0.01,0.06,0,0.09c-0.04,0.06-0.07,0.11-0.1,0.17C5.22,6.01,5.23,6.08,5.28,6.13
			C5.35,6.19,5.43,6.25,5.5,6.3c0.08,0.07,0.1,0.07,0.19,0c0.05-0.04,0.1-0.08,0.15-0.12c0.04-0.03,0.07-0.04,0.12-0.01
			C6,6.21,6.05,6.22,6.11,6.23c0.07,0.01,0.1,0.04,0.11,0.1C6.23,6.4,6.25,6.46,6.27,6.51C6.29,6.57,6.33,6.61,6.39,6.6
			C6.5,6.6,6.62,6.6,6.73,6.59c0.06,0,0.1-0.05,0.11-0.1c0.01-0.06,0.02-0.11,0.02-0.17c0-0.07,0.03-0.11,0.09-0.14
			C7,6.16,7.06,6.13,7.11,6.1c0.05-0.03,0.08-0.02,0.12,0c0.05,0.04,0.11,0.06,0.16,0.1c0.05,0.03,0.09,0.03,0.14,0
			c0.11-0.07,0.18-0.17,0.25-0.28c0.04-0.06,0.04-0.11,0-0.17C7.74,5.72,7.7,5.67,7.67,5.63C7.62,5.59,7.61,5.55,7.64,5.49
			c0.02-0.05,0.05-0.11,0.06-0.16c0.01-0.06,0.05-0.08,0.1-0.09c0.07-0.02,0.14-0.04,0.21-0.06C8.06,5.15,8.08,5.12,8.08,5.06z
			 M6.46,5.89c-0.5,0-0.9-0.4-0.9-0.9c0-0.5,0.4-0.9,0.9-0.9c0.5,0,0.9,0.4,0.9,0.9C7.36,5.49,6.96,5.89,6.46,5.89z"/>
		
			<linearGradient id="SVGID_00000176737233317707549130000004757724613942909098_" gradientUnits="userSpaceOnUse" x1="6.4611" y1="7.1057" x2="6.4611" y2="3.1901">
			<stop  offset="0.3691" style="stop-color:#11555C"/>
			<stop  offset="1" style="stop-color:#37C3B5"/>
		</linearGradient>
		<path style="fill:url(#SVGID_00000176737233317707549130000004757724613942909098_);" d="M6.46,4.27c-0.4,0-0.72,0.32-0.72,0.72
			c0,0.4,0.32,0.72,0.72,0.72c0.4,0,0.72-0.32,0.72-0.72C7.18,4.59,6.86,4.27,6.46,4.27z M6.46,5.53c-0.3,0-0.54-0.24-0.54-0.54
			c0-0.3,0.24-0.54,0.54-0.54C6.76,4.46,7,4.7,7,4.99C7,5.29,6.76,5.53,6.46,5.53z"/>
	</g>
	<g>
		<g>
			
				<linearGradient id="SVGID_00000024003477694530427280000005899167176140987026_" gradientUnits="userSpaceOnUse" x1="9.6371" y1="1.712" x2="9.6371" y2="5.1329">
				<stop  offset="0" style="stop-color:#F8A074"/>
				<stop  offset="1" style="stop-color:#F56A4C"/>
			</linearGradient>
			<path style="fill:url(#SVGID_00000024003477694530427280000005899167176140987026_);" d="M11.41,3.78c0-0.09,0.01-0.19,0.01-0.28
				c0-0.04-0.01-0.07-0.02-0.11c-0.01-0.06-0.05-0.1-0.11-0.1c-0.07-0.01-0.14-0.02-0.21-0.03c-0.05,0-0.08-0.02-0.1-0.07
				c-0.03-0.07-0.06-0.14-0.1-0.21c-0.04-0.06-0.02-0.11,0.02-0.17c0.04-0.06,0.07-0.12,0.11-0.19c0.03-0.06,0.02-0.11-0.03-0.16
				c-0.1-0.09-0.19-0.17-0.3-0.25c-0.06-0.05-0.08-0.04-0.15,0c-0.06,0.05-0.12,0.09-0.19,0.14c-0.03,0.02-0.06,0.03-0.1,0.01
				c-0.08-0.03-0.15-0.06-0.23-0.08c-0.05-0.02-0.08-0.04-0.09-0.1C9.91,2.12,9.88,2.04,9.86,1.96c-0.01-0.05-0.04-0.08-0.1-0.08
				c-0.14-0.02-0.28,0-0.42,0.02C9.3,1.9,9.28,1.93,9.27,1.97C9.26,2.05,9.24,2.13,9.24,2.21c0,0.06-0.03,0.1-0.1,0.12
				C9.08,2.35,9.02,2.37,8.97,2.41c-0.06,0.04-0.11,0.04-0.16,0C8.76,2.37,8.69,2.34,8.63,2.3C8.62,2.3,8.61,2.29,8.6,2.29
				C8.56,2.27,8.52,2.27,8.49,2.29c-0.01,0-0.01,0.01-0.02,0.01C8.39,2.39,8.3,2.48,8.23,2.57c-0.07,0.09-0.07,0.12,0,0.22
				C8.26,2.84,8.3,2.89,8.34,2.95c0.03,0.04,0.03,0.08,0.01,0.12C8.33,3.13,8.3,3.19,8.28,3.25c-0.02,0.07-0.06,0.1-0.14,0.11
				C8.08,3.37,8.02,3.38,7.96,3.4c-0.06,0.02-0.1,0.05-0.1,0.12c0,0.13,0,0.26,0.01,0.38c0,0.06,0.04,0.11,0.1,0.12
				C8.05,4.04,8.12,4.05,8.2,4.07c0.05,0.01,0.08,0.03,0.1,0.07c0.03,0.07,0.06,0.14,0.1,0.2c0.02,0.04,0.01,0.07-0.01,0.1
				C8.34,4.5,8.3,4.57,8.26,4.63c-0.04,0.06-0.03,0.15,0.03,0.2c0.07,0.07,0.15,0.14,0.23,0.2C8.61,5.1,8.63,5.11,8.73,5.04
				C8.78,5,8.84,4.96,8.89,4.92c0.04-0.03,0.08-0.04,0.14,0c0.05,0.03,0.1,0.05,0.16,0.06C9.27,4.99,9.3,5.03,9.31,5.1
				c0.01,0.07,0.03,0.13,0.05,0.19C9.37,5.36,9.41,5.4,9.49,5.4c0.12,0,0.25,0,0.37,0c0.06,0,0.11-0.05,0.13-0.11
				c0.01-0.06,0.03-0.12,0.03-0.18c0-0.08,0.03-0.12,0.11-0.15c0.06-0.02,0.12-0.04,0.18-0.08c0.05-0.03,0.09-0.02,0.14,0.01
				c0.06,0.04,0.12,0.08,0.17,0.12c0.05,0.04,0.1,0.03,0.15,0c0.12-0.07,0.2-0.18,0.28-0.29c0.05-0.06,0.05-0.12,0-0.18
				c-0.04-0.05-0.07-0.1-0.11-0.14c-0.04-0.05-0.05-0.1-0.02-0.16c0.03-0.06,0.05-0.12,0.07-0.18c0.02-0.06,0.05-0.09,0.12-0.1
				c0.08-0.01,0.16-0.04,0.24-0.06C11.38,3.88,11.41,3.85,11.41,3.78z M9.59,4.62C9.05,4.6,8.63,4.14,8.65,3.59
				c0.02-0.54,0.48-0.97,1.03-0.94c0.54,0.02,0.97,0.48,0.94,1.03C10.6,4.22,10.14,4.64,9.59,4.62z"/>
			
				<linearGradient id="SVGID_00000157268276365681345030000016162245871140315269_" gradientUnits="userSpaceOnUse" x1="9.6355" y1="1.712" x2="9.6355" y2="5.1329">
				<stop  offset="0" style="stop-color:#F8A074"/>
				<stop  offset="1" style="stop-color:#F56A4C"/>
			</linearGradient>
			<path style="fill:url(#SVGID_00000157268276365681345030000016162245871140315269_);" d="M9.67,2.84
				C9.23,2.83,8.86,3.17,8.85,3.6C8.83,4.04,9.17,4.41,9.6,4.43c0.44,0.02,0.81-0.32,0.82-0.76C10.44,3.23,10.11,2.86,9.67,2.84z
				 M9.61,4.22C9.29,4.21,9.03,3.94,9.05,3.61c0.01-0.33,0.29-0.58,0.61-0.56c0.33,0.01,0.58,0.29,0.56,0.61
				C10.21,3.98,9.94,4.24,9.61,4.22z"/>
		</g>
	</g>
	<g>
		
			<linearGradient id="SVGID_00000067200264688728479210000001731611714489715338_" gradientUnits="userSpaceOnUse" x1="8.7494" y1="7.3499" x2="8.7494" y2="5.2596">
			<stop  offset="0.3691" style="stop-color:#11555C"/>
			<stop  offset="1" style="stop-color:#37C3B5"/>
		</linearGradient>
		<path style="fill:url(#SVGID_00000067200264688728479210000001731611714489715338_);" d="M9.71,6.41c0-0.05,0.01-0.1,0.01-0.15
			c0-0.02,0-0.04-0.01-0.06C9.7,6.17,9.68,6.15,9.65,6.14C9.61,6.13,9.58,6.13,9.54,6.12c-0.03,0-0.04-0.01-0.05-0.04
			C9.47,6.04,9.45,6,9.43,5.96C9.41,5.93,9.42,5.9,9.45,5.87c0.02-0.03,0.04-0.07,0.06-0.1C9.53,5.74,9.52,5.71,9.5,5.69
			c-0.05-0.05-0.1-0.1-0.16-0.14c-0.03-0.03-0.04-0.03-0.08,0c-0.04,0.02-0.07,0.05-0.1,0.07C9.14,5.63,9.12,5.63,9.1,5.62
			C9.06,5.61,9.02,5.59,8.98,5.58C8.95,5.57,8.94,5.55,8.93,5.52C8.92,5.48,8.91,5.43,8.9,5.39C8.9,5.36,8.88,5.35,8.85,5.34
			c-0.08-0.01-0.15-0.01-0.23,0c-0.03,0-0.04,0.02-0.04,0.04C8.57,5.43,8.56,5.47,8.56,5.52c0,0.03-0.02,0.05-0.06,0.06
			C8.47,5.58,8.44,5.6,8.41,5.62c-0.03,0.02-0.06,0.02-0.09,0c-0.03-0.02-0.06-0.04-0.1-0.06c-0.01,0-0.01-0.01-0.02-0.01
			c-0.02-0.01-0.04-0.01-0.06,0c0,0-0.01,0-0.01,0.01C8.09,5.6,8.05,5.64,8,5.69C7.96,5.74,7.96,5.75,8,5.81
			C8.02,5.84,8.04,5.87,8.06,5.9c0.01,0.02,0.02,0.04,0,0.07c-0.02,0.03-0.03,0.06-0.04,0.1C8.01,6.1,7.98,6.11,7.95,6.12
			c-0.03,0-0.07,0.01-0.1,0.02C7.81,6.14,7.79,6.16,7.79,6.2c0,0.07,0,0.14,0,0.21c0,0.04,0.02,0.06,0.05,0.07
			C7.88,6.48,7.92,6.49,7.96,6.5c0.03,0,0.04,0.02,0.05,0.04c0.01,0.04,0.03,0.08,0.05,0.11c0.01,0.02,0.01,0.04-0.01,0.05
			c-0.02,0.03-0.05,0.06-0.07,0.1C7.96,6.84,7.97,6.89,8,6.92c0.04,0.04,0.08,0.08,0.12,0.11c0.05,0.04,0.06,0.04,0.11,0.01
			C8.26,7.02,8.29,7,8.32,6.98c0.02-0.02,0.04-0.02,0.07,0C8.42,7,8.45,7.01,8.48,7.02c0.04,0.01,0.06,0.03,0.06,0.07
			c0,0.04,0.01,0.07,0.02,0.11c0.01,0.04,0.03,0.06,0.07,0.06c0.07,0,0.13,0.01,0.2,0c0.03,0,0.06-0.02,0.07-0.05
			c0.01-0.03,0.02-0.07,0.02-0.1c0-0.04,0.02-0.07,0.06-0.08C9.02,7.01,9.05,7,9.08,6.99C9.11,6.97,9.13,6.98,9.15,7
			c0.03,0.02,0.06,0.04,0.09,0.07c0.03,0.02,0.05,0.02,0.08,0c0.07-0.04,0.11-0.09,0.16-0.15c0.03-0.03,0.03-0.07,0-0.1
			C9.47,6.79,9.46,6.76,9.43,6.73C9.41,6.7,9.41,6.68,9.42,6.65c0.02-0.03,0.03-0.06,0.04-0.1C9.48,6.52,9.5,6.5,9.53,6.5
			c0.04-0.01,0.09-0.02,0.13-0.03C9.69,6.46,9.71,6.44,9.71,6.41z M8.71,6.83c-0.3-0.02-0.52-0.28-0.49-0.58
			c0.02-0.3,0.28-0.52,0.58-0.49c0.3,0.02,0.52,0.28,0.49,0.58C9.26,6.63,9,6.85,8.71,6.83z"/>
		
			<linearGradient id="SVGID_00000034774922869653432370000005103576927720405653_" gradientUnits="userSpaceOnUse" x1="8.7483" y1="7.3499" x2="8.7483" y2="5.2596">
			<stop  offset="0.3691" style="stop-color:#11555C"/>
			<stop  offset="1" style="stop-color:#37C3B5"/>
		</linearGradient>
		<path style="fill:url(#SVGID_00000034774922869653432370000005103576927720405653_);" d="M8.78,5.87
			c-0.24-0.02-0.44,0.16-0.46,0.4C8.3,6.5,8.48,6.71,8.71,6.72c0.24,0.02,0.44-0.16,0.46-0.4C9.2,6.09,9.02,5.89,8.78,5.87z
			 M8.72,6.62C8.55,6.6,8.42,6.45,8.43,6.27C8.44,6.09,8.6,5.96,8.77,5.98c0.18,0.01,0.31,0.17,0.29,0.34
			C9.05,6.5,8.9,6.63,8.72,6.62z"/>
	</g>
	<g>
		
			<linearGradient id="SVGID_00000016762079833633246110000009254510660532147101_" gradientUnits="userSpaceOnUse" x1="7.2071" y1="6.2712" x2="7.2071" y2="7.7775">
			<stop  offset="0" style="stop-color:#F8A074"/>
			<stop  offset="1" style="stop-color:#F56A4C"/>
		</linearGradient>
		<path style="fill:url(#SVGID_00000016762079833633246110000009254510660532147101_);" d="M7.86,7.18c0-0.03,0-0.07,0-0.1
			c0-0.01,0-0.03-0.01-0.04C7.84,7.02,7.83,7,7.81,7C7.78,7,7.76,7,7.73,6.99c-0.02,0-0.03-0.01-0.04-0.02
			C7.68,6.94,7.67,6.92,7.65,6.89c-0.01-0.02-0.01-0.04,0-0.06C7.67,6.81,7.68,6.79,7.7,6.76C7.71,6.74,7.7,6.72,7.69,6.7
			C7.65,6.67,7.61,6.64,7.57,6.61c-0.02-0.02-0.03-0.02-0.05,0C7.5,6.64,7.48,6.65,7.45,6.67C7.44,6.68,7.43,6.68,7.42,6.68
			C7.39,6.67,7.36,6.66,7.33,6.65C7.31,6.64,7.3,6.63,7.3,6.61C7.29,6.59,7.28,6.56,7.27,6.53C7.27,6.51,7.26,6.5,7.24,6.5
			c-0.05-0.01-0.1,0-0.15,0.01c-0.02,0-0.03,0.01-0.03,0.03c0,0.03-0.01,0.06-0.01,0.09c0,0.02-0.01,0.04-0.03,0.04
			C6.99,6.68,6.97,6.69,6.95,6.7c-0.02,0.01-0.04,0.02-0.06,0C6.87,6.69,6.85,6.68,6.83,6.66c0,0-0.01,0-0.01-0.01
			c-0.01-0.01-0.03,0-0.04,0c0,0,0,0-0.01,0.01C6.74,6.7,6.71,6.73,6.68,6.77c-0.03,0.03-0.02,0.04,0,0.08
			C6.7,6.87,6.71,6.88,6.73,6.9c0.01,0.01,0.01,0.03,0.01,0.04C6.72,6.97,6.71,6.99,6.71,7.01C6.7,7.04,6.69,7.05,6.66,7.06
			c-0.02,0-0.05,0.01-0.07,0.02C6.57,7.08,6.56,7.09,6.56,7.12c0,0.05,0,0.09,0.01,0.14c0,0.02,0.01,0.04,0.04,0.04
			c0.03,0.01,0.06,0.01,0.08,0.01c0.02,0,0.03,0.01,0.04,0.03c0.01,0.03,0.02,0.05,0.04,0.07c0.01,0.01,0.01,0.02,0,0.04
			C6.74,7.47,6.73,7.5,6.71,7.52C6.7,7.54,6.71,7.57,6.73,7.59c0.03,0.03,0.06,0.05,0.09,0.07c0.03,0.03,0.04,0.03,0.08,0
			c0.02-0.01,0.04-0.03,0.06-0.05c0.01-0.01,0.03-0.01,0.05,0c0.02,0.01,0.04,0.02,0.06,0.02C7.08,7.65,7.1,7.66,7.1,7.68
			c0,0.02,0.01,0.05,0.02,0.07c0.01,0.02,0.02,0.04,0.05,0.04c0.05,0,0.09,0,0.14-0.01c0.02,0,0.04-0.02,0.04-0.04
			c0-0.02,0.01-0.04,0.01-0.07c0-0.03,0.01-0.05,0.04-0.05C7.42,7.62,7.44,7.61,7.46,7.6c0.02-0.01,0.03-0.01,0.05,0
			c0.02,0.01,0.04,0.03,0.06,0.04c0.02,0.01,0.04,0.01,0.06,0c0.04-0.03,0.07-0.07,0.1-0.11c0.02-0.02,0.02-0.05,0-0.07
			C7.72,7.44,7.7,7.43,7.69,7.41C7.67,7.39,7.67,7.37,7.68,7.35C7.69,7.33,7.7,7.31,7.7,7.29c0.01-0.02,0.02-0.03,0.04-0.04
			C7.77,7.24,7.8,7.23,7.83,7.23C7.85,7.22,7.86,7.2,7.86,7.18z M7.2,7.51C7,7.5,6.84,7.34,6.85,7.14c0-0.2,0.17-0.36,0.37-0.36
			c0.2,0,0.36,0.17,0.36,0.37C7.57,7.35,7.4,7.51,7.2,7.51z"/>
		
			<linearGradient id="SVGID_00000039841103796750927560000014873623000040518332_" gradientUnits="userSpaceOnUse" x1="7.2072" y1="6.2712" x2="7.2072" y2="7.7775">
			<stop  offset="0" style="stop-color:#F8A074"/>
			<stop  offset="1" style="stop-color:#F56A4C"/>
		</linearGradient>
		<path style="fill:url(#SVGID_00000039841103796750927560000014873623000040518332_);" d="M7.21,6.85c-0.16,0-0.29,0.12-0.29,0.28
			c0,0.16,0.12,0.29,0.28,0.29c0.16,0,0.29-0.12,0.29-0.28C7.5,6.99,7.37,6.86,7.21,6.85z M7.2,7.36c-0.12,0-0.21-0.1-0.21-0.22
			c0-0.12,0.1-0.21,0.22-0.21c0.12,0,0.21,0.1,0.21,0.22C7.42,7.27,7.32,7.36,7.2,7.36z"/>
	</g>
	<g>
		
			<linearGradient id="SVGID_00000030452329763600729540000009530514756226443431_" gradientUnits="userSpaceOnUse" x1="6.919" y1="1.02" x2="6.919" y2="3.1799">
			<stop  offset="0" style="stop-color:#F8A074"/>
			<stop  offset="1" style="stop-color:#F56A4C"/>
		</linearGradient>
		<path style="fill:url(#SVGID_00000030452329763600729540000009530514756226443431_);" d="M8.1,2.14C8.09,2.08,8.08,2.02,8.07,1.96
			c0-0.02-0.01-0.05-0.02-0.07C8.03,1.85,8.01,1.83,7.97,1.83c-0.05,0-0.09,0-0.14,0c-0.03,0-0.06-0.01-0.07-0.04
			C7.73,1.75,7.7,1.71,7.66,1.67C7.63,1.63,7.64,1.6,7.66,1.56c0.02-0.04,0.04-0.09,0.05-0.13c0.02-0.04,0-0.08-0.03-0.1
			C7.61,1.28,7.53,1.23,7.46,1.19C7.41,1.16,7.4,1.17,7.36,1.21C7.33,1.24,7.29,1.28,7.25,1.32C7.24,1.34,7.22,1.34,7.19,1.34
			C7.14,1.32,7.09,1.31,7.03,1.31C7,1.3,6.97,1.29,6.96,1.25C6.94,1.2,6.92,1.15,6.9,1.1C6.88,1.07,6.86,1.06,6.83,1.06
			c-0.09,0-0.18,0.03-0.27,0.05C6.52,1.12,6.51,1.14,6.51,1.17c0,0.05,0,0.11,0,0.16c0,0.04-0.01,0.07-0.05,0.09
			c-0.04,0.02-0.07,0.04-0.1,0.07C6.32,1.51,6.29,1.52,6.26,1.5C6.21,1.48,6.17,1.46,6.13,1.45c-0.01,0-0.01,0-0.02-0.01
			c-0.03-0.01-0.06,0-0.08,0.02c0,0-0.01,0.01-0.01,0.01C5.97,1.53,5.93,1.6,5.89,1.66C5.85,1.73,5.85,1.75,5.91,1.81
			C5.94,1.84,5.97,1.87,6,1.9c0.02,0.02,0.03,0.05,0.02,0.08C6.01,2.02,6,2.06,5.99,2.1C5.99,2.15,5.96,2.18,5.91,2.19
			C5.87,2.21,5.83,2.22,5.79,2.24C5.76,2.25,5.74,2.28,5.74,2.32c0.01,0.08,0.03,0.17,0.04,0.25c0.01,0.04,0.04,0.07,0.08,0.07
			c0.05,0,0.1,0.01,0.16,0.01c0.03,0,0.05,0.01,0.07,0.04c0.03,0.04,0.05,0.08,0.08,0.12c0.02,0.02,0.02,0.04,0,0.07
			C6.15,2.92,6.13,2.97,6.12,3.01c-0.02,0.05,0,0.1,0.04,0.13c0.05,0.04,0.11,0.07,0.17,0.11C6.39,3.29,6.4,3.29,6.46,3.24
			c0.03-0.03,0.07-0.06,0.1-0.1c0.02-0.02,0.05-0.03,0.09-0.01c0.03,0.02,0.07,0.02,0.11,0.02c0.05,0,0.08,0.02,0.09,0.07
			C6.86,3.26,6.88,3.3,6.9,3.34C6.92,3.38,6.95,3.4,7,3.4c0.08-0.01,0.16-0.02,0.24-0.04c0.04-0.01,0.07-0.04,0.07-0.08
			c0-0.04,0.01-0.08,0-0.12C7.3,3.1,7.32,3.07,7.37,3.04C7.4,3.03,7.44,3,7.47,2.98C7.5,2.95,7.53,2.95,7.56,2.97
			C7.6,2.99,7.65,3.01,7.69,3.03c0.04,0.02,0.07,0.01,0.1-0.01C7.86,2.96,7.9,2.88,7.95,2.8c0.02-0.05,0.02-0.09-0.02-0.12
			C7.9,2.65,7.87,2.62,7.84,2.59C7.81,2.56,7.8,2.53,7.81,2.49c0.01-0.04,0.02-0.08,0.03-0.12c0-0.04,0.03-0.06,0.07-0.08
			C7.95,2.27,8,2.25,8.05,2.23C8.09,2.21,8.1,2.19,8.1,2.14z M6.99,2.87C6.63,2.91,6.31,2.65,6.27,2.3
			C6.23,1.94,6.49,1.61,6.85,1.57c0.36-0.04,0.68,0.22,0.72,0.58C7.61,2.51,7.35,2.84,6.99,2.87z"/>
		
			<linearGradient id="SVGID_00000137121563253321873270000018384171775095824540_" gradientUnits="userSpaceOnUse" x1="6.9177" y1="1.02" x2="6.9177" y2="3.1799">
			<stop  offset="0" style="stop-color:#F8A074"/>
			<stop  offset="1" style="stop-color:#F56A4C"/>
		</linearGradient>
		<path style="fill:url(#SVGID_00000137121563253321873270000018384171775095824540_);" d="M6.86,1.7C6.57,1.73,6.36,1.99,6.4,2.28
			c0.03,0.29,0.29,0.5,0.58,0.46c0.29-0.03,0.5-0.29,0.46-0.58C7.41,1.88,7.15,1.67,6.86,1.7z M6.96,2.61
			C6.75,2.64,6.55,2.48,6.53,2.27C6.51,2.05,6.66,1.86,6.88,1.84c0.21-0.02,0.41,0.13,0.43,0.35C7.33,2.4,7.18,2.59,6.96,2.61z"/>
	</g>
	<path class="st11" d="M10.35,14.53c-0.09,0.16-0.27,0.24-0.44,0.19c-0.1-0.02-0.2-0.09-0.26-0.25v0.7c0,0.3-0.15,0.56-0.39,0.7
		c-0.05,0.03-0.1,0.06-0.15,0.08C9.02,15.98,8.92,16,8.82,16H7.15c-0.1,0-0.2-0.02-0.29-0.05C6.8,15.93,6.75,15.9,6.7,15.87
		c-0.23-0.15-0.39-0.41-0.39-0.7v-0.7c-0.06,0.16-0.16,0.23-0.26,0.25c-0.17,0.04-0.36-0.04-0.44-0.19
		c-0.16-0.28,0.05-0.67,0.05-0.67l0.4-0.82l1.89-0.05l0.02,0h0l0.02,0l1.89,0.05l0.4,0.82C10.3,13.85,10.51,14.25,10.35,14.53z"/>
	<g>
		
			<linearGradient id="SVGID_00000031209247974315124110000011484438187819759233_" gradientUnits="userSpaceOnUse" x1="4.9973" y1="14.8222" x2="8.5815" y2="11.7894">
			<stop  offset="0" style="stop-color:#DD532D"/>
			<stop  offset="1" style="stop-color:#FEC474"/>
		</linearGradient>
		<polygon style="fill:url(#SVGID_00000031209247974315124110000011484438187819759233_);" points="6.96,13.05 6.24,13.05 
			7.02,13.84 		"/>
		
			<linearGradient id="SVGID_00000161616991830839649650000016719336015013771908_" gradientUnits="userSpaceOnUse" x1="5.133" y1="14.9826" x2="8.7172" y2="11.9498">
			<stop  offset="0" style="stop-color:#DD532D"/>
			<stop  offset="1" style="stop-color:#FEC474"/>
		</linearGradient>
		<polygon style="fill:url(#SVGID_00000161616991830839649650000016719336015013771908_);" points="7.05,14.29 7.03,14.08 
			6.17,13.18 6.31,14.54 6.32,14.88 		"/>
		
			<linearGradient id="SVGID_00000098920294388445993900000003452678163100952239_" gradientUnits="userSpaceOnUse" x1="5.9564" y1="15.9556" x2="9.5406" y2="12.9228">
			<stop  offset="0" style="stop-color:#DD532D"/>
			<stop  offset="1" style="stop-color:#FEC474"/>
		</linearGradient>
		<polygon style="fill:url(#SVGID_00000098920294388445993900000003452678163100952239_);" points="7.14,15.52 7.06,14.48 
			6.44,14.99 		"/>
		
			<linearGradient id="SVGID_00000080898963411704049050000000781719007579356547_" gradientUnits="userSpaceOnUse" x1="5.9517" y1="15.9501" x2="9.5359" y2="12.9173">
			<stop  offset="0" style="stop-color:#DD532D"/>
			<stop  offset="1" style="stop-color:#FEC474"/>
		</linearGradient>
		<path style="fill:url(#SVGID_00000080898963411704049050000000781719007579356547_);" d="M6.32,15.08v0.09
			c0,0.3,0.15,0.56,0.39,0.7c0.11-0.09,0.3-0.26,0.3-0.26L6.32,15.08z"/>
		
			<linearGradient id="SVGID_00000140723205731902946870000003858602643499914938_" gradientUnits="userSpaceOnUse" x1="6.4059" y1="16.487" x2="9.9902" y2="13.4542">
			<stop  offset="0" style="stop-color:#DD532D"/>
			<stop  offset="1" style="stop-color:#FEC474"/>
		</linearGradient>
		<path style="fill:url(#SVGID_00000140723205731902946870000003858602643499914938_);" d="M7.12,15.72l-0.26,0.22
			C6.95,15.98,7.04,16,7.15,16h0.03l-0.02-0.23L7.12,15.72z"/>
		
			<linearGradient id="SVGID_00000009587429243387602130000015139215295441881279_" gradientUnits="userSpaceOnUse" x1="5.9521" y1="15.9506" x2="9.5363" y2="12.9178">
			<stop  offset="0" style="stop-color:#DD532D"/>
			<stop  offset="1" style="stop-color:#FEC474"/>
		</linearGradient>
		<polygon style="fill:url(#SVGID_00000009587429243387602130000015139215295441881279_);" points="7.24,14.3 7.29,15.37 
			7.87,14.86 		"/>
		
			<linearGradient id="SVGID_00000176762935995561629730000014514997409246878107_" gradientUnits="userSpaceOnUse" x1="5.3008" y1="15.1809" x2="8.885" y2="12.1481">
			<stop  offset="0" style="stop-color:#DD532D"/>
			<stop  offset="1" style="stop-color:#FEC474"/>
		</linearGradient>
		<polygon style="fill:url(#SVGID_00000176762935995561629730000014514997409246878107_);" points="7.86,13.61 7.16,13.05 
			7.12,13.05 7.2,14.03 7.27,14.09 		"/>
		
			<linearGradient id="SVGID_00000023273359014194172300000015004284008962530739_" gradientUnits="userSpaceOnUse" x1="5.3679" y1="15.2601" x2="8.9521" y2="12.2273">
			<stop  offset="0" style="stop-color:#DD532D"/>
			<stop  offset="1" style="stop-color:#FEC474"/>
		</linearGradient>
		<polygon style="fill:url(#SVGID_00000023273359014194172300000015004284008962530739_);" points="7.98,13.52 7.98,13.52 
			7.98,13.52 7.98,13.52 7.98,13.52 7.98,13.52 7.98,13.52 7.98,13.52 7.98,13.52 7.98,13.52 8.56,13.05 7.98,13.05 7.98,13.05 
			7.4,13.05 7.98,13.52 		"/>
		
			<linearGradient id="SVGID_00000049215632395132683120000012532752281769880741_" gradientUnits="userSpaceOnUse" x1="5.9764" y1="15.9793" x2="9.5606" y2="12.9465">
			<stop  offset="0" style="stop-color:#DD532D"/>
			<stop  offset="1" style="stop-color:#FEC474"/>
		</linearGradient>
		<polygon style="fill:url(#SVGID_00000049215632395132683120000012532752281769880741_);" points="9,13.05 8.95,13.84 9.72,13.05 
					"/>
		
			<linearGradient id="SVGID_00000011032582645600305030000002323006636965431198_" gradientUnits="userSpaceOnUse" x1="6.5788" y1="16.6913" x2="10.163" y2="13.6585">
			<stop  offset="0" style="stop-color:#DD532D"/>
			<stop  offset="1" style="stop-color:#FEC474"/>
		</linearGradient>
		<polygon style="fill:url(#SVGID_00000011032582645600305030000002323006636965431198_);" points="8.93,14.08 8.91,14.29 
			9.65,14.88 9.65,14.54 9.8,13.18 		"/>
		
			<linearGradient id="SVGID_00000100345975505038399430000005659262289628519576_" gradientUnits="userSpaceOnUse" x1="6.7128" y1="16.8496" x2="10.297" y2="13.8168">
			<stop  offset="0" style="stop-color:#DD532D"/>
			<stop  offset="1" style="stop-color:#FEC474"/>
		</linearGradient>
		<polygon style="fill:url(#SVGID_00000100345975505038399430000005659262289628519576_);" points="9.53,14.99 8.9,14.48 
			8.83,15.52 		"/>
		
			<linearGradient id="SVGID_00000016033862564067937550000004651874648336050342_" gradientUnits="userSpaceOnUse" x1="7.1702" y1="17.3901" x2="10.7544" y2="14.3573">
			<stop  offset="0" style="stop-color:#DD532D"/>
			<stop  offset="1" style="stop-color:#FEC474"/>
		</linearGradient>
		<path style="fill:url(#SVGID_00000016033862564067937550000004651874648336050342_);" d="M9.26,15.87
			c0.23-0.15,0.39-0.41,0.39-0.7v-0.09l-0.69,0.53C8.96,15.62,9.15,15.78,9.26,15.87z"/>
		
			<linearGradient id="SVGID_00000102544623737491835010000006299180173758708096_" gradientUnits="userSpaceOnUse" x1="7.1577" y1="17.3754" x2="10.742" y2="14.3427">
			<stop  offset="0" style="stop-color:#DD532D"/>
			<stop  offset="1" style="stop-color:#FEC474"/>
		</linearGradient>
		<path style="fill:url(#SVGID_00000102544623737491835010000006299180173758708096_);" d="M8.81,15.77L8.79,16h0.03
			c0.1,0,0.2-0.02,0.29-0.05l-0.26-0.22L8.81,15.77z"/>
		
			<linearGradient id="SVGID_00000129919054127233338880000011495307613997521335_" gradientUnits="userSpaceOnUse" x1="6.5491" y1="16.6562" x2="10.1333" y2="13.6234">
			<stop  offset="0" style="stop-color:#DD532D"/>
			<stop  offset="1" style="stop-color:#FEC474"/>
		</linearGradient>
		<polygon style="fill:url(#SVGID_00000129919054127233338880000011495307613997521335_);" points="8.67,15.37 8.72,14.3 
			8.09,14.86 		"/>
		
			<linearGradient id="SVGID_00000145761637193261178860000013826677083859104153_" gradientUnits="userSpaceOnUse" x1="5.9396" y1="15.9359" x2="9.5238" y2="12.9031">
			<stop  offset="0" style="stop-color:#DD532D"/>
			<stop  offset="1" style="stop-color:#FEC474"/>
		</linearGradient>
		<polygon style="fill:url(#SVGID_00000145761637193261178860000013826677083859104153_);" points="8.8,13.05 8.1,13.61 8.7,14.09 
			8.76,14.03 8.85,13.05 		"/>
		
			<linearGradient id="SVGID_00000142874585768911914070000002091994340638351510_" gradientUnits="userSpaceOnUse" x1="6.6348" y1="16.7574" x2="10.219" y2="13.7246">
			<stop  offset="0" style="stop-color:#DD532D"/>
			<stop  offset="1" style="stop-color:#FEC474"/>
		</linearGradient>
		<polygon style="fill:url(#SVGID_00000142874585768911914070000002091994340638351510_);" points="7.98,14.97 7.98,14.97 
			7.98,14.97 7.98,14.97 7.98,14.97 7.98,14.97 7.98,14.97 7.98,14.97 7.29,15.57 7.29,15.64 7.67,16 7.98,16 7.98,16 8.29,16 
			8.67,15.64 8.67,15.57 7.98,14.97 		"/>
		
			<linearGradient id="SVGID_00000070111722254885430020000007462784843250080910_" gradientUnits="userSpaceOnUse" x1="5.9481" y1="15.9459" x2="9.5323" y2="12.9131">
			<stop  offset="0" style="stop-color:#DD532D"/>
			<stop  offset="1" style="stop-color:#FEC474"/>
		</linearGradient>
		<polygon style="fill:url(#SVGID_00000070111722254885430020000007462784843250080910_);" points="7.98,14.76 7.98,14.76 
			7.98,14.76 8.59,14.2 7.98,13.73 7.98,13.73 7.98,13.73 7.98,13.73 7.98,13.73 7.98,13.73 7.98,13.73 7.98,13.73 7.98,13.73 
			7.98,13.73 7.98,13.73 7.38,14.2 7.98,14.76 7.98,14.76 7.98,14.76 7.98,14.76 7.98,14.76 7.98,14.76 7.98,14.76 7.98,14.76 		"/>
	</g>
	<path class="st29" d="M9.47,10.16c0,0.11-0.08,0.21-0.19,0.23l-2.46,0.4c-0.12,0.02-0.24-0.06-0.26-0.19
		c-0.02-0.12,0.06-0.24,0.19-0.26l2.46-0.4C9.32,9.92,9.44,10,9.46,10.13C9.46,10.14,9.47,10.15,9.47,10.16z"/>
	<path class="st29" d="M7.19,11.46c0.12,0.34,0.44,0.58,0.82,0.58c0.38,0,0.7-0.24,0.82-0.58H7.19z"/>
	<polygon points="8.06,12.98 8.06,12.99 8.01,12.98 	"/>
	<polygon points="8.01,12.98 7.96,12.99 7.96,12.98 	"/>
	<g>
		<g>
			
				<rect x="6.88" y="11.32" transform="matrix(0.9959 -0.091 0.091 0.9959 -1.0648 0.6828)" class="st30" width="0.15" height="1.4"/>
		</g>
	</g>
	<g>
		<g>
			<polygon class="st30" points="9.17,11.31 9.05,12.72 8.89,12.71 9.02,11.33 			"/>
		</g>
	</g>
	<g>
		<g>
			<g>
				
					<rect x="5.25" y="5.82" transform="matrix(0.9707 -0.2402 0.2402 0.9707 -2.0839 1.5526)" class="st29" width="0.15" height="7"/>
			</g>
		</g>
	</g>
	<g>
		<g>
			
				<rect x="7" y="9.03" transform="matrix(0.2402 -0.9707 0.9707 0.2402 -0.6878 17.3338)" class="st11" width="7.45" height="0.15"/>
		</g>
	</g>
	<path class="st29" d="M10.11,12.85c0,0.06-0.02,0.11-0.06,0.14c-0.04,0.04-0.09,0.06-0.14,0.06H6.07c-0.11,0-0.2-0.09-0.2-0.2
		c0-0.06,0.02-0.11,0.06-0.14c0.04-0.04,0.09-0.06,0.14-0.06h3.84C10.02,12.65,10.11,12.74,10.11,12.85z"/>
	<path class="st29" d="M9.47,10.82c0,0.11-0.08,0.21-0.19,0.23l-2.46,0.4c-0.12,0.02-0.24-0.06-0.26-0.19
		c-0.02-0.12,0.06-0.24,0.19-0.26l2.46-0.4c0.12-0.02,0.24,0.06,0.26,0.19C9.46,10.8,9.47,10.81,9.47,10.82z"/>
	<path d="M5.03,6.87C5.02,6.86,5,6.84,4.99,6.83C5,6.84,5.02,6.86,5.03,6.87z"/>
	<path class="st31" d="M8.91,9.36C8.87,9.45,8.82,9.55,8.74,9.64H8.7c0,0,0.01-0.01,0.01-0.01c0.01-0.06,0.01-0.11,0.02-0.17
		c0-0.03,0.01-0.06,0.01-0.09H8.91z"/>
	
		<linearGradient id="SVGID_00000052801440138541772980000016250551191590557859_" gradientUnits="userSpaceOnUse" x1="8.7549" y1="11.6941" x2="10.5364" y2="2.5887">
		<stop  offset="0" style="stop-color:#DD532D"/>
		<stop  offset="1" style="stop-color:#FEC474"/>
	</linearGradient>
	<path style="fill:url(#SVGID_00000052801440138541772980000016250551191590557859_);" d="M12.07,4.3
		c-0.03,0.37-0.11,0.73-0.25,1.07c-0.02,0.04-0.03,0.08-0.05,0.11c0,0,0,0,0,0c0,0,0,0,0,0c0,0,0,0,0,0
		c-0.02,0.05-0.17,0.36-0.41,0.7C11.29,6.3,11.2,6.41,11.1,6.52c0,0,0,0,0,0c-0.02,0.02-0.03,0.03-0.05,0.05
		c-0.18,0.18-0.36,0.34-0.55,0.51c-0.15,0.14-0.3,0.28-0.45,0.42c-0.08,0.07-0.15,0.16-0.2,0.25c-0.11,0.18-0.18,0.37-0.2,0.58
		C9.64,8.47,9.64,8.6,9.63,8.73C9.62,8.88,9.62,9.03,9.6,9.17C9.58,9.31,9.53,9.44,9.45,9.54c0,0,0,0,0,0
		C9.39,9.61,9.31,9.67,9.23,9.71C9.14,9.75,9.05,9.77,8.95,9.78C8.83,9.8,8.71,9.82,8.59,9.84c0,0,0,0,0,0L8.47,9.86
		c0.11-0.06,0.2-0.14,0.27-0.22C8.76,9.62,8.77,9.6,8.79,9.58C8.79,9.57,8.8,9.56,8.81,9.55c0,0,0,0,0,0c0-0.01,0.01-0.01,0.01-0.02
		C8.83,9.51,8.84,9.5,8.85,9.49c0-0.01,0.01-0.01,0.01-0.02c0-0.01,0.01-0.01,0.01-0.02c0-0.01,0.01-0.02,0.01-0.02
		c0-0.01,0.01-0.02,0.01-0.03c0,0,0,0,0,0c0-0.01,0.01-0.01,0.01-0.02c0,0,0,0,0-0.01c0,0,0,0,0,0h0c0.01-0.01,0.01-0.03,0.02-0.04
		C8.99,9.12,9,8.89,9.01,8.67c0-0.08,0.01-0.16,0.01-0.23c0-0.25,0.03-0.5,0.1-0.74C9.19,7.43,9.32,7.2,9.51,7
		C9.69,6.82,9.89,6.65,10.1,6.5c0.28-0.22,0.55-0.45,0.78-0.73c0.28-0.35,0.48-0.75,0.59-1.19c0.08-0.34,0.1-0.69,0.07-1.04
		c-0.04-0.4-0.15-0.77-0.33-1.13c-0.07-0.13-0.14-0.26-0.22-0.38c-0.13-0.2-0.29-0.38-0.46-0.55c-0.1-0.1-0.22-0.18-0.33-0.27
		c-0.02-0.02-0.05-0.04-0.07-0.05C9.84,0.95,9.53,0.8,9.2,0.7C9.14,0.68,9.08,0.66,9.02,0.65l0,0c0,0,1.44,0.08,2.32,1.07
		c0,0,0,0,0,0v0h0c0.08,0.12,0.16,0.24,0.24,0.37c0.21,0.36,0.36,0.75,0.44,1.16C12.07,3.6,12.1,3.95,12.07,4.3z"/>
	<polygon points="11.33,1.72 11.33,1.72 11.33,1.72 	"/>
	
		<linearGradient id="SVGID_00000164506969831066996940000004129493428134480008_" gradientUnits="userSpaceOnUse" x1="7.6241" y1="11.5887" x2="7.6241" y2="0.0953">
		<stop  offset="0.3691" style="stop-color:#11555C"/>
		<stop  offset="1" style="stop-color:#37C3B5"/>
	</linearGradient>
	<path style="fill:url(#SVGID_00000164506969831066996940000004129493428134480008_);" d="M11.33,1.72
		c-0.87-0.99-2.32-1.07-2.32-1.07C8.8,0.6,8.57,0.58,8.35,0.57c-0.3-0.01-0.59,0.01-0.88,0.06C6.97,0.71,6.51,0.9,6.09,1.17
		c-0.3,0.19-0.55,0.43-0.78,0.7C5.12,2.1,4.96,2.34,4.83,2.61c-0.29,0.61-0.4,1.25-0.32,1.92c0.06,0.52,0.24,0.99,0.52,1.42
		c0.21,0.33,0.49,0.61,0.77,0.87c0.13,0.12,0.26,0.25,0.38,0.39c0.16,0.19,0.3,0.4,0.39,0.63c0.12,0.29,0.17,0.6,0.19,0.92
		C6.76,8.88,6.77,8.99,6.78,9.1c0.02,0.14,0.1,0.24,0.25,0.26c0.02,0,0.03,0,0.05,0.01H8.9l0,0c0,0,0,0,0,0.01
		c0,0.01-0.01,0.01-0.01,0.02c0,0,0,0,0,0c0,0.01-0.01,0.02-0.01,0.03c0,0.01-0.01,0.02-0.01,0.02c0,0.01-0.01,0.01-0.01,0.02
		c0,0.01-0.01,0.01-0.01,0.02C8.84,9.5,8.83,9.51,8.82,9.52c0,0.01-0.01,0.01-0.01,0.02c0,0,0,0,0,0C8.8,9.56,8.79,9.57,8.79,9.58
		C8.77,9.6,8.76,9.62,8.74,9.64C8.67,9.72,8.59,9.8,8.47,9.86l-1.66,0.27c-0.12,0.02-0.24-0.06-0.26-0.19
		C6.54,9.82,6.61,9.7,6.73,9.68L6.66,9.61l0,0C6.5,9.47,6.42,9.29,6.41,9.08C6.4,8.95,6.39,8.82,6.38,8.7
		C6.35,8.32,6.21,7.99,5.94,7.72C5.77,7.56,5.59,7.4,5.42,7.24C5.28,7.12,5.15,7,5.03,6.87C5.02,6.86,5,6.84,4.99,6.83c0,0,0,0,0,0
		C4.91,6.74,4.84,6.66,4.77,6.57C4.77,6.56,4.76,6.55,4.75,6.54C4.52,6.22,4.3,5.83,4.29,5.81c0,0,0,0,0,0
		c-0.18-0.39-0.3-0.8-0.35-1.22C3.93,4.41,3.91,4.23,3.92,4.06C3.92,3.62,4,3.19,4.15,2.77c0.2-0.56,0.51-1.05,0.92-1.48
		c0.44-0.46,0.97-0.81,1.57-1.03c0.38-0.14,0.77-0.22,1.17-0.25c0.24-0.02,0.47,0,0.71,0.03c0.37,0.05,0.73,0.14,1.08,0.28
		c0.4,0.17,0.77,0.39,1.1,0.68C10.93,1.22,11.15,1.46,11.33,1.72z"/>
	<g>
		<path class="st11" d="M8.64,9.36V8.55c0-0.07-0.04-0.13-0.09-0.17l-0.1-0.06C8.44,8.32,8.43,8.31,8.43,8.29V8.03
			c0-0.2-0.16-0.36-0.36-0.36c-0.2,0-0.36,0.16-0.36,0.36v0.27c0,0.01-0.01,0.03-0.02,0.03L7.6,8.39c-0.06,0.04-0.09,0.1-0.09,0.17
			v0.81H7.39c0,0,0.07,0.27,1.45,0.12C8.87,9.45,8.89,9.41,8.9,9.36H8.64z M7.66,9.36V8.55c0-0.01,0.01-0.03,0.02-0.04l0.1-0.06
			c0.06-0.03,0.09-0.1,0.09-0.16V8.03c0-0.11,0.09-0.2,0.2-0.2s0.2,0.09,0.2,0.2v0.27c0,0.07,0.04,0.13,0.09,0.16l0.1,0.06
			c0.01,0.01,0.02,0.02,0.02,0.04v0.81H7.66z"/>
	</g>
</g>
</svg>
